<?xml version="1.0" standalone="no"?>
<!DOCTYPE svg PUBLIC "-//W3C//DTD SVG 1.1//EN" "http://www.w3.org/Graphics/SVG/1.1/DTD/svg11.dtd" >
<svg xmlns="http://www.w3.org/2000/svg" xmlns:xlink="http://www.w3.org/1999/xlink" version="1.1">
<metadata></metadata>
<defs>
<font id="1942_report1942_report" horiz-adv-x="1333" >
<font-face units-per-em="2048" ascent="1638" descent="-410" />
<missing-glyph horiz-adv-x="1327" />
<glyph horiz-adv-x="0" />
<glyph horiz-adv-x="682" />
<glyph unicode=" "  horiz-adv-x="1327" />
<glyph unicode="&#x09;" horiz-adv-x="1327" />
<glyph unicode="&#xa0;" horiz-adv-x="1327" />
<glyph unicode="!" horiz-adv-x="1327" d="M506 236q0 -53 7 -73t19.5 -29t27.5 -16t34 -34h170q2 0 9 8t11 12.5t11.5 21.5t11.5 21.5t22.5 21.5t20.5 21q0 2 1 27t1 37q0 8 -1 32.5t-1 32.5q-33 12 -56.5 26.5t-47 28t-52 23t-71.5 9.5q-29 0 -50.5 -17.5t-37 -43.5t-22.5 -55t-7 -54zM549 1163q0 -135 7 -277.5 t15 -269.5q2 -4 10.5 -11t12.5 -9h8q35 0 66.5 7t52.5 36q10 12 26.5 36.5t16.5 26.5v320q16 6 19 16.5t3 24.5q0 53 -21.5 111.5t-43.5 103.5q-6 14 -22.5 38.5t-20.5 24.5q-16 6 -38 -5t-40 -29.5t-32.5 -39t-16.5 -32.5l-1 -27q-1 -28 -1 -45zM614 723v43h43v-43h-43z " />
<glyph unicode="&#x22;" horiz-adv-x="1327" d="M406 1065q0 -35 3 -69.5t12.5 -67.5t29.5 -56v-233q0 -23 11 -35t26.5 -19t34 -9.5t34.5 -2.5h43q0 27 3 93.5t7 141.5t7.5 141.5t3.5 92.5v70v59q0 8 -3.5 30t-6.5 45.5t-6 44t-5 28.5q-4 2 -11 3t-11 1t-12.5 -1t-8.5 -3q-2 0 -8 -6t-13.5 -14.5t-13.5 -14.5t-8 -6 q-33 -20 -53.5 -27.5t-32.5 -18.5t-17 -32.5t-5 -69.5v-65zM770 1085q2 -12 8 -41.5t13.5 -63.5t13.5 -64.5t8 -43.5v-22v-21q0 -2 -4 -11t-8 -20.5t-7 -20.5t-3 -11t10 -10t12 -11q4 -31 2 -64.5t2 -62t20.5 -48t59.5 -19.5q25 0 45.5 2t40.5 20q2 43 9 95.5t15.5 105.5 t13.5 106.5t5 98.5v20q-2 14 -5 48t-6 71t-6 71t-5 46q-16 23 -39 37t-44.5 29.5t-40 34t-26.5 48.5q-2 -8 -9 -32.5t-11 -32.5q-2 -4 -8.5 -16.5t-14.5 -25.5t-14 -26.5t-6 -15.5q-4 -18 -2 -38.5t3 -39t-3.5 -37t-18.5 -35.5z" />
<glyph unicode="#" d="M223 618q6 -2 21.5 -5t32 -6t32 -6t21.5 -3h14h29h26h17q12 -2 17 -13.5t6 -24.5t0 -25.5t-1 -16.5q0 -66 -4 -120t-18 -119q-2 -6 -8.5 -29t-14.5 -47.5t-14 -46t-6 -27.5q0 -4 -1 -32.5t-1 -43.5q0 -8 1 -36.5t1 -36.5q8 -4 31.5 -12.5t31.5 -10.5h13h10l20.5 20.5 t20.5 22.5h-72q0 4 -2 13.5t-5 19.5t-5 18t0 12q8 18 21.5 28.5t28.5 19t30.5 15.5t25.5 24q0 10 1 37.5t1 37.5q0 37 -7 71t-16 67.5t-16.5 68.5t-7.5 70q0 31 4 44t15.5 18t28 6t40.5 8q4 0 21.5 9t21.5 11h21q25 0 41 -4t45 -16q0 -8 1 -33t1 -33q0 -55 -14.5 -111.5 t-31 -112t-30.5 -111.5t-14 -111q0 -16 2 -46t9 -59t22.5 -49.5t44.5 -20.5q8 0 15 13.5t13 32t12.5 37t12.5 26.5q0 2 9 10t11 13q4 8 11.5 24t14.5 32.5t12 31t5 18.5q2 10 5 54t6.5 94.5t6.5 94.5t3 56q4 35 8 69.5t35 57.5q4 2 21.5 10t21.5 13q2 0 10 10t10 10h23 q20 0 41.5 -1t40.5 -1q20 0 24 2t21.5 20.5t21.5 22.5q14 10 22.5 12t13.5 4t7 7.5t2 19.5q0 10 -15 25.5t-35.5 29t-41 22.5t-29.5 9q-2 0 -6 -1l-4 -1q-2 0 -11 -6t-20.5 -14.5t-20.5 -14.5t-11 -8q-2 0 -11.5 -1t-13.5 -1q-16 0 -25.5 11t-12.5 26.5t-3 32.5v30v17 q0 12 2 24.5t7.5 22.5t13.5 10h235v92q-47 0 -78.5 -15.5t-72.5 -15.5q-14 0 -36 9.5t-42.5 24t-35.5 30.5t-15 31q0 37 12 71.5t12 71.5v21q-4 -4 -12 -20.5t-10 -22.5q-4 -12 -16.5 -42t-27 -64t-26.5 -64.5t-16 -42.5h-178q0 10 2 37.5t3 58t2 58.5t1 38q0 6 -8.5 22.5 t-12.5 20.5q-2 -10 -7 -34.5t-12 -51.5t-14.5 -51.5t-9.5 -34.5q-10 -25 -32.5 -52.5t-53.5 -31.5q8 -2 29.5 -7t46.5 -12.5t45.5 -13.5t28.5 -10q4 -2 21.5 -20.5t21.5 -22.5q14 -8 29.5 -12t28.5 -8.5t21.5 -14.5t8.5 -31q0 -14 -2 -18t-6 -5t-13.5 -3t-23.5 -14 q-4 -2 -13.5 -12.5t-19.5 -20.5t-20.5 -19.5t-12.5 -11.5t-12 -2q-8 0 -18.5 1t-20.5 1h-12q-2 -2 -8.5 -11t-13.5 -20.5t-13 -21.5t-8 -13q-4 -4 -18.5 5.5t-18.5 9.5q0 4 -3 14t-3 15q2 8 10 32.5t12 30.5q-4 2 -16 3t-17 1q-6 0 -18 -1t-12 -3q-4 -2 -11.5 -20.5 t-11.5 -20.5q-4 -4 -17 4t-18 8q0 25 5.5 40.5t13.5 30.5t18.5 35.5t20.5 51.5q-18 12 -25.5 26.5t-15.5 29t-19.5 23.5t-36.5 9q-35 0 -59 -21.5t-59 -33.5h65v-225zM907 1323h21l-21 43v-43zM918 1483q0 -12 10 -10q10 4 10 10q0 8 -10 12q-10 2 -10 -12z" />
<glyph unicode="%" horiz-adv-x="1327" d="M131 895q0 -27 9.5 -59.5t35.5 -47.5v11v12q-2 8 -6 22.5t-7 29t-6 23.5l-3 9h-23zM231 -319h52q2 2 12 20t26.5 44t24.5 42q16 29 21.5 44t5.5 50q-4 0 -13.5 -3t-13.5 -5q-4 -4 -10 -22.5t-10 -20.5q-4 -4 -18.5 4t-18.5 8q0 49 20.5 68.5t44 31t44 26t20.5 55.5h-115 q-2 0 -9 -16.5t-11 -26.5q-4 -12 -11.5 -39t-13.5 -54.5t-12 -50t-6 -29.5q0 -6 -2 -24.5t-3.5 -38.5t-2.5 -38.5t-1 -24.5zM240 725q0 -14 14 -22.5t33.5 -13.5t39 -6t29.5 -1q29 0 59.5 4t59.5 19q4 2 20.5 20t20.5 20q4 4 12.5 -3t12.5 -7q0 -10 4 -35.5t8 -54.5t6 -54.5 t0 -35.5q-2 -8 -10 -27.5t-18.5 -40t-19.5 -38t-15 -23.5q16 -4 20 -17.5t4 -27.5q0 -4 -1 -11.5t-3 -7.5q-2 -2 -11 -5t-19.5 -6t-20.5 -6t-12 -3q-25 -12 -41.5 -45t-27.5 -73t-16.5 -79t-5.5 -63q70 0 96.5 30.5t37 71.5t19.5 85t44 73q4 2 14.5 -1t20.5 -8t20.5 -9.5 t14.5 -4.5q0 -49 18.5 -91t50 -73.5t75.5 -50t95 -18.5q82 0 138.5 46t89 113.5t47 145.5t14.5 141v107q-14 16 -34.5 38.5t-43 42t-47 34t-47.5 14.5q-41 0 -67.5 -9t-51 -20.5t-53.5 -20.5t-72 -9q0 8 -2 25.5t-5 37t-4 36.5t-1 23q0 4 7 22.5t14.5 40t14.5 41t7 23.5 q2 6 -7 22.5t-13 20.5q0 2 -9 3h-12q-18 0 -32.5 -4.5t-32.5 -18.5q18 -6 20 -17.5t2 -23.5q0 -10 -6 -32.5t-15.5 -47t-21.5 -45t-22 -27.5q-4 -4 -16.5 5.5t-18.5 9.5q0 6 -3 17t-4 21.5t3 19.5t18 13q-29 -2 -37 10.5t-8 30.5t7 33t16.5 30t16.5 31.5t7 39.5q0 8 -1 22 t-1 16q-2 4 -21.5 10.5t-21.5 10.5q0 2 -3 13.5t-7 24.5t-7 26.5t-3 21.5q0 2 -1 10t-1 13q0 37 21.5 53t46 28.5t46 31t21.5 59.5q-35 0 -74 -7.5t-59 -38.5q-4 -4 -11.5 -22t-11.5 -21q-2 -2 -14.5 -1t-28.5 1q-14 0 -26.5 1.5t-14.5 -1.5q-4 -2 -10 -11t-12.5 -20.5 t-12.5 -20.5t-8 -11t-11 -5t-20.5 -6t-20.5 -6t-11 -6q-6 -2 -22.5 -14t-20.5 -16h192l9 -20q8 -21 12 -34q8 -23 12 -34t6 -19t3 -17t1 -26q0 -41 -18.5 -97t-46.5 -85q-14 -14 -49 -26.5t-72 -27t-64.5 -31.5t-27.5 -42zM240 1087q2 0 5 -1t5 -1q4 0 7 1l3 1 q6 4 14.5 11.5t8.5 9.5q0 6 -8.5 22.5t-14.5 20.5zM559 383v66h43v-66h-43zM750 375q0 33 14 71.5t38.5 72.5t58.5 57.5t71 23.5q20 0 40.5 -9t38 -23.5t29 -35t11.5 -40.5q0 -84 -48.5 -139.5t-134.5 -55.5q-43 0 -80.5 14.5t-37.5 63.5zM752 1450q-2 -6 6 -22.5t14 -20.5 q-2 29 11.5 37t31.5 8q27 0 46.5 -18.5t19.5 -44.5q0 -27 -5.5 -44.5t-17.5 -44.5q-4 -10 -16.5 -34.5t-25.5 -51t-25.5 -51.5t-18.5 -33q6 -16 17.5 -19t25.5 -3t25.5 3t17.5 19q29 78 46.5 149t39.5 148q4 18 18.5 29.5t30 22t26.5 19.5t11 26q0 2 -1 6t-1 6 q-4 10 -11 34.5t-9 28.5h-11h-12q-41 -10 -80 -15t-70.5 -19.5t-53 -40t-29.5 -74.5z" />
<glyph unicode="&#x26;" horiz-adv-x="1327" d="M168 414q0 -43 7 -94.5t38 -86.5q8 -10 28.5 -31.5t44 -45t45 -44t31.5 -28.5q6 0 25 -1t39 -2t39 -1h24h33q20 0 41 1t37 2t18 1q4 0 22.5 10t40 21.5t40 21.5t24.5 10q4 2 32 3.5t44 1.5q37 0 67 -11.5t56.5 -25t53 -24.5t61.5 -11q4 0 15 1t13 3l150 149q0 2 2 12.5 t2 16.5q0 31 -16.5 55.5t-50.5 24.5q-20 0 -41 -11.5t-40.5 -23.5t-41 -23.5t-41.5 -11.5q-27 0 -41.5 12.5t-21.5 31t-9 41t-2 42.5q0 14 2 45t8 59.5t19.5 51.5t35.5 23q18 0 32 -8.5t11 -37.5h127q2 0 10.5 15.5t12.5 26t11 35t9 30.5l2 4q1 4 1 6q0 14 -18.5 35 t-43.5 39t-49.5 31.5t-38.5 13.5q-12 0 -28.5 -8t-32 -19.5t-28.5 -22.5t-20 -16q-6 -6 -21 -20t-32.5 -31.5t-32 -33t-20.5 -21.5q-4 0 -15.5 -1t-15.5 -1q-45 0 -84 16.5t-39 67.5q0 74 31 119t69 89t68.5 98t30.5 146q0 51 -18.5 88t-50 61t-73.5 35t-91 11q-14 0 -40 -1 t-28 -3q-4 -2 -21.5 -18.5t-38 -37t-40 -41t-27.5 -32.5q-4 -6 -13.5 -29.5t-9.5 -34.5v-319q0 -2 -9 -12.5t-23.5 -23.5t-28.5 -27.5t-23 -22.5q-4 -2 -21 -10t-22 -11q-12 -8 -36.5 -23t-26.5 -20q-4 -4 -11 -21t-11.5 -21.5l-21.5 -21.5l-22 -22q-18 -37 -20 -77.5 t-2 -81.5zM297 469q0 20 22.5 56t53 71t60.5 61.5t46 26.5q33 0 50.5 -13.5t27.5 -34t17.5 -43t21.5 -40.5q4 -4 22.5 -11t20.5 -9.5t9 -27l11 -38.5q4 -12 11.5 -31.5t15.5 -41t13.5 -43t5.5 -36.5q0 -18 -15.5 -30.5t-36 -19.5t-42 -10t-33.5 -3t-38 1t-28 1q-4 0 -16.5 4 t-26.5 8t-27.5 7t-15.5 3q-16 0 -21.5 -14t-8.5 -30.5t-9 -31t-25 -14.5q-4 0 -11 1t-11 3q-8 63 -25.5 138t-17.5 141zM553 1034q0 20 8 52t22.5 61t34 49.5t44.5 20.5q4 0 11 -1.5t9 -1.5q6 -4 21.5 -12t33 -18t31.5 -19.5t20 -13.5q0 -4 1.5 -16.5t1.5 -16.5 q0 -25 -14.5 -59.5t-36 -66t-48 -55.5t-51.5 -24q-53 0 -70.5 37t-17.5 84z" />
<glyph unicode="'" horiz-adv-x="1327" d="M582 1087q0 -25 3 -89t6 -134.5t6 -135t5 -89.5q4 -8 19.5 -24.5t23.5 -18.5q12 -4 36 6t47.5 26.5t43 36t23.5 37.5q2 12 6 38t7 52.5t6 50t3 29.5q0 4 -3 20.5t-7 34t-8 34t-4 20.5v23q0 12 3 19t8 13t8 14.5t3 22.5q0 31 -6 77t-20.5 89t-39 73.5t-63.5 30.5 q-35 0 -55.5 -16t-31.5 -41.5t-15 -55.5t-4 -56v-87z" />
<glyph unicode="(" horiz-adv-x="1327" d="M506 715q0 -31 1 -61.5t1 -53.5v-25q0 -6 6 -34.5t14.5 -60t14.5 -60.5t8 -35v-12v-21v-20v-10q8 -29 17.5 -46.5t19.5 -33t22.5 -30.5t24.5 -40q6 -10 24.5 -47t40 -81t40 -82t24.5 -46q10 -16 26.5 -34.5t36 -35t42 -28t44.5 -11.5q4 0 13 1l8 2q2 0 10 10t10 10 q8 2 37 5t35 3q0 14 1 37t-1 45.5t-8 44t-21 37.5q-4 4 -23.5 22.5t-41 40l-40 40t-22.5 24.5q-35 39 -58.5 93t-47.5 100q-2 4 -12.5 19t-21.5 32.5t-20.5 34t-9.5 20.5q0 2 -3 27.5l-7 59.5t-7 68.5l-5 57.5v10v21v20v13q0 2 -3 15t-7 26.5t-7.5 25.5t-3.5 16 q0 16 -1 59.5t-1 90.5t1 90t1 59q-4 0 -12 8.5t-10 12.5q0 8 -1 26.5t-1 36.5q0 20 1 39t1 27q-53 -41 -81 -97.5t-38 -120t-10 -128.5v-125v-51zM700 1257q6 -10 31 -10t33 10q2 4 -8.5 6.5t-24.5 2.5t-24.5 -2t-6.5 -7zM739 1395q0 -25 13.5 -49.5t44.5 -24.5h10 q8 6 22.5 19.5t27.5 27.5t23.5 24.5t10.5 14.5q2 4 4 31.5t2 42.5q0 10 -2 37.5t-4 37.5q-10 4 -42 12.5t-42 8.5q-14 0 -26.5 -22.5t-21.5 -52t-14.5 -60.5t-5.5 -47z" />
<glyph unicode=")" d="M365 1538q2 -6 7 -18.5t12 -25.5t13 -25.5t11 -16.5q2 -4 14 -16.5t27.5 -26.5t27.5 -26.5t17 -16.5q0 -2 3 -11t7 -19.5t7 -20.5t3 -12q6 -16 20.5 -38t30 -43.5t30.5 -40t25.5 -28.5t26 -18.5t28.5 -16.5t22.5 -19.5t9.5 -29.5q0 -23 -11.5 -30t-11.5 -23 q0 -20 11.5 -35.5t11.5 -38.5q0 -135 -16.5 -281.5t-69.5 -275.5q-14 -31 -33 -62.5t-31 -64.5q-4 -8 -11 -24.5t-11 -18.5q-31 -37 -58.5 -65.5t-48 -57.5t-33 -64.5t-12.5 -86.5q0 -63 19.5 -98.5t91.5 -35.5q12 0 43.5 32t66.5 73t64.5 80t38.5 53q0 2 3 11.5t7 19.5 t7 20t3 13q66 133 97.5 282.5t31.5 302.5q0 68 -3 142.5t-13.5 148.5t-32 144.5t-57.5 130.5q-2 2 -12.5 12t-20.5 20.5t-20.5 19.5t-12.5 13q-2 2 -8 14.5t-13.5 27.5t-13.5 27.5t-8 14.5q-2 4 -20.5 11t-20.5 12q-29 23 -50.5 42t-45 33.5t-51 22.5t-68.5 8h-20z" />
<glyph unicode="*" horiz-adv-x="1327" d="M330 1096q0 -6 1 -17.5t1 -13.5q2 -4 20.5 -21.5t22.5 -21.5q20 -33 31.5 -84t11.5 -88q0 -10 -3 -17.5t-8.5 -13.5t-8.5 -12t-3 -19q0 -20 3 -33.5t20 -29.5q29 16 61.5 29.5t67.5 13.5q33 0 44 -14.5t13 -34t0 -42t4 -38.5q2 -4 11.5 -13.5t20.5 -19.5t21.5 -19 t12.5 -12q2 -4 9 -21t11 -22l4 -1t7 -1q2 0 6 1l4 1q29 29 36 63t15 63.5t24.5 49t63.5 19.5q35 0 56.5 -12.5t50.5 -12.5q35 0 56 20.5t21 53.5q0 25 -10 47.5t-23.5 47t-23.5 54t-10 70.5v27q4 6 20.5 15.5t22.5 6.5q0 6 1 27t1 27v32q0 18 -5 33t-16.5 24t-31.5 9 q-18 0 -29.5 -4t-22 -9t-22.5 -9.5t-35 -4.5q-6 0 -26.5 1t-26.5 1q-6 16 -19.5 42t-32 50.5t-38 42t-37.5 17.5h-12q-6 0 -11 -2q0 -8 -7 -24.5t-17.5 -33t-21.5 -30.5t-17 -19q-4 -4 -26.5 -6t-48.5 -5t-47.5 -5t-27.5 -4q-2 -2 -10 -11t-10 -12q-20 -10 -36.5 -14t-28 -9 t-17.5 -16.5t-6 -35.5z" />
<glyph unicode="+" d="M313 426q0 -41 22.5 -68.5t67.5 -27.5v73h97q0 -4 6 -20t4 -21q-4 -8 -20.5 -23t-22.5 -20h135v-75q0 -39 5 -78t17.5 -76t34.5 -70q4 0 26 -1t28 -1q51 0 75.5 29t32.5 72t7 91t1 87q31 -4 81.5 -2t98.5 14.5t83.5 37t35.5 69.5q0 35 -25.5 60.5t-60.5 33.5 q-12 2 -41.5 6t-63.5 8t-64.5 6t-43.5 2q-8 35 -11 86.5t-12 99.5t-30.5 82t-64.5 34q-27 0 -45.5 -23t-28.5 -45q-4 -6 -5 -18l-1 -13h86l5 -21q5 -20 1 -32q-6 -29 -12 -37t-29 -8q-14 0 -26.5 3t-18.5 19q-4 0 -12.5 -8t-8.5 -12q-2 -6 -3 -21.5t-1 -31.5t1 -31.5 t3 -22.5q-10 -4 -33.5 -10t-51 -13t-52 -12t-35.5 -8q-23 -4 -46 -2t-41.5 -1t-31 -15t-12.5 -45zM659 127v43h41v-43h-41zM979 362v41h43v-41h-43z" />
<glyph unicode="," d="M563 233q0 -8 1 -23t1 -17q2 -4 11.5 -22.5t20.5 -40t20.5 -40t11.5 -24.5v-17q0 -12 -1 -26.5t-1 -26.5q0 -14 2 -16.5t11 -5.5t20.5 -6t21.5 -5t12 -4q4 -4 12.5 -20.5t8.5 -22.5q8 27 23.5 52.5t28.5 51t23.5 52t10.5 55.5q0 39 -2 63.5t-9.5 44t-20.5 39t-34 48.5 q-2 4 -9 21t-11 22l-4 1t-9 1q-14 0 -17 -11.5t-5 -24t-6 -23.5t-23 -11q-16 0 -21 7t-9.5 16.5t-8.5 17.5t-16 8q-14 0 -20.5 -14.5t-9.5 -32.5t-3 -39v-27zM598 -74q0 -14 10 -10t10 12q0 7 -10 9q-10 4 -10 -11z" />
<glyph unicode="-" d="M305 631q0 -35 16.5 -50.5t28.5 -48.5q6 0 22.5 9.5t20.5 13.5t10.5 31.5t10.5 31.5q4 2 15 -1t23.5 -7t23.5 -9t16 -5q0 -14 -3.5 -21.5t-6.5 -11.5l-6 -8t-3 -12q20 0 72.5 -1t111 -3t110.5 -3t73 -4q4 0 16 -3t26.5 -7t27 -7t16.5 -3q23 0 56.5 4t64 16.5t52 32 t21.5 49.5q0 29 -7 45.5t-20.5 27.5t-34 19.5t-46.5 18.5h-43t-65 1t-64 1h-43h-56q-35 0 -68.5 -1t-60.5 -1h-28q-6 0 -27.5 -3t-46.5 -7t-47.5 -7t-28.5 -3h-16h-27h-26h-15q-33 -10 -39 -30t-6 -44zM969 575v43h43v-43h-43z" />
<glyph unicode="." d="M444 201q0 -20 13.5 -37t32 -30t36 -25.5t25.5 -24.5h170q2 0 13 14.5t24.5 35t27 42t21.5 35.5v20q0 45 -20.5 79t-52.5 54.5t-72.5 31t-81.5 10.5q-33 0 -57.5 -23t-42 -54.5t-27 -66t-9.5 -61.5z" />
<glyph unicode="/" d="M322 -258q0 -18 5 -41t15 -41t27.5 -31.5t40.5 -13.5q2 0 10 1t10 1q2 8 11.5 26.5t19.5 38t19 38t14 24.5q2 4 11 11t11 12q0 4 3 21t7 37.5t7.5 39t3.5 29.5v12v20v21v12q2 4 21.5 10t21.5 11v16v27v26v17q4 6 19 22t24 18q-23 4 -24 30t-1 38q0 8 1 23.5t1 17.5 q2 6 14.5 27.5t27.5 46t27.5 46t16.5 27.5q12 25 17.5 63t9.5 75t11 65.5t26 32.5l86 320q16 6 27 37.5t20.5 69.5t17.5 74t21 54q4 6 12 21.5t8 19.5v20v33v35v21q0 2 10.5 10t10.5 10q2 2 8 15.5t13 27.5t13.5 26.5t8.5 16.5t10 11t12 10v149q0 2 -16.5 9t-26.5 11 q-2 0 -6 1.5t-6 1.5t-18.5 -31t-39 -69t-47 -72.5t-43.5 -43.5v-192q-29 -8 -47 -38t-30.5 -65.5t-20.5 -72.5t-20 -57q0 -2 -10.5 -10.5t-10.5 -10.5q-2 -8 -6 -26.5t-7 -38t-5 -38t-2 -26.5q-25 6 -35 -20.5t-15.5 -65.5t-7.5 -76t-8 -51q-2 -4 -20.5 -11t-20.5 -9 q-16 -12 -23.5 -25.5t-10.5 -30t-4 -35t-5 -38.5q-2 -8 -6 -22.5t-7 -28t-6 -23.5t-3 -13q-2 -4 -20.5 -20t-22.5 -20q-4 -8 -7 -20l-2 -13h95v-64h-86q0 -8 -2.5 -28.5t-5.5 -42t-7 -41t-6 -27.5q0 -2 -6 -11t-14.5 -20.5t-14.5 -20.5t-8 -11q-4 -8 -11 -21.5t-13.5 -27 t-12.5 -24.5t-6 -13q-10 -43 -16 -95.5t-6 -99.5zM559 428v41h41v-41h-41z" />
<glyph unicode="0" horiz-adv-x="1327" d="M295 776q35 0 66.5 10.5t48.5 44.5q2 4 8 23.5t12 41.5t12.5 40t10.5 22q2 2 14 9.5t27.5 14.5t28 12t14.5 7q4 4 21 21.5t22 21.5q4 2 23.5 11.5t41 20.5t41 19.5t23.5 12.5q2 4 9 21.5t11 21.5t21.5 11t21.5 9q2 4 5 12.5t3 10.5q-35 0 -76.5 -1t-83.5 -7t-81 -18.5 t-66 -37.5q-12 -12 -32.5 -31.5t-41 -40t-36 -36.5t-17.5 -20.5t-5 -22.5t-6 -39.5t-6 -41t-5 -24.5q0 -4 -10.5 -11t-10.5 -11t-2 -14.5t-3 -22.5t-2 -23.5t-1 -15.5zM303 342h43v127q0 -6 -3 -21.5t-6 -32t-7 -31.5t-6 -22q0 -4 -8.5 -11t-12.5 -9zM303 492h21l3 12 q3 12 6 28.5t7 35t6 30.5v10v10q-2 4 -10 11.5t-12 9.5q0 2 -11 2q-8 0 -10 -2v-147zM344 244q0 -12 12.5 -19.5t28.5 -10.5t31.5 -4t23.5 -1q0 18 -10 27.5t-23.5 15.5t-25.5 15t-14 32q-4 -4 -11.5 -20.5t-9.5 -22.5l-1 -4t-1 -8zM410 129q23 -27 48 -53.5t54 -48 t61.5 -34.5t69.5 -13q12 0 43 2t64.5 5t63.5 7t42 6q4 2 12.5 10t10.5 13q0 2 3 12t6 20.5t6 19.5t5 11t12.5 5t20.5 6t19.5 6t11.5 3q4 4 21 21.5t21.5 22t23 11.5t20.5 11v10v21v20v13q0 2 3 10t6 18t6 20.5t5 14.5q2 2 8 15.5t14.5 27.5t14.5 26.5t6 16.5q2 12 6 44t7 70 t6.5 71.5t3.5 47.5q0 2 -3.5 11.5t-7.5 21t-8 20.5t-4 11q0 6 -3 27.5t-6 47t-6 47t-5 27.5q-4 16 -13.5 46t-19.5 61t-19.5 55.5t-11.5 30.5q-10 14 -26.5 33.5t-36 38t-43 34t-43.5 21.5h-11q-35 0 -58.5 -9t-23.5 -46q0 -6 2.5 -17.5t4.5 -13.5t14 -5t27.5 -6t27.5 -5 t16.5 -4.5t11.5 -20.5t9 -23q4 -2 22.5 -9t20.5 -11t5 -16.5t6 -26.5t6.5 -27.5t3.5 -15.5q2 -2 11 -10t11 -11q6 -12 17.5 -32.5t20.5 -41t17.5 -36.5t8.5 -19q0 -2 1 -17t2 -35.5t1 -41.5v-33v-24t-1 -38.5t-2 -39t-1 -24.5q-23 -6 -29 -37t-8 -70t-5 -75t-22 -54 q-2 -2 -12 -5t-20.5 -6t-19.5 -5t-11 -4q-12 -10 -24.5 -32t-25 -43.5t-25.5 -39t-32 -17.5q-23 0 -29 12.5t-26 12.5q-16 0 -23.5 -7t-14.5 -15.5t-18.5 -15.5t-35.5 -7q-31 0 -60.5 8t-48.5 37h-149z" />
<glyph unicode="1" horiz-adv-x="1327" d="M332 1159q0 -12 14 -31.5t33.5 -38t38 -32t26.5 -13.5q4 0 21.5 10.5t21.5 12.5h21q25 0 48.5 -13.5t40.5 -34t28.5 -45t11.5 -44.5q0 -23 -3 -40.5t-20 -35.5q10 -203 2 -406.5t-45 -402.5q-2 -2 -10 -2h-10q-16 0 -28.5 7t-24 15.5t-21.5 15.5t-22 7q-8 0 -11 -2 q0 -10 -2 -28.5t-9 -36t-19.5 -30.5t-32.5 -11l170 -21q10 39 36.5 42t55.5 3q23 0 36 -4t23.5 -8t21.5 -8t30 -4q25 0 35 10t17 23.5t16 23.5t28 10q16 0 21.5 -4t5.5 -12t2 -21.5t12 -29.5h10h12q8 2 28 9l40 14t37.5 12t21.5 7.5t12.5 10.5t10.5 12q-4 2 -12.5 9 t-10.5 12q0 2 -3 12t-6 20.5t-6 19.5t-5 11q-4 2 -18.5 6t-31 7t-32.5 6.5t-25 3.5q-31 0 -63.5 -23t-67.5 -23t-39 50.5t0.5 116t4.5 128.5t-27 91q-4 4 -31.5 10t-32.5 10q0 2 -1 9t-1 11q0 20 13.5 39t31 36.5t30.5 36t13 40.5v360l-129 130l-10 1t-16 1q-23 0 -38 -7.5 t-30.5 -16.5t-31 -16.5t-33.5 -7.5q-20 0 -32.5 5.5t-24 10.5t-26 10t-40.5 5zM657 236v43h43v-43h-43z" />
<glyph unicode="2" d="M242 119q0 -4 1 -9l1 -4q2 -10 10 -27.5t19.5 -34.5t22.5 -30.5t21 -13.5h13q4 0 22.5 4t40 7t41 6t23.5 3q2 2 10 3h12h13q8 0 8 -3q2 0 10 -10t10 -10t26.5 -1t37.5 -1q14 0 38.5 1t26.5 1t10.5 10t10.5 10q0 2 8 3h12q35 0 61.5 -12.5t67.5 -12.5q6 0 30.5 1t33.5 1 q-2 29 10 37t31 8q25 0 35 -9t21 -19.5t28.5 -19.5t54.5 -9q0 6 -1 23.5t-3 36t-4 35.5t-2 23q0 4 -8.5 12.5t-12.5 8.5h-512q-59 0 -83.5 44t-24.5 93q0 70 37.5 109t81.5 60.5t82 34.5t38 32q0 2 -1 6t-1 6l-20.5 20.5t-22.5 20.5q0 2 -4 2h-6q-16 0 -29.5 -10t-28 -23.5 t-29.5 -24t-32 -10.5q-20 0 -27.5 12.5t-25.5 12.5h-10q0 -6 -2 -18.5t-5.5 -25.5t-7.5 -25.5t-6 -16.5t-20.5 -11t-22.5 -9q-8 -6 -20.5 -16.5t-24.5 -21t-20.5 -18.5t-8.5 -10v-190q-4 -2 -16 -10.5t-16 -12.5l-1 -3t-1 -5zM287 895q4 -4 20.5 -12.5t22.5 -10.5 q-4 25 9 35.5t31.5 15.5t37 7t28.5 8q4 2 11.5 19.5t9.5 21.5t11 12t9 10q2 2 8.5 15.5t12.5 28t12 26.5t10 14q2 2 19.5 3.5t27.5 1.5t34 -1.5t26 -3.5q4 0 11 -10t11 -10t20.5 10t20.5 10q2 2 19 2h26h23q16 0 18 -2q2 0 10.5 -9t10.5 -11t15 -4t28.5 -5t28 -6t14.5 -6 q2 -4 9 -19t13 -33.5t12.5 -34t8.5 -19.5t9 -12t11 -11v-149q-20 -2 -29.5 -7t-13.5 -13.5t-7 -18.5t-13 -25q-29 -39 -70 -59t-80 -47q-4 -2 -21.5 -9t-21.5 -11.5t-8 -26t-4 -27.5q115 0 191.5 47t140.5 133q16 20 38.5 39t26.5 47v15q0 12 1 28.5t1 32.5v29v39 q0 27 -2 56.5t-7 56t-15 40.5q-2 4 -14.5 13.5t-27 20.5t-27.5 19.5t-15 12.5q-6 4 -22.5 20.5l-20.5 20.5h-193q-6 0 -27.5 4t-46 8t-47 7t-28.5 3q-16 0 -59.5 -20t-89.5 -48t-84 -56.5t-44 -45.5q0 -2 -3 -17t-6 -35.5t-6 -42t-5 -34.5v-12v-8zM350 852q4 -10 10 -10 q9 0 11 10q4 10 -11 10q-14 0 -10 -10z" />
<glyph unicode="3" d="M201 -360v-43h149l21 32h192q4 20 32 38t58.5 33t56 28.5t25.5 27.5q0 12 -3 15.5t-6 6.5t-5 11t-2 29q4 0 17.5 8t19.5 4q4 -4 12 -19.5t8 -21.5q4 2 13.5 11.5l19.5 19.5t18.5 19t12.5 14l1 4t1 6q0 12 -3 15t-6.5 7t-5.5 12.5t-2 32.5q18 0 32.5 6.5t25.5 -20.5 q29 23 52 58.5t39.5 77.5t26 84t9.5 79q0 4 -10.5 21.5t-10.5 21.5v27q0 23 1 47t1 45q0 23 -2 29q0 4 -10 25.5t-24.5 48t-29 54t-22.5 44.5q-10 16 -25.5 22t-33.5 6q-16 0 -34.5 -3t-33.5 -5q-23 37 -22 84v86v20v33q0 16 1 31.5t1 21.5q35 41 90 52.5t100 11.5 q-4 55 -7 111.5t-36 103.5q-4 4 -11 12.5t-9 8.5h-512q-59 0 -83 -22t-24 -75v-33q6 4 32 15.5t54.5 23t54 20.5t31.5 9q4 0 11.5 -1t9.5 -1q2 -2 11 -8t19.5 -14.5t19.5 -14.5t13 -6q6 -2 35 -2t60.5 1t60.5 1h37q29 -4 37 -12t8 -29q0 -8 -18.5 -48t-42 -86t-44 -84 t-26.5 -40q-2 0 -12.5 -3t-20.5 -6t-19.5 -6t-11.5 -5.5t-8 -14.5t-13 -27.5t-13.5 -28.5t-8.5 -15.5t-11 -10.5t-9 -10q-2 -2 -2 -10v-13q0 -25 17 -42t26 -41h149q2 -4 10.5 -12.5t12.5 -10.5q2 0 15 -3t27.5 -6t27 -6t14.5 -5q2 -4 9 -19.5t13 -34t12.5 -34t8.5 -19.5 t20.5 -11t22.5 -9q10 -10 27.5 -40t17.5 -46q0 -23 -17.5 -53.5t-43 -59.5t-56.5 -51.5t-55 -28.5q-8 -2 -29.5 -5t-45.5 -6t-45.5 -6t-29.5 -3l-22 -43h172q8 27 22.5 20.5t30.5 -6.5q0 -2 6 -6t4 -8q-4 -4 -22.5 -10.5t-20.5 -10.5q-4 -4 -7 -16.5t-6 -25.5t-5 -25.5 t-2 -18.5q-63 -16 -123 -44t-113 -62q-6 -4 -22.5 -12.5t-20.5 -8.5q-20 -4 -38.5 -3t-37.5 1q-18 0 -36.5 -3t-36.5 -17q-14 -10 -36 -31t-42.5 -41.5t-34.5 -36.5t-14 -18zM477 -63h64v65zM883 23v43h43v-43h-43zM1010 1450q4 -6 20.5 -22.5t22.5 -20.5h10q16 0 26.5 13.5 t10.5 29.5h-90zM1085 852q0 -8 3.5 -15.5t7.5 -5.5q10 6 10 23q0 16 -10 20q-4 2 -7.5 -5t-3.5 -17zM1116 768h23l-23 43v-43z" />
<glyph unicode="4" horiz-adv-x="1327" d="M233 1493q2 -6 8.5 -18.5t12.5 -25.5t12 -25.5t10 -16.5q2 -2 11.5 -10t9.5 -11q2 -8 6 -29.5t7 -45t6 -45t3 -29.5h95q0 14 -8.5 20.5t-19.5 10.5t-19.5 9t-8.5 21q0 14 4.5 26.5t20.5 18.5q-14 35 -46 88.5t-61 81.5l-4 1q-4 2 -6 2t-6 -1.5t-6 -1.5q-4 -2 -11.5 -9 t-9.5 -11zM254 336q23 0 32 14.5t33 14.5q12 0 24.5 -3.5t16.5 -19.5h150q6 16 18.5 19.5t26.5 3.5q16 0 27.5 -5.5t13.5 -29.5h192q0 -12 3.5 -41t6.5 -60.5t6 -60.5t5 -41q4 -16 11 -48t9 -36q8 -10 32 -26.5t34 -16.5q4 0 20.5 16.5t22.5 26.5v20q0 23 -12.5 32t-12.5 32 t12.5 30t12.5 23v13q0 2 -4 15t-7 26.5t-7.5 25.5t-4.5 16q0 2 -1 11.5t-1 13.5q0 14 8.5 21.5t19.5 13.5t22.5 13t15.5 24h176l-1 12t-3 21q-12 39 -42 50t-63.5 16t-64.5 14.5t-43 45.5q-2 6 -6 23.5t-7 38t-6.5 39t-3.5 29.5q0 20 -1 75.5t-1 114.5q0 61 1 115.5t1 76.5 q4 18 -6 29.5t-26.5 18t-32.5 8.5t-25 2q0 -16 4.5 -25.5t10.5 -16.5t10 -15.5t4 -22.5q0 -23 -8 -36t-37 -28q29 -12 37 -25t8 -36q0 -14 -4 -22.5t-8 -15.5t-8.5 -15t-4.5 -23q0 -14 1 -31.5t22 -21.5v-172q-4 -2 -11 -9l-12 -12q-2 -4 -7 -16t-12 -27.5t-13 -27.5t-9 -15 q-2 0 -14 -3t-29.5 -6l-35 -6t-27.5 -5h-20h-23q-10 0 -34.5 3t-51.5 7t-51.5 7t-32.5 3q-33 14 -39 32t-6 42q0 14 1 32.5t21 22.5v512l-20 64q-31 -18 -48.5 -51t-17.5 -68q0 -12 7.5 -16t16.5 -7t16.5 -8.5t7.5 -19.5q0 -4 -1 -12t-4 -11q0 -2 -7 -8t-14 -13t-14.5 -13 t-7.5 -9v-16v-27v-26v-15q0 -4 -10 -11t-10 -11t10 -20.5t10 -20.5q2 -2 2 -10v-13q0 -29 -9 -64.5t-21.5 -74.5t-22.5 -80t-12 -80l-43 -20v-133z" />
<glyph unicode="5" horiz-adv-x="1327" d="M315 748q0 -39 1 -76t1 -66v-31q0 -4 3.5 -23.5t7.5 -41t7 -39.5t3 -25q2 -2 2 -10q0 -6 -2 -10q6 2 18.5 7t25.5 12.5t25.5 13.5t16.5 10q4 2 16.5 14.5t26.5 27.5t26.5 27.5t16.5 14.5q2 2 14.5 8t26.5 13.5t26.5 13.5t16.5 8t12 10t10 12h150q-2 -8 6 -23t14 -20 q4 -2 19.5 -5t34 -6t34 -6t19.5 -5t11 -19.5t9 -21.5t11.5 -12t11.5 -11q4 -6 12 -22t8 -21q2 -4 5.5 -23.5t6.5 -41t6 -39.5t5 -23q2 -8 5 -22t6 -28.5t6 -24.5l3 -11q2 -2 11.5 -5t19.5 -6t20.5 -6t12.5 -3q4 -2 12 -9t10 -11q0 6 1 30.5t1 32.5q0 2 1.5 17.5t-1 30.5 t-9.5 27.5t-25 8.5v192q-31 -2 -48.5 15.5t-30.5 42t-26.5 50.5t-34.5 42q-39 29 -91 36t-99 7q-57 0 -102.5 -5t-110.5 -18q-6 -4 -22.5 -20t-20.5 -23q-4 -2 -11 -20t-12 -21q-4 -4 -17 4.5t-17 8.5q0 18 2 25.5t5 13.5l6 12t3 20q0 18 -7 32t-16.5 25t-16.5 23.5t-7 26.5 q0 31 20.5 51.5t24.5 54.5v15v28v27v16q2 8 9 33t11 31q14 0 51 -1t78 -1t77 1t50 1q6 0 31 9t35 13q2 0 10 10.5t10 10.5l8 1q9 1 13 1q18 0 28.5 -7t19.5 -15.5t22.5 -15.5t35.5 -7q12 0 36 9t46.5 22.5t39 30t16.5 32.5q-4 0 -18.5 -1t-30 -2t-28.5 -3t-18 -2 q-2 -2 -10 -11.5t-10 -11.5q-2 0 -10 -1t-13 -1q-18 0 -29.5 10.5t-22.5 24t-23.5 23.5t-30.5 10q-12 0 -17.5 -10t-10.5 -23.5t-11 -24t-23 -10.5q-10 0 -34.5 10.5t-50 24t-48 23.5t-28.5 10h-11q-2 -2 -10 -11t-12 -12q-12 -4 -46 -7t-69 -7t-64.5 -10t-33.5 -19 q-4 -10 -11.5 -41.5t-9.5 -42.5v-47q0 -33 -1 -70.5t-1 -72.5v-45v-61zM358 -309q0 -37 30 -46.5t54 -9.5q10 0 26.5 1.5t18.5 1.5q4 0 11.5 10t11.5 10q37 14 77 24.5t79 23.5t75.5 31.5t65.5 49.5q4 2 11 20.5t11 22.5q2 2 20.5 10t22.5 10q25 18 39.5 34t25.5 32 t20.5 35.5t21.5 48.5q0 2 3 11t6 20.5t6 20.5t5 11q2 4 20.5 21.5t22.5 21.5l1 10q1 9 1 13q0 14 -7 21.5t-17 13.5t-21.5 11t-19.5 18l-33 -23v-170q-6 0 -19.5 -2t-28.5 -6t-28.5 -8t-19.5 -7q-4 -2 -11.5 -19t-9.5 -21.5t-11 -12.5t-11 -10t-7 -12.5t-12.5 -20.5 t-13.5 -19t-8 -11.5t-12.5 -1.5t-20.5 1t-20.5 1.5t-12.5 -1t-8 -11.5t-12 -20.5t-13.5 -21.5t-9.5 -10q-4 -2 -22.5 -5t-40 -6t-40.5 -6t-23.5 -5.5t-21.5 -20.5t-22 -20q-6 -4 -24.5 -7.5t-39 -7.5t-38.5 -6t-25 -2q0 -2 -1 -5t-1 -5z" />
<glyph unicode="6" d="M260 437.5q-2 -58.5 1 -118t17.5 -113.5t49.5 -97q4 -4 21.5 -11.5t21.5 -11.5q4 -2 19.5 -14.5t32.5 -27.5t33.5 -27.5t20.5 -14.5t23.5 -5t41 -6t41 -6t23.5 -5q2 0 10.5 -10.5t10.5 -10.5t17 -1t26 -1q8 0 24.5 1t18.5 1t10 10.5t10 10.5q6 4 35 16t61.5 26.5 t61.5 26.5t35 17q45 29 74.5 70.5t48 90.5t30 101.5t17.5 99.5q-4 -4 -20.5 -12t-22.5 -8q-4 -2 -14.5 1t-14.5 3q0 4 -9 18t-5 18.5t22.5 11.5t20.5 11q2 0 3 12.5t1 18.5q0 47 -19.5 83t-48.5 79h-10q-12 0 -15 -2.5t-6.5 -5.5t-11.5 -5t-28 -2q0 4 -9.5 17.5t-5.5 17.5 t20.5 13.5t22.5 7.5q-23 35 -81 53t-118.5 29.5t-109.5 20.5t-53 26q-2 -8 -18.5 -23.5t-24.5 -19.5q-6 -2 -27.5 -5.5t-46.5 -6.5t-47.5 -6t-28.5 -3q-2 -2 -10 -11t-10 -11q-4 -2 -17.5 3t-17.5 5q0 25 3 34t6 14t6 11t3 25q-20 0 -35.5 -11.5t-27.5 -29t-18.5 -37 t-8.5 -35.5v-37q0 -25 -1 -54.5t-1 -55.5v-35q0 -49 -2 -107.5zM276 866q27 0 45.5 27t28.5 47q2 6 14.5 35t27 61.5t26.5 61t16 35.5q4 4 22.5 20t20.5 21q2 2 5 15t6.5 27.5t6.5 26.5t5 17q18 33 62 57t90 44.5t83 39t41 41.5h223q0 18 -4 24.5t-11 9.5t-16.5 5t-21.5 14 q-10 10 -15 21.5t-11.5 20.5t-17 15.5t-30.5 6.5q-57 0 -117.5 -20.5t-115.5 -54.5t-102.5 -76t-79.5 -85q-2 -2 -5 -11l-6.5 -19.5t-6.5 -20.5t-5 -12q0 -2 -9 -10.5t-11 -10.5l-43 -86q-2 -2 -11.5 -10t-9.5 -10q-4 -6 -12 -22.5t-10 -20.5q0 -4 -3 -19.5t-7.5 -34 t-7.5 -34t-3 -19.5q-2 -4 -11 -11t-11 -11q0 -4 -2 -17.5t-3 -29t-2.5 -29t-1.5 -19.5zM369 379v29v20t1 31.5t1 32.5v22q6 10 26.5 39t44 58.5t45 52t31.5 22.5q23 0 30 -12t25 -12h7q4 0 4 2q4 2 12 9t10 11h170q2 -18 24.5 -40.5t50.5 -46.5t55.5 -45.5t39.5 -37.5 q2 -10 5 -37.5t6.5 -58.5t6.5 -58.5t5 -37.5v-25v-18q-4 -4 -22.5 -10.5t-20.5 -10.5t-8.5 -16.5t-13.5 -27.5t-13 -27.5t-8 -14.5q-4 -4 -32 -11t-32 -9q-6 -4 -22.5 -20.5t-20.5 -22.5h-235q-25 0 -33 8t-11 21.5t-5.5 28.5t-14.5 28q-2 2 -14 8t-27.5 12t-29 12t-15.5 9 q-4 4 -11 29.5t-9 35.5v14t-1 29.5t-1 34.5z" />
<glyph unicode="7" horiz-adv-x="1327" d="M248 1047q57 -16 109.5 -27.5t103.5 -36.5l4 -1t6 -1q20 0 35.5 14.5t29 30.5t25.5 30.5t29 14.5q4 0 12 -1t8 -3q4 -2 11.5 -20.5t11.5 -20.5q18 -12 36.5 -13t33 -4t23.5 -12.5t13 -35.5q0 -8 1 -30t1 -46q0 -23 -1 -44.5t-1 -29.5q20 29 29.5 75t13.5 75v-170 q-18 -12 -30.5 -35t-21.5 -48.5t-17 -49t-17 -37.5q-10 -18 -20 -26.5t-18.5 -15t-15.5 -15.5t-9 -29v-17v-26v-29v-14q-2 -6 -7 -18.5t-12.5 -26t-14.5 -25.5t-9 -17q16 -4 19 -16t3 -24q0 -29 -19.5 -51.5t-25.5 -55.5q-10 -55 -15 -95t-6 -77t-1 -76v-94v-35t1 -51.5 t1 -50.5v-35q4 -20 22.5 -21.5t32.5 -1.5q25 0 36 5.5t15 40.5q2 10 5.5 44.5t6.5 75.5t6 79t3 57q0 10 1 37.5t1 58.5t-1 58.5t-1 37.5q12 2 18 22.5t9.5 48t5.5 55.5t10 44q2 2 11 10t11 10q18 27 26.5 60t11.5 66.5t3 66.5q0 35 2 66q23 -4 34 9t15.5 31.5t6.5 37t8 28.5 q2 2 11 11.5t20.5 19.5t20.5 19t11 13.5t8.5 19.5t13.5 33.5t13 34t8 19.5l11.5 11.5l20.5 20.5t20.5 19t11.5 13q0 2 3 17t6 35.5t7 42t6 34.5v12q0 16 -26.5 25.5t-38.5 25.5h-619zM418 1473h129v43h-107zM717 1473q6 0 18.5 -3.5t25.5 -6.5t25.5 -6t16.5 -5q2 -2 10 -11 t10 -9q6 -4 27 -12.5t27 -10.5v-170h32q8 39 26.5 66.5t37 49t33 41t14.5 44.5q0 6 -1 19.5t-3 13.5q-4 10 -20.5 26.5t-22.5 16.5h-256v-43z" />
<glyph unicode="8" d="M227 258l21 -22v22h-21zM270 215q2 -25 11.5 -54.5t25 -55t38 -44t52.5 -18.5h25q16 0 30.5 3t24.5 10t10 20q0 2 -2 6l-2 4q-6 0 -22.5 6t-32.5 12.5t-30.5 13.5t-20.5 11q-4 2 -12.5 15.5t-19.5 27.5t-20.5 27.5t-11.5 15.5q-2 0 -10 2t-12 2q-2 0 -10.5 -2t-10.5 -2z M270 301h43v21h-43v-21zM270 408h107q2 20 7 29t13.5 13.5t18.5 7.5t24 13q35 27 53.5 44t36 26.5t42 12.5t71.5 3h37t37 -2q12 -23 39.5 -36t59.5 -23.5t63.5 -21.5t52.5 -25q2 -2 9 -20.5t11 -20.5q4 -4 23.5 -9.5t23.5 -5.5q0 12 -8 32.5t-18 43.5t-21.5 41t-19.5 25 q-25 18 -61.5 33.5t-70.5 32.5t-58.5 42t-24.5 62v22q20 14 44.5 34.5t44 45t31 52.5t9.5 59h127q4 0 11 24.5t11 40.5q2 12 5.5 42t6.5 63.5t6 64.5t3 43q23 10 24.5 26.5t1.5 39.5q-41 0 -57 -17.5t-25.5 -39t-21.5 -39t-47 -17.5q-33 0 -43 7t-12 16.5t-4.5 17.5t-18.5 8 q-12 0 -16 -8t-7.5 -17.5t-9.5 -16.5t-20 -7q-18 0 -31.5 9t-11.5 38h-148q2 -29 -11 -37t-30 -8q-23 0 -29.5 12.5t-25.5 12.5q-4 0 -15.5 -6.5t-24.5 -14.5t-23.5 -15t-12.5 -7q-6 -4 -15 -14.5t-19.5 -21t-18.5 -19.5t-10 -11t-5 -14.5t-6.5 -26.5t-6.5 -27.5t-3 -15.5 q-2 -4 -11 -11t-11 -11l-1 -13q-1 -12 -1 -20q0 -35 9 -58.5t36 -58.5q2 0 5 -1t5 -1q4 0 7 1l3 1q4 6 12.5 30.5t10.5 35.5q0 2 -1 15t-1 26v26t2 17q0 2 8 10t18.5 19t20.5 20.5t16 15.5q12 10 39 27.5t55.5 35t55 31t41.5 13.5h22q4 -2 21.5 -11.5t21.5 -11.5 q10 -2 38 -5t58.5 -6t58.5 -6t38 -3q2 -6 5 -27t3 -27q0 -10 -3 -30.5t-5 -22.5q-2 -4 -14.5 -6t-28 -5t-28.5 -6t-15 -5q-12 -8 -24.5 -29t-24 -45.5t-21.5 -46t-16 -29.5q-2 -2 -20.5 -9t-20.5 -11q-18 -18 -26.5 -34t-17.5 -28t-24.5 -19.5t-46.5 -7.5q-25 0 -44 7.5 t-37.5 16.5t-39 16.5t-45.5 7.5q0 -23 7.5 -44.5t16.5 -41t16 -36t7 -30.5t-23.5 -36.5t-54 -48.5t-58 -53.5t-36.5 -51.5zM498 45q0 -35 22.5 -60.5t59.5 -25.5q12 0 27.5 8t28.5 20.5t22.5 28t9.5 29.5h-170zM696 66q18 -29 50 -46.5t67 -17.5h10q2 0 18.5 5t35 11.5 t35 13.5t20.5 13q0 2 3 11.5t6 19.5l6 20t5 13q2 4 20.5 11t22.5 9q2 4 5.5 15.5t3.5 15.5q-29 0 -71 -9.5t-86 -23.5t-85 -30.5t-66 -30.5zM993 258q0 -4 1 -11t1 -11q4 8 11.5 32.5t9.5 32.5v10v11q-16 -18 -19.5 -30.5t-3.5 -33.5z" />
<glyph unicode="9" d="M227 805q35 0 57.5 9t51.5 38v10q0 18 -12.5 26.5t-12.5 31.5q0 4 1 11l1 7q2 2 15.5 8t28 12.5t27.5 12.5t15 10q6 6 7 31q0 25 -7 32q29 4 61 15.5t62.5 23t60 19.5t52.5 8q8 0 23.5 -1t17.5 -1q8 -2 26.5 -10t39 -18.5t39 -20.5t24.5 -15q0 4 3 16.5t7 26t7 25.5t3 18 v11v10q-45 27 -91 46.5t-99 19.5q-408 0 -408 -412zM242 711q0 -18 8 -25.5t18.5 -11.5t18.5 -10.5t8 -22.5q0 -14 -3 -26.5t-22 -18.5q18 -43 49 -73.5t68 -52t79 -37t83 -27.5h8h12q4 0 23.5 4t41 7t40 6t24.5 3h15h26h27h16q4 2 21.5 21.5t21.5 21.5l9 1q8 1 12 1 q6 0 16 -1t21.5 -3t19.5 -7t8 -11v-173q-29 -18 -39 -50.5t-10 -63.5q4 0 14.5 3t12.5 5q4 4 11 22.5t11 20.5q2 4 20.5 11t20.5 12q16 20 17 49v55q0 29 8 52.5t41 33.5v139q0 76 -1 134.5t-22 131.5l-10 30t-13 35t-12.5 29.5t-7.5 12.5h-67q0 -31 26 -43v-170 q-35 -23 -47 -70t-18 -80q-10 -2 -38 -8t-57.5 -12t-57 -13t-38.5 -10q-2 0 -11 -4t-20.5 -7t-21.5 -6t-12 -3l-14 -1q-13 -1 -19 -1t-17.5 1t-13.5 1t-10 10t-10 10q-4 2 -16.5 5.5t-26.5 6.5t-27.5 6t-15.5 5q-4 2 -11.5 20.5t-9.5 20.5q-4 4 -22.5 11t-20.5 11 q-2 2 -5 14.5t-7 28t-12 27.5t-19 14q-4 2 -14 3.5t-21.5 2.5t-22.5 2t-13 1zM313 -276v-11q0 -29 22.5 -32t41.5 -3q8 0 24.5 1.5t18.5 1.5q4 0 21.5 10t21.5 10q10 2 37.5 9t58.5 14.5t58.5 12.5t37.5 7q4 2 11.5 10t9.5 13q2 2 5 12t6 20.5t6 19.5t5 11t14.5 4t27 5 t26.5 6t16 5.5t24.5 36t44 73.5t42 75t18.5 41v10q-4 2 -28.5 9t-36.5 11l-4 2q-4 1 -8 1q-2 0 -6 -1l-3 -2q-4 -4 -11 -21t-9 -22q-8 -12 -24.5 -35.5t-18.5 -27.5q-4 -4 -21.5 -11t-21.5 -9l-1 -4q-1 -5 -1 -7q0 -18 12 -25t12 -30v-8q0 -8 -2 -12q-4 0 -16 -2.5 t-26.5 -5.5t-26 -7t-15.5 -6q-4 -4 -11 -22.5t-11 -20.5q-2 -4 -20.5 -11t-22.5 -12q-2 -2 -10.5 -9t-10.5 -11l-233 -43q-4 0 -11.5 -8t-11.5 -12zM889 1024h63l-63 63v-63z" />
<glyph unicode=":" d="M541 276q2 -10 5 -28.5t6 -34.5t6 -29l3 -14q2 -4 21.5 -11t21.5 -12q4 -2 11.5 -21.5t11.5 -21.5l13 -3t29.5 -6t35 -6t28.5 -5h12q16 0 29.5 19.5t24 46t15.5 53t5 41.5q0 27 -5 55.5t-17.5 52t-33 39t-48.5 15.5q-37 0 -63.5 -3.5t-46 -14.5t-35 -32.5t-29.5 -58.5v-8 v-13zM541 831q4 -10 10 -27.5t13 -34.5t12.5 -29.5t7.5 -14.5q2 -4 14 -10t27.5 -13.5t28 -12.5t16.5 -7t11 -9t9 -11q4 33 22.5 45t38 22t35 31.5t15.5 73.5q0 41 -11.5 65.5t-32 38.5t-49 23.5t-61.5 19.5q-4 2 -21.5 11t-21.5 9t-11 -8t-9 -12t-8.5 -21.5t-12.5 -38 t-13 -40t-9 -29.5v-10v-11z" />
<glyph unicode=";" horiz-adv-x="1327" d="M563 827q0 -20 14.5 -35.5t35 -28.5t43 -22.5t36.5 -17.5h10h13q2 2 10 11t10 11.5t15.5 7.5t29 12t27.5 13t14 10l2 24t2 36q0 25 -4 48.5t-15 41.5t-29.5 30.5t-47.5 12.5q-78 0 -122 -35t-44 -119zM565 289q0 -31 13.5 -52.5t30 -41t29.5 -40t13 -46.5v-23 q-2 -6 -8 -24.5t-12 -39t-13.5 -39t-9.5 -24.5q2 -14 15.5 -19.5t30 -6.5t29.5 0t15 1q41 0 64.5 11.5t37 32t21.5 48t21 60.5q0 2 6 15.5t14 27.5t14.5 26.5t8.5 16.5v8q0 49 -6.5 91t-24.5 73t-52 48.5t-87 17.5q-8 0 -33 -2t-31 -2q-4 -25 -17 -36.5t-28.5 -20.5 t-28 -21.5t-12.5 -38.5z" />
<glyph unicode="&#x3c;" d="M338 539q0 -4 1 -15l1 -12q2 -4 11 -10t20.5 -13.5t20.5 -12.5t11 -7q4 -4 11.5 -21.5t11.5 -21.5t20.5 -12t20.5 -8q12 -14 45 -48t71 -72t71.5 -71t47.5 -45q2 -2 14.5 -8t28 -13.5t27.5 -13.5l16 -8q2 -2 9.5 -20.5t11.5 -22.5q2 0 12 -3t23.5 -6t28 -6t22.5 -6l9 -1 t14 -1q12 0 26 8.5t27.5 21.5t21.5 28.5t8 30.5q0 2 -10 10t-12 10q-29 39 -46.5 56.5t-32.5 27.5t-34.5 22.5t-56.5 42.5l-64 64q-18 14 -58 33.5t-80 42t-69.5 47t-29.5 49.5q0 37 31.5 72t80 69.5t103.5 69.5t103 70.5t80 74.5t32 80q0 37 -14.5 45t-49.5 8 q-31 0 -70.5 -14t-79.5 -35.5t-75 -48t-53 -51.5q-4 -4 -11 -21.5t-11.5 -21.5t-19.5 -19.5t-33.5 -33t-34 -33.5t-19.5 -21q-2 -4 -7 -16t-12.5 -26.5t-13.5 -27.5t-8 -16q-18 -20 -33.5 -30.5t-28 -19.5t-19.5 -24.5t-7 -45.5z" />
<glyph unicode="=" horiz-adv-x="1327" d="M303 303q0 -27 6 -50.5t41 -35.5q18 -2 63.5 -5t96.5 -6t96 -6t64 -3h20t42 -1t46 -1h37h33q23 0 44 1t36 1h18q16 0 46 6t58.5 17t49 27.5t20.5 41.5q0 35 -13 64.5t-54 35.5h-56q-39 0 -83 1t-85 1h-53q-59 0 -112.5 1t-104.5 -1t-102 -7t-107 -17q-10 -2 -25.5 -9.5 t-17.5 -11.5q-2 -2 -3 -17.5t-1 -25.5zM305 664q0 -29 5 -50.5t40 -33.5q18 -2 67.5 -5.5t102.5 -6.5t102.5 -6t67.5 -3h19q18 0 39.5 -1t42.5 -1h34q27 0 77 1t98.5 10.5t84 31t35.5 62.5t-13 58t-54 32q-16 2 -55.5 6t-83.5 7t-83.5 5t-54.5 2q-10 0 -52 -2t-93 -5 t-100.5 -7t-73.5 -6q-10 0 -28.5 -3.5t-39 -7.5t-38 -7t-23.5 -5q-4 -2 -12.5 -9t-8.5 -11q0 -2 -1 -19.5t-1 -25.5zM385 666h72v-72q-72 0 -72 72zM393 240v63h64v-63h-64zM946 623v43h66v-43h-66z" />
<glyph unicode="&#x3e;" horiz-adv-x="1323" d="M332 137q0 -2 1 -6l1 -4q2 -4 11 -13.5t19.5 -19.5t19.5 -19t13 -12h11q29 0 70.5 18.5t83.5 44.5t79 55.5t55 51.5q2 4 10.5 21.5t10.5 21.5q6 8 24.5 27t39 39t39 38.5t26.5 25.5q16 14 41.5 28.5t49.5 31.5t41 37.5t17 49.5q0 4 -9 20.5t-13 22.5l-16.5 16.5t-27 26.5 t-26.5 26.5t-14 16.5q-2 2 -8.5 14.5t-13.5 27.5t-13 27.5t-8 14.5q-6 8 -29.5 31.5t-50.5 51.5t-52.5 52.5t-37.5 36.5q-4 2 -22.5 10t-20.5 10q-4 2 -13.5 12.5t-19.5 20.5t-20.5 19.5t-12.5 11.5q-23 14 -56.5 18t-61.5 4q-25 0 -49.5 -11t-24.5 -42q0 -41 31.5 -77.5 t80 -72.5t103.5 -71t103 -70.5t80 -71.5t32 -75q0 -25 -9.5 -35t-35.5 -29q-6 -4 -30.5 -19t-54.5 -32.5t-54.5 -34t-30.5 -20.5t-24.5 -19.5t-40 -34t-40 -33.5t-24.5 -20q-2 -2 -11.5 -5t-19.5 -6t-20.5 -5t-12.5 -4t-10 -15.5t-18.5 -30.5t-20.5 -34.5t-14 -25.5 q0 -2 -1 -6.5t-1 -6.5z" />
<glyph unicode="?" horiz-adv-x="1132" d="M350 1059q29 0 42.5 8t20.5 21.5t16 30t28 32.5q4 4 19.5 14.5t31.5 20.5t32.5 18t22.5 13h21h22q4 -2 21.5 -11.5t21.5 -11.5q2 0 15.5 -3t28 -6t26.5 -6t16 -5q6 -6 13.5 -35t11.5 -64t7 -65.5t3 -42.5q-25 0 -33 2t-12 5t-7 5t-16 2q-57 0 -83.5 -25.5t-38 -64.5 t-12.5 -83t-5 -83q0 -4 -3 -16.5t-7 -26.5t-7 -27.5t-3 -15.5t-1 -22.5t-1 -30.5q0 -47 12 -91t12 -92q0 -20 -7 -37.5t-15 -33t-15.5 -32t-7.5 -34.5t3 -41.5t11.5 -46t22.5 -38t37 -15.5q14 0 32.5 1t22.5 21q2 8 6 30t7.5 45.5t5.5 45t2 29.5q-37 10 -41 37.5t-4 56.5 q0 4 -1 16.5t1 24.5t7 23.5t17 13.5q0 14 3 51t6.5 77t6.5 77t5 51q8 49 41.5 82t72.5 66.5t70 74.5t31 107q0 29 -3 71.5t-20 67.5q-2 4 -15 18.5t-30.5 31t-35 32.5t-25.5 24q-4 4 -20.5 12.5t-22.5 10.5h-23q-16 0 -35.5 1t-36.5 1h-22h-64q-25 0 -47 -4t-43.5 -13.5 t-48.5 -27.5q-4 -4 -21.5 -11t-21.5 -12v-198zM586 233v43h41v-43h-41z" />
<glyph unicode="A" d="M63 43h21v23zM127 23l63 -43q2 0 14.5 -1.5t28.5 -1.5q18 0 35 -1t27 -1q14 0 37.5 1t48.5 1t43 1.5t22 1.5q10 0 28 3t34 6t29.5 6t15.5 5t6 14.5t7 27.5t5 27.5t4 16.5q0 2 10.5 10t10.5 10q4 8 5 20l1 13h-147l-7 21q-6 20 -2 33q2 4 11.5 11t11.5 11q4 4 11 20.5 t9 20.5q12 2 43 5t65 6t63.5 6t41.5 6q4 0 18.5 -1.5t18.5 -1.5q0 -6 1 -24.5t3 -37.5t2 -38v-26q-4 -31 -10 -45.5t-16 -24.5t-25.5 -21.5t-34.5 -35.5v-11v-12q27 -8 49.5 -13t43 -7.5t41.5 -2.5h47q90 -1 177 15q57 10 116 11q30 0 61 -3q0 10 7 28.5t15.5 37t14.5 34 t6 19.5v10q-2 2 -12.5 5t-20.5 6t-20 6.5t-13 3.5q-12 6 -33.5 16t-42 20.5t-36 18.5t-15.5 10q-4 2 -10 21.5t-13 41t-12 41t-7.5 23.5t-7.5 16.5t-12 25.5t-14 25.5t-10 18.5q0 2 -10 10t-10 11q-2 4 -5 19t-6 33.5t-6 34t-6 19.5q0 4 -8 20.5t-12 22.5q-2 2 -11.5 10 t-9.5 10q-2 6 -4 21.5t-3 33t-2 32t-1 20.5h-33q-2 -6 -8 -21.5t-12 -32t-13 -31.5t-10 -22q-2 -2 -11 -10t-9 -10q-4 -23 -3 -41t2 -35.5t-3 -35t-19 -37.5q-2 -4 -20 -11.5t-23 -9.5q-14 -14 -16 -23.5t-3 -14.5t-4 -7t-20 -2q-4 0 -11 1t-9 3q-4 2 -10 21.5t-11 21.5 q-6 2 -19 6t-28.5 7t-29 5.5t-19.5 2.5v227q-39 0 -62.5 -26.5t-37.5 -62.5t-22.5 -75t-16.5 -63q0 -2 -10.5 -10.5t-10.5 -10.5q-2 -6 -5 -27.5t-6 -47t-6 -47t-5 -27.5q-10 -33 -27.5 -51.5t-39 -32t-44 -27.5t-39.5 -39q-2 -4 -8 -16.5t-12 -26.5t-12 -27.5t-8 -15.5 q-4 -4 -11.5 -11t-11.5 -9zM489 811h23v20h-23v-20zM524 897h29v127q-4 0 -12.5 -8t-8.5 -12q0 -6 -2 -21.5t-3 -33t-2 -32t-1 -20.5zM549 1147q0 -10 5 -24.5t12 -30t15.5 -28.5t14.5 -17q2 -2 12 -5.5t20.5 -6.5t19.5 -6t11 -5q2 0 10.5 -24.5t12.5 -38.5q0 -4 3 -16.5 t6 -27t6 -27.5t5 -16q4 -4 22.5 -10t20.5 -10q2 -6 6.5 -21.5t8.5 -32t6 -31.5t2 -21q0 -2 4 -3.5t6 -1.5t6 1t4 4q0 2 3.5 10t7.5 18t7 19.5t3 15.5l1 4q1 4 1 6t-1 6l-1 4q-2 10 -9 36t-12 30q-2 2 -11 10t-9 11q-2 2 -5 15t-6 27.5t-6 26.5t-5.5 16.5t-20.5 10.5t-23 10 q-2 4 -9 21.5t-11 21.5t-21.5 11t-21.5 9q-4 4 -10 22.5t-11 20.5q-8 4 -34.5 10.5t-34.5 6.5zM809 150v106h43v-106h-43z" />
<glyph unicode="B" d="M125 53q0 -12 9 -18t21.5 -12.5t22.5 -15.5t12 -27q40 2 81 2q66 0 133 -4q108 -6 212 -21v-127q0 -4 -16 -11t-27 -9q-8 -2 -28.5 -6.5t-44 -7.5t-45 -6t-29.5 -3v-43q12 -2 42 -5t63.5 -6t64.5 -6t43 -3q4 0 36 -1.5t48 -1.5h106q55 0 107.5 8.5t100.5 26t91 54.5 q29 25 48.5 38t19.5 46q0 4 -1 11t-3 11q-14 -6 -38 -23.5t-48.5 -36t-48 -32.5t-35.5 -14h-293l-49 170q47 2 99 7t101.5 21.5t92.5 45t69 75.5q2 2 5.5 14.5t6.5 27.5t6 27.5t5 14.5q4 4 15.5 9t24.5 8t25.5 5.5t18.5 0.5l-21 213l-43 -64q-6 37 -20 68.5t-28.5 62.5 t-26 63.5t-11.5 71.5q0 23 1 42.5t9.5 34.5t24 23.5t43.5 8.5q0 18 -18.5 34.5t-36.5 16.5q3 26 3 49q-1 45 -13 77q-20 48 -54 107q-2 2 -8 15.5t-12 29t-13 27.5t-10 14q-4 2 -19 5.5t-33.5 6.5t-34 6t-19.5 3q-8 2 -22.5 5t-28 6t-23.5 6t-12 3q-2 2 -10 11.5t-11 11.5 h-10h-12q-2 -2 -10 -11t-11 -12q-6 -2 -24.5 -5t-39 -6t-38.5 -6t-25 -3h-45h-73h-74h-43q-12 0 -29.5 -3l-35 -6t-30 -6t-12.5 -6v-75h193q2 0 5 -13.5t6 -32t6 -39t3 -32.5q0 -4 1.5 -34t1.5 -70v-80v-66v-135t-1.5 -124.5t-6.5 -125t-15 -133.5q-33 -27 -64.5 -31 t-63.5 -6t-63.5 -14.5t-64.5 -55.5l-1 -4t-1 -6zM508 788q0 14 4 23.5t9 17t9.5 17.5t3.5 28q0 18 -4 28.5t-9 18t-9 16.5t-4 24q0 18 9 25t20.5 13.5t21.5 14.5t14 30q10 0 38 2.5t38 2.5q27 0 71 -10.5t88 -28t81 -42t47 -50.5q6 -14 10 -38t6 -40.5t2 -18.5h-166l84 -33 l1 -3q1 -3 1 -5q0 -31 -15 -47t-38.5 -22t-50.5 -7.5t-49 -1.5q-6 0 -15.5 -1t-18.5 1.5t-17 7.5t-11 15q6 0 22.5 8t20.5 12q4 6 -4 9.5t-8 7.5q-4 0 -11 5t-15.5 11t-15.5 10.5t-9 -0.5q-2 -2 -5 -14t-6 -27.5t-6.5 -27.5t-5.5 -14q0 -2 -11 -4.5t-17 -2.5 q-14 0 -28.5 9.5t-26 22.5t-18.5 28.5t-7 29.5zM510 319v213h319q4 -6 20.5 -21t22.5 -19q2 -2 12.5 -5.5t22 -6.5t20.5 -6t9 -5q4 -6 8 -20.5t7 -32t5 -32.5t2 -22h-256q-2 6 -10 22.5t-12 21.5q-2 2 -9 -3.5t-12 -5.5v-108h299q-6 -16 -20 -30.5t-30.5 -27t-32 -22.5 t-23.5 -16q-20 -16 -35.5 -25.5t-31 -13.5t-34 -5.5t-49.5 -1.5q-4 0 -22 -1t-38.5 0t-40 6.5t-28.5 17.5q-2 4 -8 23.5t-13 41t-12 41t-7.5 23.5t-10.5 11t-12 9zM1192 129q0 -8 3 -29.5t7 -45t7 -45t5 -29.5q0 8 2 36.5t1 36.5q0 27 -1.5 60.5t-23.5 56.5v-20v-21z" />
<glyph unicode="C" horiz-adv-x="1331" d="M272 600q0 -35 1 -61.5t3.5 -52t7.5 -54t11 -67.5q25 6 34 -10.5t12 -42t5 -53.5t14 -44q0 -4 9.5 -12t11.5 -10q2 -4 8 -19.5t13.5 -34t13.5 -34t8 -19.5q14 -25 27.5 -36t23.5 -18t19.5 -17.5t15.5 -34.5h297q8 4 32.5 21t32.5 22q4 2 21.5 9t21.5 11q2 2 10.5 18.5 t18.5 37t19.5 41t15.5 32.5q8 18 13 46t30 38v215q0 4 -24.5 12.5t-41.5 8.5q-16 0 -29.5 -42t-33 -97.5t-49 -107.5t-78.5 -73q-2 -2 -26.5 -3t-39.5 -1q-10 0 -36.5 3t-57.5 7t-58.5 8t-37.5 6.5t-22.5 26t-24.5 53t-22.5 56t-16.5 37.5q-4 4 -22.5 20t-20.5 21v14v29v26 v17q0 6 -3 22t-6 32.5t-6.5 32t-5.5 19.5q-2 2 -11 10t-11 13l-1 8t-1 12t1 13l1 8q2 4 11 11t11 11q29 70 49.5 147.5t34.5 151.5h23q20 0 27.5 -12.5t25.5 -12.5q2 0 6 2l4 1q4 4 12.5 20t8.5 23q10 0 37.5 1t38.5 1q74 0 144.5 -28t100.5 -101q0 -4 3.5 -16.5t6.5 -28 t6 -27.5t5 -14q2 -4 13.5 -11.5t25.5 -15.5t27.5 -13.5t19.5 -5.5q2 0 10 1.5t10 1.5q2 6 6.5 21t7.5 31.5t6 32t3 21.5q0 4 -10.5 21.5t-12.5 21.5q-4 12 -10 46t-12 71t-12.5 70.5t-8.5 48.5q-10 0 -37.5 3t-57.5 6t-57.5 6t-37.5 5q-8 0 -24.5 3t-34 7t-31.5 7.5t-17 3.5 q-4 2 -11 12t-11 10t-21.5 -10t-21.5 -12q-4 0 -16.5 1t-26.5 1h-27q-12 0 -14 -2q-4 0 -20.5 -16.5t-22.5 -24.5q-4 -4 -11 -22.5t-12 -20.5q-2 -4 -20 -11.5t-21 -11.5q-35 -43 -60.5 -101.5t-40.5 -122t-22.5 -127t-7.5 -116.5z" />
<glyph unicode="D" horiz-adv-x="1331" d="M168 23l43 -23l34 -2t82 -5t98 -7t85 -6h10h10q22 1 47 1h25h26q26 0 53 1q40 2 78 10t70 31q2 2 10.5 11t10.5 9q4 2 19.5 5t34 6t33.5 6t19 6q35 14 56.5 47.5t34 74.5t20.5 83t18 71q0 2 10.5 10t10.5 10q2 4 5 18.5t6 31l6 33t5 24.5v20v23q-2 18 -5 67.5t-6 103.5 t-6 103.5t-5 67.5q-6 2 -19.5 13.5t-26.5 25.5t-24.5 27.5t-13.5 19.5q-4 8 -8 28.5t-8.5 44t-6.5 45t0 29.5q-29 2 -45 13.5t-30.5 24t-30.5 21.5t-43 9q-10 0 -25.5 -1t-17.5 -1q-4 -2 -10 -20.5t-10.5 -22.5t-21.5 -11t-22 -12q-6 -6 -8 -18l-2 -12h180l66 -160 q6 2 22.5 -7t20.5 -16q2 -4 4 -19t5 -33.5t6 -34t5 -19.5q0 -2 10.5 -10t10.5 -10q2 -2 2 -11v-12q0 -14 -4 -22.5t-8 -15.5t-8.5 -17.5t-4.5 -28.5q0 -35 12.5 -46t12.5 -40q0 -14 -3 -25.5t-20 -17.5l-43 -213q-4 -2 -11 -9t-9 -11q-4 -4 -11 -21.5t-12 -21.5 q-2 -4 -20 -11.5t-23 -9.5q-4 -4 -15 -16.5t-25.5 -27.5t-26.5 -27.5t-16.5 -14.5t-16.5 -1t-27 1q-14 0 -27.5 1t-15.5 -1q-4 -4 -10 -31.5t-10 -31.5q0 -2 -8 -3.5t-13 -1.5q-18 0 -34.5 10.5t-28.5 24t-23.5 28.5t-21.5 26q-2 4 -20.5 11t-22.5 11q-4 6 -5 23.5t-6 35 t-14.5 31.5t-27.5 17v170h-64v-277q0 -4 -8 -13t-20.5 -19.5t-24.5 -19.5t-20.5 -13.5t-30 -7.5t-45 -6t-45 -5t-29.5 -2q-6 -16 -16.5 -34.5t-26.5 -28.5zM274 1118q49 0 73 -7t32 -18.5t8 -25.5q0 -12 1 -25.5t10 -23.5t36 -14v-187l12 3q13 3 21 14q4 4 11 27.5t9 35.5 q2 8 5.5 30.5t7.5 48t7 48.5t3 33h84v30q-10 2 -42 10.5t-42 12.5q-4 0 -11 10t-12 10q-49 20 -105 24.5t-108 4.5v-41zM444 535h43v213h-43v-213zM637 1130h86v27q-23 0 -45.5 -5t-40.5 -22z" />
<glyph unicode="E" horiz-adv-x="1327" d="M162 33q0 -4 10 -12.5t22.5 -17.5t24.5 -16t19 -7q14 0 19 4t11 8t17.5 8t38.5 4q23 0 36 -4t23 -8t22.5 -8t34.5 -4q47 0 87 12t87 12q12 0 36 -1t26 -1t10 -11t10 -11q4 0 21.5 11t21.5 11q2 0 24 1t32 1q27 0 42 -7t26 -15.5t23.5 -15.5t35.5 -7h10q2 2 10 11.5 t10 9.5q2 2 12.5 5t20.5 6t20.5 6t12.5 5q6 4 18.5 16.5t26.5 25.5t24.5 25.5t14.5 18.5q2 2 5 15.5t6 27.5t5 26.5t6 14.5q2 2 19 2q16 0 34.5 -1t34 -2t19.5 1q6 2 19.5 13.5t27.5 25.5t24.5 27.5t14.5 19.5q2 6 6 21.5t7 32t6 31.5t3 22h-45q0 -6 -3 -18.5t-6 -26 t-6 -25.5t-5 -16q-6 -12 -21.5 -20.5t-32 -12.5t-31.5 -6t-22 -4q-4 0 -11 -9.5t-11 -11.5q-6 -4 -19 1l-12 5v174l-12 -3t-21 -7q-4 -2 -20.5 -18.5l-22.5 -22.5q-2 -4 -10 -22.5t-10 -20.5q-4 -4 -22.5 -11t-20.5 -11q-4 -10 -2 -25.5l4 -31t-2 -30t-23 -20.5q-2 0 -14 -3 t-26.5 -7t-28 -7t-15.5 -3q-27 -10 -50 -28t-58 -18q-16 0 -29.5 7.5t-13.5 27.5q0 2 1 7l1 4q2 2 11 10t9 10l1 4q1 4 1 6q0 23 -12 31t-12 37q0 18 13 32.5t30.5 28t31 27.5t13.5 37v10q-2 4 -10.5 12.5t-12.5 10.5v249q6 0 21.5 1t32 3.5t30.5 2.5h23q2 0 11 -4.5 t20.5 -7.5t20.5 -7t11 -4q4 0 11.5 -1t11.5 -1v131q-25 -4 -42.5 -21.5t-21.5 -41.5h-139v104l-20 -5q-21 -5 -33 -15q-4 -2 -10.5 -14.5t-12.5 -28t-12 -27.5t-8 -14q-4 -6 -15.5 -21.5t-23.5 -30t-23.5 -26t-19.5 -11.5q-49 0 -70.5 13.5t-30 32t-7.5 42t-1 42t-13 32 t-42 13.5q-2 0 -6 -1l-4 -1q-4 -2 -12.5 -10.5t-8.5 -10.5v-342q8 -6 14.5 -16.5t11.5 -21.5t11 -19.5t17 -8.5l4 2q4 1 6 1q4 23 7 46t11 41.5t22.5 31t41.5 12.5q10 0 26.5 -1t18.5 -3q10 -2 24.5 -8.5t28.5 -12.5t23.5 -12t9.5 -8v-236l-21 -20q4 -2 11.5 -10.5 t9.5 -12.5l1 -4q1 -4 1 -6q0 -10 -11.5 -27.5t-26.5 -34t-32.5 -28t-27.5 -11.5q-25 0 -47.5 22.5t-26.5 45.5q-2 8 -6 29.5t-7.5 45t-6.5 45t-3 30.5q-16 6 -39.5 27.5t-40.5 21.5v-74q0 -41 -9 -79t-32.5 -63.5t-68.5 -25.5q-23 0 -30 11.5t-23 11.5q-33 0 -55.5 -23 t-22.5 -53zM227 1069l23 -22v22h-23zM291 1102q0 -16 11 -28.5t26.5 -23t32 -16.5t26.5 -8v-149h80q0 4 -1 11t-3 9q-2 4 -11.5 11t-11.5 12q-2 16 1 44.5t6.5 49t3.5 22.5h139q0 8 8 28.5t14 25.5q0 2 8.5 3t12.5 1t12 -1t10 -3q4 -2 20.5 -21.5t20.5 -21.5q4 0 21.5 10 t21.5 12h23h20q4 -2 11.5 -11t11.5 -11q37 -14 59.5 -20.5t40 -14.5t32.5 -23.5t38 -48.5q2 -2 11 -10t9 -10q2 -2 2 -11v-12q0 -14 -4 -23.5t-10 -17.5t-10 -18.5t-4 -28.5q20 0 35.5 6t33.5 19q2 12 5.5 45.5t6.5 71.5t6 72t5 46v25q0 16 -7 28.5t-26 12.5q-16 0 -17 -8.5 t-4 -17.5t-12.5 -16.5t-40.5 -7.5q-25 0 -41 11.5t-29.5 24t-28.5 23.5t-40 11q-10 0 -10 -2q-6 -2 -22.5 -9t-20.5 -11h-428q-4 0 -20.5 -8.5t-20.5 -12.5q-2 -2 -2 -10zM633 1219q4 -10 10 -11q8 1 12 11q2 10 -12 10q-12 0 -10 -10zM1038 428h23v23h-23v-23z" />
<glyph unicode="F" d="M174 -4q12 0 20.5 4t15.5 9t15 9.5t23 4.5q23 0 33 -4.5t19 -8.5t22.5 -8t44.5 -4q12 0 36.5 1t26.5 1t10.5 10t10.5 10q2 2 10 3h12q14 0 25.5 -3.5t17.5 -19.5h227q0 33 -10 49.5t-25.5 27.5t-33 23.5t-31.5 38.5h-180l-9 21q-8 20 -3 33q4 4 16 12t16 8v256 q0 2 11.5 13.5t27 25.5t31.5 27.5t27 19.5q2 0 9 1t11 1t11 -1t12 -1q10 -12 28.5 -30.5t36 -40t30.5 -45t13 -44.5q0 -14 -2 -31.5t-22 -21.5l65 -66q23 76 23 148v151v35t-1 51.5t-1 51.5v35q0 8 -8.5 32.5t-12.5 30.5q-2 0 -5 2t-5 2t-6 -2t-6 -2q0 -20 -7.5 -47 t-20.5 -49.5t-33.5 -39t-45.5 -16.5q-23 0 -37 9.5t-26 36.5h-150l-20 -23q16 -4 19 -16.5t3 -26.5q0 -20 -6 -33.5t-29 -30.5v-382q0 -10 -15 -24.5t-35.5 -27t-40 -22.5t-26 -12.5t-21.5 -5.5t-31.5 -6t-32 -6t-21.5 -3v-90zM299 1100q0 -8 4 -13q2 -2 15.5 -4t26.5 -7 t25.5 -12t16.5 -17q2 -8 6 -27t7 -38t6.5 -37.5t3.5 -26.5q4 -4 20 -11.5t21 -9.5q2 -2 12 -2h4q4 0 6 2q2 4 6 15.5t7 25.5t5.5 26.5t2.5 16.5t-10.5 11t-10.5 12l-1 8t-1 12q0 14 3 25.5t20 17.5q12 2 45.5 5t71.5 6t72 6t46 3q2 0 10.5 1.5t12.5 1.5q27 0 63.5 -3.5 t73.5 -12.5t69 -26t48 -44q10 -63 17 -130t7 -133q4 0 10.5 2t8.5 5q4 2 13 10t9 10v385h-641q-27 -18 -62.5 -28.5t-64.5 -14.5q-2 -2 -3 -6zM410 811q2 -4 9 -11t11 -12h10h11q4 4 12 11.5t10 11.5h-63z" />
<glyph unicode="G" d="M223 471q0 -29 22.5 -39t45.5 -10v49h-68zM238 567q0 -14 10 -10q10 2 10 8q0 9 -10 13t-10 -11zM266 342q0 -66 20.5 -113t47.5 -100q2 -2 5 -11t6 -20.5t6 -20.5t3 -11q16 -27 45 -47.5t62 -34t66.5 -19.5t62.5 -6q41 0 88 8t82 35l21.5 21.5l21.5 21.5q2 0 9 1t11 1 q25 0 34 -13.5t34 -13.5q8 0 19.5 9.5t20.5 21.5t16 25.5t7 21.5q0 16 -12 23.5t-12 30.5q0 25 18.5 52t24.5 54q2 4 5 19.5t6 34t6 33.5t5 20q2 2 11.5 5t19.5 6t20.5 6t12.5 3q4 2 21.5 11.5t21.5 11.5t16 5t25.5 6t26 6t18.5 3v21q0 31 -17.5 40t-42.5 9q-23 0 -48 -4.5 t-42 -1.5q-4 2 -11 11t-11 11l-16 1q-17 1 -27 1q-8 0 -25 -1l-16 -1q-4 -2 -11.5 -11t-11.5 -11q-8 -2 -29.5 -5.5t-45 -6.5t-45 -6t-29.5 -3v-53h102q0 -2 2 -18.5t3 -40t-1 -37.5q0 -4 -2 -15.5t-5 -26t-7 -26.5l-6 -18q-4 -10 -10.5 -28t-13.5 -34t-12 -29.5t-7 -15.5 t-11.5 -5t-19.5 -6t-20.5 -6t-12.5 -3q-18 -8 -37.5 -22.5t-38 -29t-38 -26t-37.5 -11.5q-4 0 -12 2l-7 1q-4 4 -11 21t-11 22q-20 20 -45 28t-49.5 16.5t-44 20.5t-31.5 41q0 2 -3 11.5t-7.5 20.5t-7.5 20t-5 12q0 4 -9 11t-11 11q-4 10 -12.5 42t-8.5 42h-47zM332 920h22 q10 33 32 66.5t49.5 61t61 46t70.5 18.5q12 0 34 -5t44.5 -12.5t42 -14.5t29.5 -13q2 0 8 -6t13 -14.5t13.5 -14.5t8.5 -6q2 -2 12 -2h6t4 2q2 2 9.5 20.5t11.5 20.5q4 4 17.5 -4t19.5 -8q0 -18 -3 -25.5t-6.5 -13.5t-5.5 -12.5t-2 -20.5q0 -33 15.5 -58.5t35 -53t37 -61.5 t21.5 -83h20v432q-23 0 -32 -14.5t-31 -14.5q-25 0 -46.5 10.5t-42 23t-38 22.5t-33.5 10h-12q-4 -2 -20.5 -11t-20.5 -9q-8 -2 -29.5 -3.5t-46.5 -1.5q-23 0 -44 1.5t-30 3.5q2 -25 -10 -36.5t-30.5 -15.5t-38 -5t-27.5 -9q-4 -2 -10.5 -14.5t-13.5 -26.5t-12 -27.5 t-7 -15.5q-16 -27 -30.5 -50.5t-14.5 -55.5zM696 23v43h43v-43h-43zM707 502q0 -12 10 -10q10 4 10 10q0 8 -10 12q-10 2 -10 -12zM932 2v-22h20v22h-20z" />
<glyph unicode="H" horiz-adv-x="1327" d="M211 0q2 -12 16.5 -18.5t29.5 -8.5t30 -2h18q0 27 -19.5 39.5t-43.5 12.5h-11q-4 -2 -11 -10.5t-9 -12.5zM211 1110q16 -6 38.5 -16.5t44 -24.5t39 -30.5t27.5 -34.5v-13v-20v-21v-10q0 -4 10.5 -21.5t10.5 -21.5l1 -11q1 -12 1 -18q0 -4 -1 -18t-1 -16q0 -27 -3 -93.5 t-6 -142.5t-6.5 -142.5t-5.5 -93.5q14 -35 24.5 -72.5t18.5 -74.5q2 8 5.5 28.5t6.5 44t6 45t3 29.5v25v39v41v25q2 12 10 32.5t12 20.5h162l-3 21q-3 20 -11 32q-12 25 -40 32t-55.5 12t-50 17.5t-24.5 45.5v10q0 12 -1 27.5t-1 29.5v25q0 39 1 69.5t3 61t7 64.5t13 75 q29 4 65 14.5t62 28.5l-43 64h-233q0 -33 -29.5 -48.5t-56.5 -15.5zM381 -20h215q0 29 -17.5 52t-44 40.5t-56 27t-54.5 9.5h-23q-16 -1 -20 -3v-126zM657 545h236l43 -53v-342q0 -4 -2 -14.5t-5 -21t-7 -18.5t-6.5 -10t-12.5 -5t-20.5 -6t-20.5 -5t-12 -4q-2 -4 -9 -22.5 t-12 -20.5q-4 -4 -16 -7.5t-25.5 -7.5t-26 -6t-18.5 -2v-20h363q6 8 17.5 14t22.5 11t19.5 11.5t8.5 16.5q0 23 -24 42t-53.5 39.5t-53 44t-23.5 56.5q0 23 12 31t12 33q0 14 -3 25t-19 18q-18 166 -24 341t-5 341h-14q0 -6 -3 -21.5t-6 -33t-7.5 -32t-6.5 -20.5 q0 -4 -8 -12t-12 -11v-212q-21 -1 -48 -1h-30h-9q-42 -1 -82 -9q-44 -10 -77 -34t-33 -73zM784 1100q0 -2 1 -6.5t1 -6.5q16 0 39 -2t44.5 -8t40 -19.5t26.5 -33.5l20 53h183l-2 13q-2 12 -9 20q-6 6 -21 18.5t-33.5 22.5t-37 18.5t-26.5 8.5q-20 0 -27.5 -8.5t-11.5 -17.5 t-10.5 -16.5t-24.5 -7.5q-14 0 -20.5 7.5t-9.5 16.5t-7 16.5t-16 7.5q-2 0 -17.5 -10.5t-34 -25t-33 -26.5t-14.5 -14zM1149 1153q4 -10 10 -10q8 0 12 10q2 10 -12 10q-12 0 -10 -10z" />
<glyph unicode="I" horiz-adv-x="1343" d="M295 33q0 -2 1 -6l1 -4q6 -10 22.5 -26.5t20.5 -16.5h297q2 12 12 17t22.5 6t25 0t16.5 -1q27 0 38 -4t17 -8t11 -8.5t20 -4.5q2 0 5 1.5t5 1.5q4 2 11 9t9 11q0 -4 1 -15.5t1 -15.5q0 -6 -1 -18t-1 -14t-10 -10.5t-10 -10.5q-2 -4 -5 -19.5t-6 -34t-6.5 -34.5t-5.5 -18 q-2 -4 -20 -12.5t-21 -10.5q-4 -2 -12 -10l-10 -10q-4 -4 -16.5 -10.5t-25.5 -12.5t-25.5 -12t-18.5 -8h20q16 0 34 -1.5t32 -1.5h22q66 0 116 2.5t118 20.5q-4 25 -21.5 38t-36 22.5t-34 18.5t-15.5 27v193l43 43q-8 0 -26.5 2t-39 5t-38.5 7t-25 6q-4 2 -20 20.5t-21 23.5 q-6 6 -20 11t-28.5 13t-26 17.5t-11.5 21.5v788l9 3q10 4 24.5 7t28.5 7t24 6q4 0 19.5 3t34 6t34 6t19.5 5q16 6 41 26t25 38q0 12 -4.5 24.5t-20.5 18.5q-14 2 -50 9t-77 13.5t-78 12.5t-51 8h-8h-13q-6 0 -34.5 -4t-60.5 -7t-60.5 -6t-36.5 -3q-16 -2 -33.5 0t-33 1 t-31 -5.5t-29.5 -18.5q4 -2 11 -9t9 -12q4 -4 11.5 -21t11.5 -22q18 -18 47 -30.5t58.5 -24.5t53 -28.5t31.5 -42.5q2 -4 2 -17v-26t-1 -27.5t-1 -16.5q2 -14 5.5 -35.5t7.5 -42t7 -36.5l3 -15l43 -20v-256l-43 -20q0 -8 -3 -30t-6 -45.5t-7.5 -45t-6.5 -29.5q0 -2 -9 -10 t-11 -10q-2 -4 -5 -19.5t-6 -34t-5 -35t-5 -18.5q-8 -16 -38.5 -30.5t-65.5 -31t-62.5 -35t-27.5 -42.5zM700 778q0 -8 2 -10q4 -2 16.5 -7t26 -12.5t25.5 -14.5t16 -9q10 -6 26.5 -22.5t16.5 -20.5l33 -213v256l203 43v20q0 2 -10.5 6.5t-23.5 7.5t-28.5 6t-23.5 3h-16 t-33 1t-37 1h-31h-24q-16 0 -35 -1t-35 -1h-23q-6 -2 -22 -10t-21 -13q-2 0 -2 -4v-6z" />
<glyph unicode="J" horiz-adv-x="1327" d="M242 256q0 -147 71.5 -213t214.5 -66q16 0 46 1.5t32 1.5q6 2 23.5 10t38 18t39 19.5t26.5 15.5q10 8 27.5 23.5t34 33t30 31.5t15.5 19q2 6 6 34.5t7 61.5t5 61.5t4 34.5q0 4 10.5 21.5t10.5 21.5q2 12 -1 34.5t-3 47.5t5 48.5t21 39.5q-16 -14 -24.5 -18.5t-16.5 -4.5 q-6 0 -14 3.5t-25 3.5q0 4 -4 18t-2 18q0 4 10.5 12.5t10.5 10.5q4 4 11 14.5t13 20.5t12.5 18t6.5 11l1 4t1 6q0 18 -12.5 25.5t-12.5 27.5q0 14 4 23.5t8.5 16.5t8.5 17.5t4 26.5q0 35 -12.5 64.5t-12.5 64.5q0 4 1 12t1 11q2 8 9.5 32.5t11.5 30.5q59 0 131.5 11.5 t124.5 51.5l-84 87q-4 2 -30 6t-59.5 7t-68.5 5t-57 2q-12 0 -46 -2t-71 -5t-71 -7t-46 -6q-2 -4 -4 -21.5t-2 -22.5q0 -27 16.5 -42t41 -25t51 -18.5t47.5 -20.5q0 -8 3 -29.5t6 -45t6 -45t5 -30.5q2 -4 10.5 -12t12.5 -8q0 -10 1 -38t1 -38q0 -14 -1 -42.5t-1 -30.5 q-2 -4 -12.5 -21.5t-10.5 -21.5v-29v-47v-47v-27q-2 -16 -10 -45t-10 -29h-129q4 -23 26.5 -36t50 -20t54 -12t41.5 -8q-4 0 -12.5 -8t-10.5 -12q0 -4 -3 -19.5t-6 -34t-6 -33.5t-5 -19.5t-21.5 -11.5t-21.5 -11q-2 -2 -5 -11l-6.5 -19.5t-6.5 -20.5t-3 -12q-4 -4 -11 -12.5 t-11 -8.5h-234q-4 0 -14 5t-20.5 11.5t-19.5 13.5t-11 13l-1 12q-1 11 -1 17v26t2 7.5t7 4.5t15 17q4 6 16.5 24.5t27 39t25.5 39t15 26.5q0 8 -14 26.5t-32.5 37t-35 32t-22.5 13.5q-47 0 -74 -25t-39 -61.5t-15 -77.5t-3 -74zM520 618q0 -33 3 -54t20 -52q0 8 2 26.5t5 38 t7 38t6 26.5q2 2 11.5 10t11.5 11q2 4 9 14t13 20.5t12.5 18.5t6.5 10q2 2 2 6v6v6t-2 5q-2 2 -18.5 10t-22.5 10q-2 0 -6.5 1t-6.5 1q-23 0 -33 -18.5t-15 -43t-5 -51.5v-39zM883 1493q18 -4 46.5 -12t56.5 -20.5t47.5 -30t21.5 -44.5l20 54h170l23 33l-23 20h-362z M989 512l23 23h-23v-23zM1214 1055q0 -12 11 -11q10 4 10 11q0 8 -10 12q-10 2 -11 -12z" />
<glyph unicode="K" d="M211 22.5q4 -10.5 10 -10.5q8 1 10 11q4 10 -10 10t-10 -10.5zM274 1090q18 -16 42 -38t43.5 -46.5t33 -52t13.5 -54.5q0 -43 -12.5 -82t-12.5 -82q0 -35 16.5 -46t53.5 -11q0 12 -4.5 20.5t-10.5 15.5t-10 14t-4 20q0 4 1 12t1 10q2 2 11 10t11 11q0 6 3.5 27.5t7.5 47 t7 47t3 27.5q4 12 11 36.5t9 27t12.5 5.5t20.5 6t20.5 6t12.5 5q4 2 11 20.5t9 22.5q2 2 12.5 9t10.5 12q0 14 -9 38.5t-14 24.5h-256zM299 0h274l43 23q-33 20 -43 42.5t-17 43t-24.5 37t-64.5 26.5q0 8 -1 37t-1 37q0 25 6 61.5t20.5 73.5t34 67.5t47.5 43.5q4 2 19.5 5 t34 6t34 6t19.5 5t11 19.5t11 21.5q2 4 10.5 12t10.5 11l1 4q1 4 1 6q0 18 -12.5 24t-12.5 29q0 18 10.5 35.5t25 33t28.5 31t22 29.5q4 4 11.5 31.5t11.5 32t31.5 10.5t31.5 10q2 2 8.5 15.5t13.5 27.5t13 26.5t8.5 16.5t20.5 11t22 10q2 4 9.5 22t11.5 21q33 20 62.5 25 t52 15.5t37 33t14.5 75.5h-316q-4 0 -14 -7t-20.5 -17.5t-18.5 -21.5t-10 -17q-10 -31 -8 -55.5t5 -46t2 -43t-20 -48.5q-4 -4 -16 -16.5t-27.5 -26.5t-27.5 -26.5t-15 -16.5q-2 -2 -5 -11t-6 -19.5t-6 -20.5t-5 -12q-41 -82 -101 -118q-54 -32 -136 -32h-19v-10 q0 -18 12.5 -24.5t12.5 -28.5q0 -23 -6.5 -35.5t-28.5 -28.5v-299q-10 -2 -29.5 -17.5t-24.5 -25.5q-2 -6 -5 -24.5t-6 -39t-5 -39t-2 -26.5zM698 481q0 -12 7.5 -17t16.5 -9t17.5 -10.5t8.5 -24.5q0 -14 -2.5 -32.5t-22.5 -22.5q14 -10 21.5 -24.5t14.5 -27t17 -22.5 t33 -12q0 -8 3 -30t6 -45.5t6 -45t5 -29.5q2 -2 11.5 -10t11.5 -10q4 -12 -2 -34l-6 -22h-90l3 -11t9 -19q4 -6 20.5 -13.5t35 -13.5t33.5 -11t17 -5h11q45 0 87 11t87 11q14 0 29.5 -1t21.5 -21q33 12 44 44.5t11 61.5h-141q-16 43 -49 78t-58 72q-66 98 -106 213 q-4 8 -15.5 37.5t-7.5 48.5l-84 -43q-2 0 -3 -4.5t-1 -6.5z" />
<glyph unicode="L" d="M217 20q0 -2 12.5 -5t28.5 -6t34.5 -6t31.5 -3h26q25 0 58.5 -1t66.5 -1h55h129t117 2t118 7t132 13q6 4 16.5 15.5t20.5 26t18.5 26.5t10.5 18q0 2 1 13.5t1 25.5q0 16 1 30.5t1 25.5q0 8 -1 24.5t-1 30.5q0 16 -1 28.5t-1 14.5q-2 8 -10.5 26.5t-18.5 39t-20.5 38 t-16.5 23.5q-16 -4 -24.5 -44t-20.5 -90t-34.5 -97.5t-67.5 -67.5h-17h-26h-29h-14q-4 0 -21.5 -9t-21.5 -12l-8 -1q-9 -1 -13 -1q-18 0 -46 13.5t-54.5 34t-47 43t-24.5 38.5q-2 8 -5 30t-6 45.5t-6 45t-3 29.5q-14 4 -37 24.5t-37 20.5q-2 0 -6 -1t-6 -1q0 -10 -3.5 -38 t-6.5 -58.5t-6 -58t-5 -38.5q-6 -31 -14 -46t-20.5 -24t-30 -16.5t-41.5 -19.5q-6 -2 -21.5 -8t-32 -13.5t-32 -12.5t-21.5 -7v-66zM238 1128q35 -4 65.5 -20t60 -35.5t59.5 -35t60 -15.5q18 0 30.5 6t25 13.5t26 14.5t35.5 9h23h41h41h24q12 2 17.5 14.5t8.5 27.5t3 28v16 h-477zM444 741q12 0 30 7.5t33 18.5t26.5 25.5t11.5 26.5q-33 0 -67 -19.5t-34 -58.5zM451 512q23 -8 43 -28.5t43 -20.5v250q-10 0 -24.5 -3t-28 -10.5t-23.5 -16.5t-10 -21v-150zM451 844q8 0 20 11t23.5 26.5t18.5 31t7 25.5h-69v-94zM942 63v43h43v-43h-43z" />
<glyph unicode="M" horiz-adv-x="1327" d="M158 160q0 -12 7 -16.5t16 -7.5t16.5 -9t7.5 -21q0 -18 -8 -31.5t-37 -11.5q14 -25 37.5 -38t49 -20t53.5 -9t52 -2q10 0 35 2t29 4l20 20h193q2 -4 9 -11t11 -9q2 0 5 -1t8 -1q20 0 28 14.5t12.5 32.5t10.5 35.5t22 25.5q2 16 7.5 59.5t12.5 90.5t13 90t10 60q0 2 3 11 t6.5 20.5t7.5 20.5t4 11q0 4 3 19.5t6 34t6 33.5t7 19.5t15.5 9.5t24.5 8t25.5 4t18.5 -1q2 -4 2 -16v-15q0 -14 -4 -21t-8 -13.5t-8 -12.5t-4 -16q0 -18 12 -25.5t12 -27.5q0 -23 -11 -30t-11 -24v-12q0 -4 4 -16.5t7 -25.5t6 -26.5t3 -15.5t1 -10t1 -13q0 -10 -19.5 -42.5 t-42 -69.5t-44 -67.5t-23.5 -33.5q33 -12 50.5 -24t33 -21.5t33.5 -14.5t51 -5q20 0 54 1t66 8t54.5 22.5t22.5 44.5q0 6 -1 18t-1 14q-2 4 -21.5 21.5t-21.5 22.5q-23 39 -41.5 94t-22.5 98q-2 14 -6 54t-7 84t-6 83t-3 55q-16 6 -19.5 17.5t-3.5 26.5q0 23 12.5 31.5 t12.5 31.5q0 14 -4 23.5t-8.5 16.5t-8.5 17.5t-4 26.5q0 8 1 24.5t1 18.5q0 4 10.5 21.5t10.5 21.5q2 8 6 32.5t7 52.5t6 51.5t3 33.5q-16 -14 -24.5 -18.5t-14.5 -3.5t-14 4.5t-27 3.5q0 23 3.5 33t7.5 19t7 20.5t3 37.5q-6 0 -22.5 -3t-34 -8t-34 -10t-22.5 -10 q-2 -2 -5 -14t-6 -27.5t-6 -28.5t-3 -16q-2 -4 -9.5 -21t-11.5 -22q-2 -2 -12 -10t-10 -10v-20v-33v-35v-19q0 -4 -10.5 -11t-10.5 -11l-1 -16q-1 -17 -1 -27q0 -16 4 -26.5t8.5 -17.5t8.5 -16.5t4 -23.5q0 -39 -36 -74t-75 -35q-4 0 -11 1l-7 1q-57 45 -80 105.5t-27 128.5 q-8 -14 -13 -34.5t-12.5 -40t-18.5 -35t-32 -17.5v-193q-4 -2 -16 -9t-14 -11q-2 0 -2 -4v-6q0 -16 10 -28.5t23.5 -27t23.5 -29t10 -32.5q0 -4 -1 -13l-1 -10q-2 -2 -11 -10t-9 -10q0 -4 10 -21.5t10 -21.5q0 -8 -1 -27.5t-2 -40t-3 -40t-2 -27.5q-4 0 -17.5 -9.5 t-17.5 -4.5q-4 2 -13 14t-19.5 26.5t-19.5 26.5t-11 16.5t-11.5 11.5t-11.5 11v23v38v41v25q0 4 -10 11t-10 12l-1 12q-1 12 -1 18t1 18.5t1 14.5t4 11t7 20.5t6 20.5t3 11q0 4 -3 19.5t-6 34t-7 34t-4 19.5t-1 28.5t-1 34.5t1 26l1 17q6 6 20.5 11.5t30.5 9.5t33 4 q16 0 22 -2v96h-90q0 2 -6 17.5t-10 39t0 37.5q2 4 21.5 11.5t21.5 11.5t4 17.5t5 27.5t5 27.5t2 17.5q-23 0 -31 -3t-14 -7t-15.5 -7t-33.5 -3q0 25 2 33t5 12t5 7t2 15v12q-8 0 -29.5 2.5t-45 5.5t-45 7t-29.5 6q-4 2 -12.5 9t-10.5 11v-67q37 0 70 -19.5t37 -60.5 q0 -6 1 -21.5t1 -33.5v-31v-20q0 -166 -2 -333t-41 -329q-4 -12 -12.5 -36.5t-10.5 -27t-11 -5.5t-19.5 -6t-20.5 -6t-12 -5l-1 -3q-1 -3 -1 -7zM555 1065q0 -8 2 -15.5t8 -5.5q10 4 10 21q0 18 -10 22q-6 2 -8 -5t-2 -17zM586 1321q10 -10 43 -10t43 10q4 6 -10.5 8 t-32.5 2t-32.5 -2t-10.5 -8zM608 532q-4 8 5.5 23.5t15.5 19.5q4 2 17 4.5t27.5 5.5t28 5t17.5 2q0 -41 -16.5 -51.5t-53.5 -10.5q-4 0 -20.5 1t-20.5 1zM905 639q-2 10 10 10q15 0 13 -10q-4 -10 -13 -10q-6 0 -10 10zM1001 1171q0 -8 3.5 -15t7.5 -5q10 4 10 20 q0 19 -10 23q-4 2 -7.5 -5t-3.5 -18zM1055 1108h43v22h-43v-22zM1116 616q0 -27 18.5 -45t45.5 -18h12q10 0 12 2q4 0 16.5 3t26 6t25.5 6t18 5v11q0 29 -9 55.5t-20.5 53t-21.5 55t-14 59.5q-2 16 -5 55t-6.5 84t-6.5 84t-3 55q-12 -86 -19 -180q-4 -51 -4 -99q0 -42 3 -83 q-10 -6 -21.5 -19.5t-22 -30t-17.5 -32t-7 -27.5zM1141 1493q0 -10 8 -33.5t12 -32.5l4 -1q4 -1 6 -1q25 0 32 24t7 44h-69z" />
<glyph unicode="N" horiz-adv-x="1331" d="M193 119q0 -4 7 -20.5t15 -36t15.5 -37t7.5 -25.5q18 16 30.5 19.5t32.5 3.5q35 0 61.5 -11.5t65.5 -11.5h66q2 0 11 4t20.5 7t20.5 7.5t11 4.5t15.5 3t28.5 6t27.5 6t14.5 5t5 22.5t3 30.5q0 6 -3 27.5t-5 26.5q-4 4 -21.5 12t-21.5 10q-4 0 -16.5 3t-27.5 6t-27.5 6 t-14.5 6l-3 10t-6 24.5t-6 28.5t-5 23q-4 25 -6.5 54t-6.5 61t-11 62.5t-19 57.5v416q4 0 21 7t22 3q18 -10 34.5 -39t29.5 -67.5t25.5 -82.5t21.5 -86t18.5 -77t19.5 -53q2 -2 11.5 -10.5t9.5 -10.5q2 -4 5 -23.5t6 -41t6 -41t5 -23.5t20.5 -21.5t22.5 -21.5 q14 -29 20.5 -61.5t11.5 -66.5t11 -67.5t21 -60.5q2 -4 20 -11t23 -9q4 -4 13 -16.5t19.5 -26t18.5 -25.5l12 -18q53 43 80 76.5t27 97.5q0 164 -11.5 324.5t-11.5 322.5v30v50q0 27 1 49t1 31q2 6 10.5 22t19.5 34.5t20 33t14 18.5q2 2 15 4t28.5 5t28 6t14.5 5.5t4 14.5 t2 18q0 4 -2 15.5t-4 15.5q-12 2 -43 5t-65 6t-64.5 6.5t-42.5 5.5h-33h-31q-10 0 -33.5 -3.5t-51.5 -7.5t-52.5 -7t-32.5 -5q35 -45 84 -89t109 -60v-490q0 -2 -7.5 -8t-17.5 -13.5t-21.5 -13.5t-19.5 -8q0 -2 -8 -2h-12h-13q-6 0 -10 2q-2 47 -16.5 98.5t-36 102.5t-47 98 t-49.5 84q-4 4 -11.5 21.5t-9.5 21.5q0 2 -3 15.5t-7 27.5t-7 26.5t-3 16.5q-14 31 -32 50.5t-35 38t-28.5 42t-13.5 62.5l-256 -23v-10v-10q4 -4 20.5 -21.5t22.5 -21.5q6 -6 24.5 -18.5t39 -26t39 -25.5t26.5 -16q0 -2 1 -10.5t1 -10.5q0 -23 -12 -29t-12 -24v-10 q2 -4 10 -12.5t12 -10.5v-491l-22 -21l-41 -192q-12 0 -34 -4.5t-43.5 -13.5t-37.5 -22.5t-16 -33.5z" />
<glyph unicode="O" d="M244 428q0 -82 40 -158.5t87 -140.5l12 -12t10 -8q4 0 16.5 2t27 5t25.5 7t15 6q2 2 2 6v4q0 10 -2 13q-4 12 -11 36.5t-9 26.5t-15.5 5t-28 5t-27.5 5t-15 5.5t-5.5 18.5t-6.5 34.5t-6 34t-3 19.5q-8 29 -26.5 44t-18.5 42q0 20 12.5 27.5t12.5 25.5q0 6 -7.5 18.5 t-16.5 26t-18 23.5t-12 10q-8 0 -12 -4q-2 -6 -6 -24.5t-7 -38t-5 -38t-2 -26.5zM244 700q20 0 33.5 13.5t13.5 34.5h-47v-48zM256 809q4 0 17.5 3t28.5 6t29.5 7t18.5 9q4 2 11.5 26.5t9.5 36.5q2 10 4 42t2 42h-47q0 -6 -2 -21.5t-6.5 -32t-8.5 -31.5t-6 -22 q-2 -4 -20.5 -10t-22.5 -10q-2 -4 -5 -22.5t-3 -22.5zM436 1067h21v20h-21v-20zM477 45q0 -16 34 -32.5t78 -29t85 -19.5t57 -7q88 0 139.5 34t84 73.5t53 73.5t45.5 34v107l43 20l3 35t7 82t7 98t5 84v80q0 61 -12 125.5t-53 114.5q-2 4 -20.5 11t-20.5 11 q-10 14 -13.5 35.5t-8.5 43t-14 40t-30 28.5q-2 2 -11 5.5t-20.5 6.5t-20.5 6t-11 5q-4 2 -11.5 20.5t-9.5 22.5q-2 0 -5 1t-7 1q-2 0 -5 -1t-5 -1q-2 -4 -9.5 -28.5t-11.5 -37.5l-1 -4q-1 -4 -1 -8q0 -2 1 -5l1 -3q2 -2 12.5 -5t20.5 -6t19.5 -5t11.5 -4q4 -4 11 -21.5 t11 -21.5q53 -84 71.5 -166t35.5 -176q2 -16 9 -30t14 -26t13.5 -24.5t6.5 -26.5t-7.5 -22.5t-15.5 -15.5t-15 -15t-7 -21q0 -12 7 -16t16 -8t16.5 -10.5t7.5 -20.5q0 -18 -12.5 -24.5t-28 -11.5t-29.5 -14t-18 -34q-2 -10 -6.5 -33.5t-7.5 -50.5t-6 -51.5t-3 -34.5 q-22 3 -40 3q-28 0 -48 -7q-33 -12 -58.5 -30.5t-54 -35t-75.5 -16.5h-21q-4 2 -11 12.5t-11 10.5q-2 0 -27 1t-37 1q-8 0 -31.5 -1t-31.5 -1q-4 -6 -13.5 -31t-9.5 -33zM543 1130h106v23h-106v-23zM584 385l43 -20v20h-43zM692 342q10 0 42 -1t42 -1q66 0 109 17.5t84 70.5 h-23q-35 0 -57.5 -14.5t-48.5 -28.5q-10 -6 -32 -12t-44.5 -12.5t-43 -11.5t-28.5 -7zM713 1174q0 -23 14 -37.5t35 -14.5q0 16 -3 41t-26 31q-4 0 -12 -8t-8 -12zM1108 991q0 -12 2 -23.5t8 -6.5q10 8 10 32q0 25 -10 31q-6 4 -8 -7t-2 -26z" />
<glyph unicode="P" d="M199 39q0 -4 1 -10l1 -6l213 -43q29 16 61.5 29.5t67.5 13.5q14 0 29.5 -7.5t30.5 -15.5t31.5 -15.5t35.5 -7.5v129q-6 2 -22.5 10.5t-20.5 12.5q-2 2 -9.5 20.5t-11.5 22.5q-4 2 -16 4t-27.5 5t-28 6t-14.5 6q-8 8 -12 28.5t-6 45t-3 47t-1 38.5q0 47 3 78t19 82h86 q86 6 169 9t147.5 26.5t104.5 79t40 164.5h-45v-97h-266l-23 -53h-213q0 4 -8 21.5t-12 21.5q-2 0 -5 1t-6 1q-4 0 -7 -1t-5 -1q-2 -4 -10 -21.5t-10 -21.5t-11.5 -11t-9.5 -12q-2 -4 -6 -18t-7 -31.5t-6 -33t-3 -23.5q-2 -16 -5 -55t-6.5 -83t-6.5 -84t-3 -54l-43 -76h-149 q16 -12 19 -24.5t3 -29.5q0 -12 -4 -19t-8 -13t-8 -14.5t-4 -20.5zM201 1087h20v23h-20v-23zM276 1139q0 -4 3.5 -17.5t8.5 -29t10 -28.5t9 -20q2 -2 14.5 -5t28 -6t27.5 -5t16 -4t10.5 -21.5t10.5 -21.5q2 0 17 -2t26 -2q8 0 24.5 2t18.5 2q6 4 14 20.5t6 22.5q8 2 29.5 5 t45 6t45.5 6t30 3q2 2 14 3h16q37 0 95.5 -4.5t112.5 -20.5t92 -51q32 -30 33 -80q0 -8 -1 -17h21q0 4 2 19.5t7 34t13 34t21 19.5q-4 4 -11.5 11t-9.5 12q-4 4 -16 19t-26.5 33.5t-27 34t-16.5 19.5q-6 4 -21.5 6t-31.5 5t-31.5 10.5t-21.5 21.5h-213l-21 21l-22 -44h-150 l-20 -43h-107q-4 35 -22.5 43.5t-51.5 8.5zM414 831q10 -29 38.5 -49t59.5 -20q0 12 -2 34.5t-8 46t-19.5 40t-38.5 16.5q-2 0 -5 -1l-3 -1q-8 -10 -16 -36t-6 -30zM426 1161q0 -12 10 -8q10 2 10 8q0 9 -10 13q-10 2 -10 -13zM1096 811h22v43h-22v-43z" />
<glyph unicode="Q" d="M160 436q0 -57 17.5 -101t43 -83t53 -79t45.5 -87q0 -2 3.5 -12.5t6.5 -20.5t6 -19t5 -11q4 -2 19.5 -5.5t34 -6.5t33.5 -5t19 -4q4 -4 13.5 -15.5t9.5 -17.5h256q0 -10 3 -35.5t6 -54.5t6 -54.5t5 -35.5q2 -12 13.5 -44t28 -64.5t34 -58t31.5 -25.5h192q27 37 53.5 64.5 t48 57t35 63.5t13.5 83q0 12 -10 18t-23.5 9.5t-30.5 3.5h-24q-18 0 -28.5 -13.5t-20.5 -31t-24.5 -31t-39.5 -13.5q-18 0 -42.5 1.5t-47 7.5t-38 19t-15.5 38q0 14 3 25.5t19 17.5q-4 41 -8 87q-2 20 -2 40q0 24 3 47q5 41 25.5 75t67.5 50v150q4 0 12.5 8t10.5 12 q2 6 5 21.5t6 33t6 31.5t3 21q0 14 2.5 52t3.5 79t2 77.5t1 51.5q-33 0 -56.5 -20.5t-58.5 -26.5v-277q-4 -2 -11 -9t-12 -11v-13q0 -16 12.5 -23t12.5 -30q0 -2 -1 -10t-1 -10q-6 -4 -21.5 -10.5t-32 -13.5t-31.5 -12t-22 -7q-2 0 -10 -1.5t-12 -1.5q-12 0 -40 15.5 t-55.5 37t-50 43t-24.5 36.5q-4 -6 -20.5 -22.5t-22.5 -20.5q-2 -4 -20.5 -11.5t-20.5 -11.5q-4 -2 -16.5 -15.5t-26.5 -27.5l-26.5 -26.5t-16.5 -14.5q-2 -2 -17.5 -3t-23.5 -1q-10 0 -26.5 1t-18.5 3q-4 2 -11 20.5t-10 20.5q-4 4 -22 11t-21 12q-2 2 -4 15t-5 28.5t-6 28 t-5 14.5q-6 4 -19.5 9t-28.5 9t-29.5 7t-18.5 3zM170 492h20l4 22q3 21 6 51.5t7 63.5t6 55q0 6 1 30.5t1 33.5h-45v-256zM213 834q0 -6 8 -22.5t12 -20.5v83q-4 -4 -12 -19t-8 -21zM362 1090q18 -18 35 -21.5t39 -3.5q18 0 37 5t19 30q0 2 -2 6l-1 4q-2 8 -10 23.5 t-10 19.5q-2 0 -5 1t-5 1q-4 0 -7 -1t-6 -1q-2 -4 -9 -22.5t-11 -20.5q-6 -4 -31 -12t-33 -8zM500 145q0 41 24.5 68t63.5 27q6 0 17 -1t13.5 -3.5t5.5 -14.5t6 -26.5t5 -27.5t4 -15q2 -4 11 -11.5t9 -11.5q2 -4 5.5 -27.5t3.5 -27.5q-4 0 -24.5 4t-25 8t-11.5 22.5 t-11 20.5t-18.5 5t-30 5t-29.5 4t-18 2zM575 1083q23 0 32 14.5t34 14.5q4 0 11 -1l7 -1q4 -2 11.5 -20.5t11.5 -22.5q18 -20 52 -31.5t54 -31.5q2 -4 10.5 -21.5t10.5 -21.5q4 -2 26.5 -5.5t24.5 -3.5q0 68 -21.5 109t-57.5 63.5t-84 31.5t-101 18q-2 0 -10 1t-11 1v-93z M756 928q0 -12 10 -10q10 4 10 10q0 8 -10 12q-10 2 -10 -12zM866 942q0 -18 5.5 -28.5t10.5 -18.5t10 -17.5t5 -23.5t-4 -23.5t-10 -16.5t-10.5 -17.5t-4.5 -28.5q51 0 70.5 24.5t19.5 71.5q0 39 -28.5 58.5t-63.5 19.5z" />
<glyph unicode="R" d="M205 10l1 -4q1 -4 1 -6q8 0 29.5 -2t45 -5t45 -7t29.5 -6q4 -2 21.5 -20.5t21.5 -22.5l5 -1q4 -2 6 -2t6 2l4 1q2 2 10 11t12 9q6 4 22.5 13.5t18.5 9.5q23 2 50.5 -0.5t56.5 -2.5t57.5 4.5t50.5 18.5v10v13q-2 2 -11 10t-11 10q-2 4 -9.5 22.5t-11.5 20.5t-16 5t-26.5 6 t-28 6t-15.5 3q-12 6 -23 19.5t-20.5 31t-19.5 33t-23 23.5v279q4 0 33 4t72 9t67 7q2 0 10.5 1t12.5 1t11 -1t9 -1q8 -2 33 -9t31 -11q14 -8 38.5 -23.5t24.5 -19.5l43 -213q16 -6 19.5 -17.5t3.5 -25.5q0 -23 -12.5 -38.5t-12.5 -37.5q0 -2 1 -5t1 -6q2 -2 11.5 -10 t9.5 -10q2 -4 9 -16.5t14.5 -25.5t12.5 -25.5t7 -18.5h235q4 0 19.5 16.5t23.5 26.5v10q0 14 -19.5 38t-23.5 38q-8 0 -26.5 3t-39 6t-39 6t-24.5 6q-4 2 -11 10t-9 12q-2 10 -8 38t-13.5 57.5t-13.5 57t-8 37.5q-10 43 -25.5 57.5t-30 19.5t-24.5 8.5t-10 21.5q0 4 2 12 t2 11q4 4 22.5 10t20.5 10q2 2 2 14q0 14 -1 28.5t-1 27.5v16q2 4 21.5 21.5t21.5 21.5q2 2 5 15.5t6 27.5t6 26.5t3 14.5q2 2 8.5 8t14.5 13.5t14 13.5t6 8q2 8 5.5 26.5t5.5 38t4 38t2 26.5h-37q2 -6 1 -22.5t-5 -33t-9.5 -30.5t-9.5 -20q-2 -4 -14 -6.5t-26.5 -5.5 t-28 -6t-15.5 -5t-5 -14.5t-6 -27.5t-6 -27.5t-5 -14.5q-4 -4 -19.5 -10t-34 -13.5t-34 -12.5t-19.5 -7t-11 -10t-9 -13h-150q-2 4 -9 12.5t-11 10.5q-12 4 -34 5l-21 1v-78l-21 -10q-20 -10 -33 -4q-4 2 -10 21.5t-10 21.5q-10 4 -41 10t-41 6q0 -129 -7 -265t-18 -263 q-31 -4 -78 -21.5t-71 -41.5q0 -2 -1 -5.5t-1 -7.5zM207 1110h20v20h-20v-20zM309 1110q0 -4 2 -11t2 -9q4 -12 11.5 -31t13.5 -36t12 -29l6 -13h64v129h-111zM389 702q0 -8 2 -15t8 -3q10 4 11 21q-1 16 -11 20q-6 2 -8 -5t-2 -18zM399 811h21l-21 86v-86zM676 1096 q14 0 33.5 2t38 8t35 17.5t22.5 29.5q-23 -3 -52 -3h-15q-38 1 -62 24v-78zM825 555v43h43v-43h-43zM844 1110q0 -4 1 -11t3 -9q2 -6 9 -22.5t11 -20.5v63h-24zM909 991q0 -2 13.5 -14t30 -27.5t34 -28t23.5 -12.5q0 14 -1 35t-6.5 41.5t-16.5 37.5t-32 24 q-6 -4 -22.5 -20.5t-20.5 -22.5q-2 -3 -2 -13z" />
<glyph unicode="S" horiz-adv-x="1337" d="M248 365h149q-23 2 -39 12t-29.5 22.5t-27.5 21.5t-33 9q-2 0 -9 -1t-11 -1v-63zM330 291q0 -59 7 -112.5t17 -112.5q8 0 30 -3.5t45.5 -6.5t45 -6t29.5 -5q2 -2 10 -11t10 -11q8 -4 24.5 -11.5t33 -13.5t31 -12t18.5 -6q12 -2 46 -6.5t71.5 -7.5t71.5 -5t46 -2 q4 6 20.5 22.5t22.5 20.5q4 2 21.5 10t21.5 11q41 33 62.5 81t44.5 91v10q0 16 -12.5 23.5t-12.5 29.5q0 14 4 22.5t8.5 15.5t8.5 17.5t4 28.5q0 59 -10.5 103t-32.5 110q-6 2 -18.5 8t-26 13.5t-25.5 13.5l-16 8q-2 2 -10.5 11t-10.5 12q-4 2 -21.5 9t-21.5 11t-11 22.5 t-11 20.5q0 2 -16.5 3t-24.5 1q-31 0 -40 -8t-12 -17.5t-8.5 -16.5t-25.5 -7q-18 0 -31.5 8t-11.5 37h-191v-20q0 -2 12.5 -10.5t29 -18.5t35 -20.5t30.5 -16.5q8 -4 31.5 -11t31.5 -9h15h26h27h16t11.5 -10.5t11.5 -12.5q2 0 15 -3t27.5 -6t27 -6t14.5 -5q2 0 8 -6.5 t13 -14.5t13.5 -14t8.5 -8q2 0 12 -3.5t20.5 -6.5t20.5 -6t12 -5q0 -2 8.5 -17.5t12.5 -25.5q0 -2 3 -11t7 -20.5t7 -20.5t3 -11q2 -4 11.5 -11.5t11.5 -11.5l1 -8t1 -12t-1 -12l-1 -9q-2 -4 -11.5 -11t-11.5 -11q0 -4 -3 -16.5t-6 -27t-6 -26.5t-5 -14q-2 -4 -14.5 -10.5 t-28 -13.5t-28.5 -12t-15 -7l-8.5 -8.5t-13.5 -14.5t-13 -14t-8 -6q-29 -16 -80 -31t-86 -15q-10 0 -27.5 1.5t-19.5 1.5q-4 2 -9.5 14t-11.5 27.5t-12 27.5t-8 17q-2 2 -12.5 4t-20.5 5t-20.5 6t-12.5 5t-11 12.5t-19.5 20.5t-20.5 19t-12 11.5t-12 2.5q-8 0 -19.5 -1 t-21.5 -1h-11q-4 2 -11 21t-11 22q-4 4 -22.5 8t-22.5 4zM338 862q0 -25 6 -53.5t18.5 -53t34 -41t52.5 -16.5q0 6 -1.5 25.5t-2.5 41t-3 41t-2 28.5q-2 4 -10 12t-12 8t-15.5 2t-24.5 3t-25.5 2t-14.5 1zM346 989q8 0 37 5t35 10q4 2 11 21t11 22q2 2 14.5 5t27 6t26.5 6 t16 3q2 2 12.5 8t20.5 14.5t19.5 14.5t13.5 6l16 1q15 1 23 1q18 0 49 -6t62.5 -15.5t60 -21.5t43.5 -22q4 -2 11 -20.5t11 -23t21.5 -11.5t21.5 -9q14 -12 27.5 -29.5t28 -33t33 -25.5t40.5 -10q0 2 -1 16t-1 17q0 14 -3 51t-7 77.5t-7 76.5t-3 51q-20 -16 -37.5 -19.5 t-40.5 -3.5q-18 0 -24.5 7t-10.5 16.5t-9 16.5t-17 7q-14 0 -19.5 -4t-11.5 -9t-17.5 -9.5t-37.5 -4.5q-23 0 -34.5 4.5t-21.5 9.5t-20 9t-29 4q-10 0 -36.5 -7t-62.5 -18.5t-76 -25.5t-74 -28.5t-57.5 -28t-25.5 -23.5q0 -4 -2 -15.5t-3 -23.5t-2 -24.5t-1 -14.5zM643 874 q0 -8 3 -15t7 -5q10 4 11 20q-1 19 -11 23q-4 2 -7 -5t-3 -18zM653 279h43v22h-43v-22zM674 1366q4 -10 10 -10q8 0 12 10q2 10 -12 10q-12 0 -10 -10zM741 1346q0 -33 26 -51.5t56 -14.5v66h-82zM780 342l23 23h-23v-23z" />
<glyph unicode="T" d="M258 592q33 0 60.5 29.5t27.5 58.5q0 8 -1 25.5t-1 19.5q-2 4 -11 11t-11 12q-14 53 -18.5 100t-4.5 100q0 6 1 27.5t1 25.5q49 16 100.5 31t104.5 15q35 0 52 -18.5t24.5 -44.5t9.5 -55.5t8 -54.5q0 -4 9 -21t12 -22l1 -8q1 -8 1 -12q0 -27 -12.5 -49.5t-12.5 -48.5 q0 -2 1 -5l1 -3q2 -4 9 -12.5t12 -10.5q0 -8 1 -37t1 -37q0 -63 -9.5 -123.5t-13.5 -122.5q0 -10 -3 -37.5t-7 -58t-7 -58.5t-5 -38q-25 -18 -59 -23.5t-64.5 -13.5t-51 -26.5t-20.5 -65.5q0 -18 8 -29.5t37 -11.5h449q4 0 14 5t20.5 12.5t18.5 14.5t10 11q2 0 3 11.5 t1 17.5q0 43 -22.5 55t-53 14t-63.5 -1t-55 10q-35 16 -40 51q-4 25 -4 50q0 9 1 19q2 34 2 62q0 27 -25 30v320q6 2 22.5 10t20.5 13l1 4t1 6t-1 6l-1 4q-4 4 -20.5 12t-22.5 11q0 4 -1 25.5t-1 27.5q0 4 -1 15t1 23.5t7 22.5t18 12q-12 2 -17.5 12.5t-7.5 23t-1 23.5t1 15 q0 6 1 27.5t1 25.5q10 2 34.5 5.5t51.5 7.5t51.5 7t34.5 3h23h18q8 -2 21.5 -5t25.5 -6t20.5 -6t8.5 -6v-190q31 2 33 -22.5t2 -38.5q0 -10 -1 -26.5t-1 -18.5q-2 -4 -12.5 -21.5t-10.5 -21.5t8 -13.5t15 -9.5q10 0 41.5 9t42.5 14q-29 -2 -37.5 10t-8.5 30q0 14 7.5 23.5 t16.5 17t16.5 15.5t7.5 20t-4.5 17.5t-8.5 11.5t-8 16.5t-4 32.5q0 27 5 49.5t40 32.5l-53 23v190h-631q-18 0 -48 -5t-56.5 -17.5t-46 -33t-19.5 -51.5v-452z" />
<glyph unicode="U" d="M240 1110q12 -10 31.5 -34.5t39 -53.5t34.5 -57.5t22 -46.5q2 4 5 16t6 25.5t6 25.5t5 19q4 14 12.5 37.5t8.5 25.5q18 14 38.5 17t36 7.5t25.5 16.5t10 46h-217q-10 -16 -28.5 -27t-34.5 -17zM319 831q0 -29 27 -40v-385q-4 -2 -12 -9.5t-10 -11.5v-10q0 -47 8 -94.5 t35 -87.5q2 -2 11 -10.5t11 -10.5q0 -4 3 -16.5t6 -26.5t6.5 -27.5t5.5 -15.5q6 -8 33.5 -25.5t61.5 -36t65.5 -31.5t41.5 -13q18 0 24.5 11t29.5 11h12t8 -2q4 0 11.5 -10t11.5 -10t21.5 10t21.5 10q4 2 19 5t33.5 6t34 6t19.5 6l8 10t18.5 23.5t20.5 27.5t17 22 q18 29 38.5 74t24.5 76q2 12 6 43t7 64.5t6.5 63.5t3.5 42q0 31 1 106.5t1 159.5q0 86 -1 162t-1 107q-4 8 4 32.5t16 30.5q2 2 15.5 5t27.5 5t27.5 5t15.5 5q4 6 9 18.5t9.5 26t7.5 25.5t3 17h-51q-16 -2 -55.5 -5.5t-83.5 -6.5t-84 -6t-54 -2q-6 -4 -22.5 -22t-20.5 -22 q0 -2 -1 -5t-1 -7q0 -29 20.5 -43.5t47 -25.5t51 -26.5t33.5 -41.5q0 -4 3 -19.5t7 -34t7 -34t3 -19.5q2 -4 11.5 -11t11.5 -12l1 -8q1 -8 1 -12q0 -14 -3 -25.5t-22 -17.5q-10 -57 -12 -113.5t-3 -112t-6.5 -110.5t-19.5 -110q-2 -4 -5 -16.5t-7 -27t-7 -27.5t-3 -15 q-4 -12 -12.5 -37t-8.5 -27q-4 -4 -21.5 -11t-21.5 -11q-4 -2 -11 -9.5t-11 -11.5h-277q-2 0 -17.5 16.5t-25.5 26.5q-4 4 -13 16.5t-19.5 25.5t-19.5 25.5t-11 16.5q-14 145 -20 287.5t-7 287.5h-64z" />
<glyph unicode="V" d="M223 1110q0 -6 17.5 -26.5t41 -44t45 -46t27.5 -35.5q20 -31 32.5 -67.5t20 -76.5t14.5 -79t19 -73q2 -4 11.5 -21.5t9.5 -22.5q23 -115 36 -224t50 -222q0 -4 6 -16.5t14 -26.5t14.5 -27.5t8.5 -15.5q0 -4 3 -16.5t6 -26.5t6 -27.5t5 -15.5q4 -6 21.5 -15.5t21.5 -4.5 q2 2 8.5 11t13.5 19t13 20.5t8 12.5q2 4 9.5 11t11.5 12q2 14 11 54t19.5 84t19.5 83t13 55q2 4 11.5 21.5t11.5 21.5v14v27v27v16q2 8 7 38t12 63.5t13.5 65.5t10.5 46q0 6 6 27.5t14 47t14.5 47t6.5 27.5q2 8 6 33t7 52.5t6 51t3 33.5q25 10 53.5 23.5t53 32t41 41 t16.5 53.5h-313q-4 0 -20.5 -24.5t-22.5 -39.5q0 -2 -1 -10t-1 -12q0 -29 14 -45t30.5 -29.5t31 -27t14.5 -33.5q0 -6 -1 -19.5t-1 -15.5q-2 -2 -11.5 -10t-11.5 -11v-24v-41v-39v-25q0 -2 -10 -10t-10 -10q-18 -66 -28.5 -119t-35.5 -114q0 -2 -3 -12.5t-6 -22t-7 -20.5 t-6 -11t-20.5 -6t-28.5 -4q-8 0 -21.5 4t-13.5 6l-86 405q-29 14 -36 48t-7 61q0 8 16.5 25.5t37 39t36.5 43t16 39.5q0 2 -9 10.5t-11 10.5q-4 4 -11.5 21.5t-9.5 21.5q-8 0 -32.5 1t-32.5 1q-39 0 -65.5 -12.5t-61.5 -12.5h-12t-9 2q-4 0 -11 10.5t-11 10.5t-14.5 -2 t-20.5 -5t-18.5 -7t-10.5 -6.5t-3 -9.5t-1 -11z" />
<glyph unicode="W" d="M219 1026h143q0 14 -12 32.5t-29.5 35t-37 28t-35.5 11.5q-4 0 -11.5 -8.5t-9.5 -12.5q0 -6 -2 -18.5t-3 -25.5t-2 -25.5t-1 -16.5zM311 866q0 -2 1 -6l1 -4q23 14 36 29.5t13 42.5q-27 0 -39 -19.5t-12 -42.5zM319 770q0 -20 2.5 -72.5t4.5 -110t4 -108.5t4 -71 q0 -6 7 -29t14 -47.5t14.5 -46t7.5 -27.5q2 -14 6 -51t7 -77t5 -77t2 -51h66q2 0 7 12.5t11 28.5t12.5 34.5t10.5 31.5q25 90 26.5 193.5t16.5 189.5q0 6 7 24.5t14 40t14.5 40.5t7.5 24q2 12 6 41.5t7 63.5t6 64.5t3 43.5q2 2 9.5 3t11.5 1q18 0 30.5 -14.5t19.5 -34 t11 -40t4 -32.5q0 -4 1 -16.5t0 -24.5t-6 -22.5t-17 -12.5q16 -23 38.5 -46.5t55.5 -23.5q0 6 -1 25.5t-3 41t-3 41t-3 28.5q0 4 -8.5 12t-12.5 8v27q0 20 -1 42.5t-1 41.5v28q0 45 4 82t10.5 71t10.5 67.5t4 76.5q-10 0 -45 -3t-45 -7q-4 0 -11.5 -10t-11.5 -10l-8 -1 q-8 -2 -12 -2q-23 0 -30 12.5t-23 12.5q-10 0 -11 -2q-4 -2 -11 -20.5t-11 -20.5q-2 -4 -20.5 -11t-22.5 -11l-1 -4q-1 -5 -1 -7q0 -12 14 -19t30.5 -15.5t31 -21.5t14.5 -38q0 -14 -3 -26.5t-20 -18.5q-8 -41 -10 -85l-4 -88t-8 -86t-21 -81q-2 -4 -11 -21.5t-11 -21.5 q-2 -10 -5 -34.5t-6.5 -51.5t-6.5 -51.5t-3 -34.5h-86l-41 385h-37zM737 258q0 -41 6.5 -74.5t14.5 -67.5t15 -72t9 -85q45 12 76 51t51 78q2 18 5.5 67.5t6.5 102.5t6 102.5t5 67.5v25v18q-2 8 -10.5 32.5t-12.5 31.5q-18 -8 -22 -23.5t-8.5 -30t-12.5 -26t-32 -11.5 q-6 0 -17.5 2.5t-13.5 4.5q-4 4 -8 15t-7.5 24.5t-5.5 25.5t0 19q0 -6 -7 -24.5t-15 -38t-15.5 -36t-7.5 -18.5q0 -18 12.5 -24.5t12.5 -28.5v-13q0 -8 -2 -8q0 -4 -10.5 -11t-10.5 -11q0 -2 -1 -26t-1 -38zM889 1100q0 -16 8 -41t21.5 -47.5t32 -39t36.5 -16.5 q6 0 17.5 2.5t11.5 4.5l108 106l1 4q1 4 1 6t-1 7l-1 4q-4 6 -16 18l-25.5 25.5t-26 25.5t-18.5 17q-8 -20 -26.5 -34t-40 -20t-44 -8t-38.5 -2v-12zM899 602q41 0 56.5 21.5t19.5 60.5q0 10 2 38t3 58.5t2 58t1 38.5h-20q0 -39 -10.5 -72t-21.5 -64.5t-21.5 -65.5 t-10.5 -73z" />
<glyph unicode="X" d="M154 43q0 -10 9 -21.5t21.5 -20.5t25.5 -16.5t21 -7.5q4 0 7.5 1.5t5.5 1.5q4 2 11 9t9 11l213 43q-4 37 -5 79v14q0 35 4 69q5 41 20.5 76.5t46.5 60.5q29 25 42 35t42 10q25 0 32 -8t7 -23q0 -12 -1 -27.5t5 -29.5q4 -6 20.5 -14.5t22.5 -5.5v-213q-6 -2 -22.5 -10.5 t-20.5 -12.5l-1 -4t-1 -6q0 -10 8 -16.5t19.5 -11.5t21.5 -11t16 -14q12 0 43 -3.5t64.5 -6.5t64.5 -7t43 -6q8 0 32 -8t32 -12h-23q6 2 18.5 8t26 12t25.5 12t16 10.5t13.5 11.5t9.5 9v150q-92 14 -140.5 65t-83 111.5t-67.5 114t-94 71.5q0 6 -1 18.5t-2 25.5t-1 26v16v23 q0 14 1 27.5t2 23.5t1 12q0 4 10 16.5t21.5 26.5t20.5 25.5t11 15.5t8.5 23.5t13.5 41t13 41t8 23.5t11.5 16.5t19.5 26.5t20.5 26.5t12.5 16.5q4 4 11 21.5t11 21.5q6 2 21.5 4t32 5t32 10.5t21.5 21.5q-4 6 -20.5 22.5t-22.5 20.5q-4 4 -21.5 11t-21.5 12q-2 2 -10.5 20 t-10.5 21q0 2 -4 2h-6q-16 0 -37.5 -19.5t-38.5 -23.5q-4 -2 -16 -5.5t-26.5 -6.5t-28 -6t-15.5 -5q-16 -10 -19 -51t-10.5 -88t-28 -84t-71.5 -37q-35 0 -58.5 16.5t-41 40t-33.5 50t-37 47.5q-2 4 -20.5 11t-20.5 11q-4 4 4.5 17.5t8.5 17.5q18 0 27 -3t15.5 -6t15.5 -5.5 t28 -2.5q51 0 51 56v10q-6 2 -21.5 6t-32 7t-33 6.5t-22.5 3.5q-8 0 -29.5 -3.5t-45 -6.5t-44 -7t-28.5 -6q-2 -2 -2 -10v-6t2 -4q0 -4 9 -11.5t11 -11.5t8.5 -16.5t13.5 -25.5t13 -26.5t8 -15.5q2 -4 11.5 -11t9.5 -11q2 -4 5 -16.5t6 -27t6 -26.5t5 -14q2 -4 20.5 -11.5 t20.5 -11.5q2 -2 5 -14.5t6.5 -27.5t6.5 -28.5t5 -15.5q2 -4 15 -15.5t27.5 -25.5t28 -26.5t15.5 -16.5q0 -2 1 -20.5t1 -28.5q0 -43 -18.5 -80t-43 -71.5t-50 -69.5t-40.5 -72q-10 -25 -13 -44t-8 -36.5t-14.5 -34t-29.5 -34.5q-2 -2 -14.5 -8.5t-28 -13.5t-27.5 -13 t-14 -8.5t-8.5 -11.5t-13.5 -19t-13 -20.5t-8 -12.5q-14 -14 -23.5 -16t-14.5 -3t-7 -4.5t-2 -19.5z" />
<glyph unicode="Y" d="M248 1063q49 0 86 -18.5t63 -63.5q2 -4 4 -16.5t5.5 -26.5t6.5 -27.5t5 -15.5q2 -4 15 -16.5t27.5 -25.5t28 -25.5t15.5 -16.5t5 -16.5t6 -26.5t6 -27.5t3 -15.5q12 -35 38 -78t48 -72v-446q-6 0 -18 -2t-25.5 -6t-26 -8t-16.5 -6.5t-11 -20.5t-9 -20q-4 -4 -20.5 -12.5 t-22.5 -10.5l63 -63h-20l43 20q14 0 50 -1t77 -1t76.5 1t50.5 1q6 0 21.5 3t32.5 6t31.5 7t20.5 7q2 4 3 20t1 23q0 39 -18.5 50t-43 14t-50 8t-39.5 34q-27 50 -27 94v6q2 47 2 113q0 80 11.5 141.5t32 116.5t48 109.5t60.5 121.5q10 23 30.5 43.5t32.5 40.5q2 2 8.5 15.5 t12.5 29t12 27.5t10 14.5t20.5 7.5t35 9t35 7t20.5 3q0 23 -11.5 41t-30 32.5t-40 22t-39.5 7.5h-6t-4 -3q-4 0 -21.5 -9t-21.5 -11t-23.5 -5t-41 -6t-41 -5t-23.5 -4.5t-20.5 -18.5t-20.5 -25q-2 -2 -2 -6v-6q0 -8 2 -10q6 -4 30.5 -12.5t32.5 -8.5q0 -6 1 -26.5t1 -26.5 q0 -16 -12 -60t-31.5 -90t-42 -83t-43.5 -37q-31 0 -54.5 24.5t-40.5 57.5t-30.5 65.5t-23.5 49.5q-4 2 -22.5 9t-20.5 11q-2 0 -3 8t-1 12q0 10 14 24.5t31.5 34t32 47.5t14.5 66h-238q-6 -12 -22.5 -22t-32.5 -19.5t-30.5 -15.5t-20.5 -8v-2z" />
<glyph unicode="Z" d="M301 713q39 0 55.5 23.5t22.5 56t6 67.5t8 58q6 18 26.5 32.5t45 24.5t46 17t32.5 12q2 2 10 11t10 9q0 2 8 2h13q23 0 30 -12.5t23 -12.5q12 0 19.5 4.5t13.5 8.5t15 8t26 4h26t19 -2q14 -2 38.5 -9t24.5 -11v-127q-25 2 -35 -11.5t-15 -32t-6 -37t-7 -28.5 q-2 -4 -21.5 -10t-21.5 -10q-2 -2 -7.5 -15.5t-12.5 -31l-14 -35t-9 -25.5q0 -4 -3 -16.5t-6.5 -27.5t-6.5 -27.5t-5 -14.5t-14 -5t-27.5 -6t-29 -5t-15.5 -4q-4 -2 -11 -20.5t-9 -22.5q-31 -45 -66 -85t-63 -85q-2 -4 -8.5 -16.5t-13.5 -27t-13 -27.5t-8 -15 q-4 -6 -20.5 -31t-22.5 -33q0 -2 -10.5 -10t-10.5 -12q0 -2 -1 -27t-1 -37q0 -8 1 -31.5t1 -31.5q121 -25 238 -25q30 0 61 2l21 -20h172q2 12 11 17t21.5 6t24.5 0t16 -1q27 0 38.5 -4t17.5 -8t11 -8.5t19 -4.5q2 0 6 1l5 2q2 2 7 10t12 18t13.5 19.5t10.5 15.5 q4 8 11 22.5t14 27.5t12.5 23.5t5.5 12.5v299l-43 43q-41 -18 -62.5 -74.5t-37 -117t-31 -107.5t-39.5 -47q-4 0 -12.5 1t-10.5 3q-4 2 -10 21.5t-10 21.5h-17h-26h-29h-14q-4 0 -11.5 10.5t-9.5 10.5q-4 0 -27.5 1t-37.5 1q-6 0 -31 -1t-33 -1q14 -4 18.5 -11.5t3.5 -15.5 t-4 -18.5t-3 -18.5h-72q0 4 -1 16.5t-3 25.5t-2 26v18q0 2 2 10t5 18.5t7 19.5t6 16q4 8 13.5 29.5t18.5 45t18.5 45t13.5 29.5q20 0 33.5 12.5t22.5 29.5t16.5 34.5t13.5 30.5q37 63 86 116.5t84 116.5q16 27 27.5 52.5t24.5 49t30.5 46t46.5 45.5v172h-213l-23 41l-20 -41 h-170v20q-20 -16 -51 -20.5t-60 -6.5t-52.5 -9t-29.5 -27q-2 -4 -5 -19.5t-6 -34t-6 -34t-5 -19.5q0 -4 -4.5 -16.5t-7.5 -26.5t-6 -27.5t-3 -15.5q0 -10 -1 -36.5t-2 -55.5t-2 -55.5t-1 -36.5z" />
<glyph unicode="_" horiz-adv-x="1327" d="M166 -162q0 -25 21.5 -45t43.5 -29q12 -4 33 -5l21 -1v88l21 4q20 3 32 0q35 -6 51.5 -9t16.5 -31q0 -20 -9.5 -34t-36.5 -12q14 -2 54.5 -5t84.5 -6t83 -6t55 -3h25t50 -1t54 -1h45q86 0 159.5 1t155.5 21q23 6 45.5 28t22.5 46q0 41 -23.5 56.5t-64.5 19.5q-4 0 -42 3 t-88 6t-103.5 7t-86.5 7h-10q-133 0 -289.5 -9.5t-298.5 -33.5q-20 -4 -21 -22.5t-1 -33.5zM510 -170h41v-43h-41v43zM999 -170h43v-43h-43v43z" />
<glyph unicode="a" horiz-adv-x="1327" d="M178 266q0 -14 5 -48t14.5 -69.5t20.5 -66.5t26 -39q6 -4 21.5 -6t32.5 -5t31.5 -10.5t20.5 -21.5h299q10 6 35 17.5t53.5 22.5t54 18.5t37.5 7.5q51 0 95.5 -12.5t97.5 -12.5h18q14 0 29.5 1t28.5 1h20q2 6 5 21.5t6.5 32t6.5 31.5t5 22v10v10q-6 0 -21.5 3t-33 6t-32 7 t-20.5 7q-4 0 -12 8t-10 12q0 2 -3 15.5t-7.5 27.5t-7.5 26.5t-3 16.5q-2 2 -11 10t-11 10v23q0 29 12 40t12 46v16q0 12 -2 23.5t-10 18t-23 3.5v256q-25 6 -46 19.5t-41.5 27t-43 24.5t-49.5 15h-16h-27h-28h-15q-4 2 -21.5 21.5t-21.5 21.5l-12 2q-12 1 -19 1 q-16 0 -25 -4.5t-17.5 -8.5t-17.5 -8t-26 -4q-14 0 -21 3t-13 8t-12.5 8t-16.5 3q-23 0 -53.5 -20t-59 -48t-49 -59.5t-20.5 -52.5v-12q4 -23 5 -45.5t7 -40.5t19.5 -30.5t41.5 -12.5q47 0 73 14.5t40 36t21.5 47t18.5 47t29.5 36t53.5 14.5h18t15 -3q2 0 11 -3t20.5 -6 t20.5 -7t11 -4q4 0 19.5 -3t34 -6t34 -6t19.5 -5q2 -2 5 -15.5t5 -28t5 -27.5t5 -16q4 -4 16.5 -8t25.5 -8t25.5 -5t18.5 1v-43q-10 -2 -43 -10t-43 -13q-2 0 -10 -10t-10 -10h-13h-20h-21h-10q-4 -2 -21.5 -11t-21.5 -12q-2 0 -15 -1t-20 -1q-6 0 -17 1l-11 1 q-6 4 -15.5 20.5t-7.5 22.5q-4 -4 -20.5 -11t-22.5 -9q-18 -4 -63 -13.5t-95.5 -19.5t-96.5 -19t-64 -11q-2 -6 -8.5 -20.5t-14.5 -32t-18 -33t-23 -21.5q0 -10 -1 -38t-1 -38zM350 233v23q4 12 10.5 32.5t13.5 39t12 32t7 13.5h213q6 35 43 45t66 10q4 0 11 -1t9 -1 t10.5 -9t10.5 -11.5t15 -8.5t28.5 -12t28 -13t14.5 -9.5t4 -23t2 -30.5t-2 -30.5t-4 -22.5q-2 -4 -14.5 -7t-28 -6t-28.5 -5t-15 -2l-8.5 -8.5t-13.5 -14.5t-13 -14t-8 -6q-4 -2 -23.5 -5.5t-41 -6.5t-40 -6t-22.5 -5q-4 0 -12.5 -8t-10.5 -12h-170q-10 25 -26.5 41.5 t-16.5 41.5z" />
<glyph unicode="b" d="M199 1163q0 -2 1 -4l1 -6q6 0 21.5 -3t31.5 -6t31.5 -7t21.5 -7q2 0 10.5 -10t10.5 -10q6 0 19 -2t28.5 -3t29 -2t17.5 -1q0 20 -10.5 29.5t-22.5 15.5t-24.5 15t-14.5 32q-8 2 -33 2h-30q-10 0 -24.5 1t-29 -1t-24.5 -9t-10 -24zM410 219q0 -10 1 -28.5t1 -36.5t1 -32 l1 -13l63 -86q27 12 45 17t43 5q35 0 70 -29.5t55 -56.5l23 53h170q4 23 17 30t28.5 10t32 9.5t28.5 24.5q4 6 8 24.5t8.5 39t5.5 39t-1 26.5l43 21q0 6 -1 21t-1 32q0 16 1 31.5t1 21.5q0 4 10 11t12 12v38q0 27 -3 63t-9 71.5t-14.5 68.5t-16.5 56q0 2 -7 8t-14 13 t-14.5 13t-7.5 9q-2 2 -5 15t-6 27.5t-5 26.5t-4 17q-2 2 -11.5 5t-20.5 6t-21.5 6t-12.5 3q-2 2 -11 8t-19.5 14.5t-20.5 14.5t-12 6t-23.5 1t-34.5 1q-55 0 -109.5 -4t-109.5 -18q-4 -2 -11 -11.5t-11 -11.5q-10 -4 -32 2l-22 6v78h-53q-2 0 -6 -14.5t-7 -35t-5 -43 t-2 -36.5q0 -4 3 -16.5t7 -25.5t7 -26.5t3 -15.5t1 -15.5t1 -29.5v-35v-26q0 -94 -13 -178.5t-13 -180.5zM430 1100q0 -12 1 -34t5 -43.5t15.5 -36.5t29.5 -15q0 12 -1 33.5t-5 43t-14.5 37t-30.5 15.5zM434 1174q4 -10 10 -11q9 1 13 11q2 10 -13 10q-12 0 -10 -10z M475 362q0 4 1 14l1 9q2 2 11.5 10t11.5 13v18v33v35v20q0 2 10 10t10 11q2 4 4 19t5 33.5t6.5 34t5.5 19.5q4 4 22.5 11t20.5 10q4 4 11 21t11 22q12 20 35 29t48.5 12.5t51.5 3.5h50q6 0 17 -1l11 -1q4 -2 10.5 -21.5t10.5 -21.5q2 -2 15 -4.5t28.5 -5.5t28 -6t14.5 -5 q8 -10 10 -28.5t5 -37t13.5 -32t34.5 -8.5v-342q-41 -12 -74.5 -31t-67.5 -36t-69 -29.5t-78 -12.5q-49 0 -94 30.5t-65 78.5q0 2 -3 15t-6.5 27.5t-6.5 26.5t-5 16.5t-20.5 10.5t-22.5 10q0 2 -1 9t-1 11z" />
<glyph unicode="c" horiz-adv-x="1327" d="M268 2q0 -53 22.5 -84t57.5 -46t79 -18.5t87 -3.5q6 0 26.5 1.5t26.5 1.5q-6 0 -18 2t-25.5 5t-26 7t-16.5 6q-4 4 -21.5 22.5t-21.5 20.5q-23 14 -45 23.5t-43.5 20.5t-42 25.5t-39.5 37.5v-21zM311 322q6 -2 15.5 -10.5t19.5 -18.5t18.5 -19.5t10.5 -15.5q2 -4 2 -20 q0 -14 -1 -33t-1 -35v-18t12 -21.5t27.5 -36t29 -34t17.5 -15.5l213 -43q0 -4 8 -13t12 -9t21.5 10t21.5 12q25 10 49.5 13t48 6.5t47 7.5t48.5 16q12 6 33.5 15.5t41 19.5t35 18t17.5 11q16 16 19 59t3 70q0 31 -3 52t-19 52q-4 -23 -9.5 -31t-12.5 -11t-17 -6t-25 -15 q-4 -4 -16 -16.5t-26.5 -27t-27 -26.5t-16.5 -14q-2 -2 -14 -5.5t-27.5 -6.5t-28 -6t-14.5 -5q-4 -2 -21.5 -21.5t-21.5 -21.5q-2 0 -18.5 -1t-24.5 -1t-24.5 1t-18.5 1q-4 2 -21.5 21.5t-21.5 21.5q-2 2 -11 5t-19.5 6t-20.5 6.5t-12 5.5q-31 14 -66 41.5t-62.5 62.5 t-46 74t-18.5 78q0 20 11.5 27t11.5 24q0 23 -11.5 39t-11.5 39t7.5 35t35.5 26q-4 2 -20.5 3t-22.5 1q-25 0 -35 -6t-15 -16.5t-11 -21.5t-23 -23v-256zM412 719q8 0 30.5 1t47 2t47 3t30.5 2q14 2 24.5 8t18.5 14.5t17.5 14.5t23.5 6h23q12 -2 41.5 -8t63.5 -13.5 t64.5 -13.5t43.5 -8q16 -6 19 -18.5t3 -26.5t-7 -19.5t-15 -8.5t-15.5 -7t-7.5 -16q0 -23 29 -39.5t47 -16.5q2 0 6 1l4 2q2 2 10.5 11t12.5 9q37 27 50 48.5t13 70.5q0 53 -29.5 88t-72.5 56.5t-93 29.5t-93 8q-6 0 -18 -1l-13 -1q-4 0 -21.5 -10t-21.5 -10 q-4 -2 -19.5 -5.5t-34 -6.5t-34 -6t-19.5 -5q-2 0 -8 -6t-13 -14.5t-13.5 -14.5t-8.5 -8q-16 -10 -35.5 -15t-37 -13.5t-28.5 -23t-11 -40.5zM567 598l9 -3q10 -3 24 -6t27.5 -6t23.5 -5q6 0 18.5 -1.5t26 -2.5t25.5 -2t16 -1v27q0 2 -12 5t-28.5 6t-35 6t-30.5 6 q-8 0 -33 2t-31 2v-27zM674 -127h20h23q14 6 35.5 15.5t42 20.5t35 19.5t14.5 10.5v41q-4 -2 -21.5 -9.5t-21.5 -11.5q-2 -2 -10.5 -11t-10.5 -9q-10 -4 -28.5 -6.5t-37 -7.5t-30.5 -17t-10 -35zM791 492q0 -18 3 -33t7 -10q6 6 8 18t2 25q0 14 -2 26.5t-8 16.5 q-4 4 -7 -10.5t-3 -32.5z" />
<glyph unicode="d" horiz-adv-x="1327" d="M221 150q16 14 31.5 18t36.5 4q6 0 21.5 -18.5t31.5 -43t30.5 -50.5t18.5 -40l236 -20q10 39 36.5 42t55.5 3q55 0 95 -13.5t99 -13.5h19q14 0 29.5 1t27.5 1h21q0 6 8 22.5t14 20.5q4 4 20.5 -4t20.5 -8v-57q4 0 11.5 2t11.5 4q10 6 25.5 22.5t17.5 20.5q0 6 -2 21.5 t-5.5 33t-8.5 31.5t-7 21q-25 -2 -56.5 -1t-62 10t-56.5 27.5t-38 49.5q-2 25 -5 88t-6 133.5t-6 135t-3 89.5q0 12 -1 46t-1 71t1 70.5t1 48.5q-18 4 -21.5 16t-3.5 24q0 14 4 23.5t9.5 17t9.5 17.5t4 28q0 20 -4 33t-11.5 22t-15.5 20t-14 32h-107q10 -29 35 -53.5 t29 -53.5v-12t1 -23.5t1 -27.5v-23q0 -10 -1 -41.5t-1 -42.5q-4 -2 -16.5 -6t-26 -7t-25.5 -6t-18 -3q-14 0 -50 -1t-77 -1t-77 1t-50 1q-4 -4 -11.5 -11t-11.5 -9.5t-16 -8.5t-26.5 -13t-28 -13t-15.5 -8.5t-8 -14.5t-13.5 -27.5t-12.5 -27.5t-7 -14q-2 -4 -11 -12.5 t-11 -10.5q-6 -16 -17.5 -44t-21.5 -54.5t-17.5 -48t-7.5 -23.5v-362zM305 381q0 4 1 13t1 12q0 8 3 32.5t6 52t6.5 51t5.5 33.5q12 6 20 21.5t12.5 32t6.5 32t4 21.5q4 14 12 38l8 25h213q2 -20 8 -29t14.5 -13.5t18.5 -7.5t25 -13l20.5 -20.5t20.5 -22.5q16 -23 32.5 -40 t28.5 -35.5t19.5 -40t7.5 -54.5q0 -43 -17.5 -91t-48.5 -79q-12 -12 -32.5 -26.5t-41 -32t-37 -35t-18.5 -35.5h-147q-4 6 -21.5 22.5t-21.5 20.5q-4 2 -22.5 10t-20.5 13q-2 2 -5.5 11t-6.5 19t-6 20.5t-5 12.5q-10 23 -26.5 38t-16.5 44zM627 1174h84v20l-84 20v-40z" />
<glyph unicode="e" d="M199 498q0 -78 34.5 -139.5t96.5 -102.5q4 -2 11 -10t9 -10q4 -8 14.5 -30t22.5 -46.5t25.5 -45t23.5 -28.5q78 -59 161 -72.5t179 -13.5q45 0 98.5 16.5t97.5 47t73.5 74.5t29.5 98q0 37 -18.5 41t-44.5 4q-37 0 -51.5 -11.5t-21.5 -26t-12 -28.5t-22 -22 q-4 -2 -19.5 -5.5t-33.5 -6.5t-33.5 -6t-19.5 -5q-4 0 -11.5 -10t-11.5 -10l-8 -2q-8 -1 -12 -1q-35 0 -75 19.5t-75 26.5q43 4 82 29.5t68 53.5q-6 2 -27 3h-27q-25 0 -39 -4.5t-25 -8.5t-25.5 -8t-39.5 -4q-6 0 -26.5 1t-26.5 1q-16 18 -19 36.5t-3 41.5q0 20 8 28.5 t19.5 14.5t21.5 13t16 26h469q4 0 13.5 8t19.5 20.5t19.5 25.5t13.5 22l1 15q1 15 1 23q0 31 -9.5 67t-24.5 70.5t-34.5 66.5t-42.5 54q-2 4 -20.5 11.5t-20.5 11.5q-4 4 -12 20.5t-10 22.5h-299q-4 -18 -16.5 -20.5t-24.5 -2.5q-23 0 -30 12.5t-26 12.5q-2 0 -6 -1l-4 -1 q-2 -4 -10 -21.5t-10 -21.5q-25 -25 -47.5 -37t-39 -25.5t-26.5 -35t-10 -66.5q-4 0 -23.5 -4t-23.5 -2q-4 0 -12.5 9t-10.5 12q-6 4 -26.5 11t-26.5 9v149q-10 -78 -32.5 -164.5t-22.5 -168.5zM262 438v41q0 10 1 38t1 38q18 6 30.5 15.5t24 16.5t23.5 12t35 5 q0 -25 -5 -68.5t-22 -66.5q-2 -4 -20.5 -11t-22.5 -9v-11q0 -23 11.5 -38t11.5 -38v-20q-29 4 -42.5 18.5t-19.5 35t-6 42.5zM487 608h312l8 8q8 9 18.5 21t20.5 24.5t16 20.5q4 4 11.5 21.5t9.5 21.5q6 -8 16 -21.5t21.5 -27.5t19.5 -29.5t8 -28.5v-20q-10 0 -28.5 -2 t-37 -9t-30.5 -20.5t-10 -34.5h-279q-8 12 -21.5 19.5t-25.5 13.5t-20.5 15.5t-8.5 27.5zM487 641q0 31 29 55.5t68 41t78.5 24.5t62.5 8q25 0 50.5 -7t25.5 -38q0 -2 -1 -10t-1 -10q-10 0 -28.5 -2.5t-37 -9.5t-31 -19t-10.5 -33h-205zM627 961q8 -10 32 -11q25 1 33 11 q2 4 -8 6t-25 2q-14 0 -25 -2t-7 -6zM776 319q29 -2 38 11.5t9 31.5q0 4 -1 11.5t-3 11.5q-6 -4 -22.5 -21.5t-20.5 -21.5v-12v-11zM825 745q1 23 17 23t16 -23q0 -20 -16 -20t-17 20z" />
<glyph unicode="f" d="M244 86q4 -29 16 -58.5t47 -29.5q25 0 42.5 12.5t41.5 12.5q66 0 128.5 -12.5t129.5 -12.5h25q18 0 38.5 1t39.5 1h24q31 -4 40 13.5t12 40t8.5 44t25.5 29.5q-8 4 -32.5 12t-30.5 11q-4 0 -20.5 3t-35 7t-34 7t-19.5 3q-10 2 -23.5 9t-27.5 14.5t-23.5 12.5t-9.5 7v188 q78 0 156 -9t156 -9h20t24.5 3t20.5 9t8 19q0 4 -1 8l-1 4q-2 4 -9 12t-11 8q-4 2 -19.5 5.5t-34 6.5t-34 6t-19.5 5q-10 2 -24.5 9t-28.5 14.5t-23.5 12.5t-9.5 7v233q25 10 45.5 22.5t20.5 41.5q0 27 -29 43t-67.5 28.5t-78.5 19.5t-61 15q-2 6 -3 27t-1 27q0 29 9.5 46 t21.5 32.5t22.5 34t14.5 46.5q4 -2 16 -6t25.5 -7t26 -5t18.5 -2q4 0 21.5 10t21.5 10q2 2 19.5 3.5t27.5 1.5q35 0 51 -24t29.5 -53.5t32 -53t59.5 -23.5h18t24.5 2t23 7t12.5 13q2 12 -8.5 44t-28 67t-36.5 64.5t-34 37.5q-8 -2 -29.5 -3t-46.5 -1q-23 0 -44 1t-29 3 q-4 0 -16.5 7.5t-26 15.5t-26.5 14t-15 6t-8.5 -6t-13.5 -14t-13 -14t-8 -9q-4 -2 -16.5 -8t-27 -13t-27.5 -13t-15 -9q-4 -2 -11.5 -9t-9.5 -11q-2 -2 -5 -12.5t-6 -20.5t-6 -19t-5 -12q-2 -4 -20.5 -11t-20.5 -11l-7 -13q-6 -14 -12 -30t-13 -34.5t-11 -29.5 q-10 -29 -20.5 -46t-24 -28.5t-34 -17.5t-50.5 -14q-6 -2 -20.5 -5t-32 -6t-33 -6.5t-21.5 -3.5v-10v-12q4 -4 11.5 -20.5t11.5 -20.5q51 -8 106.5 -17.5t106.5 -25.5v-107v-106q0 -16 -3 -59t-6.5 -90.5t-7.5 -90.5t-6 -59q-8 -14 -39.5 -35.5t-69.5 -42t-73 -35t-51 -14.5 zM606 446v256q0 39 18.5 42.5t43.5 3.5h12t22.5 -1.5t21.5 -6.5t9 -15v-213q0 -4 -16.5 -21.5t-26.5 -21.5q-4 -2 -15 -6t-25.5 -7t-27 -6.5t-16.5 -3.5zM1159 1491q0 -27 11.5 -49.5t41.5 -22.5q0 29 -12 53.5t-41 40.5v-22zM1214 1395q0 -12 11 -11q10 4 10 11q0 8 -10 12 q-10 2 -11 -12z" />
<glyph unicode="g" d="M207 -41q0 -10 1 -33.5t5 -47t14.5 -41t28.5 -17.5v139h-49zM276 -190v-43h86v43h-86zM276 193h23v22h-23v-22zM319 129h64q-4 16 -16.5 19.5t-24.5 3.5h-23v-23zM319 365l236 20q4 16 16.5 19.5t26.5 3.5q23 0 31 -12.5t33 -12.5q23 0 31.5 12.5t31.5 12.5t29 -11.5 t24 -11.5h10q4 2 11.5 11.5t11.5 11.5t21.5 9t21.5 11q8 12 11 27.5t6 29t12.5 21.5t34.5 8q-6 20 -23.5 21.5t-32.5 1.5q-6 0 -18 -1l-13 -1q-4 -2 -10 -20.5t-10 -22.5q-25 -18 -57.5 -20.5t-61.5 -2.5q-14 0 -44 7t-60.5 19.5t-53 28t-22.5 33.5v234q4 -2 14.5 0t20.5 5 t18 8t10 9q2 0 4.5 16.5t2.5 24.5q0 6 -2 22.5t-5 20.5q0 -23 -12 -35t-29.5 -19t-35 -12.5t-29.5 -17.5q-2 -2 -5 -12t-6 -20.5t-6 -20.5t-3 -12l-8.5 -8.5t-14.5 -13.5t-14 -13t-6 -8l-2 -3q-1 -4 -1 -6q0 -23 12.5 -39t12.5 -39q0 -20 -12.5 -27t-12.5 -24q0 -16 4.5 -18 t9.5 -7t9 -18.5t4 -50.5q0 -10 -1 -27.5t-3 -17.5q-4 -6 -19.5 -11t-32 -8t-33 -4t-22.5 3v-43zM393 -254q0 -16 11.5 -24.5t26.5 -13.5t31.5 -6t26.5 -1v45h-96zM406 57q33 0 65.5 8.5t63 17.5t62.5 17.5t65 8.5q18 0 25 -4.5t14.5 -8.5t18.5 -8t36 -4q27 0 51 1t47 24 q-35 2 -55.5 9t-38 15t-35.5 14.5t-45 6.5h-18q-10 0 -20.5 -2t-18 -10.5t-5.5 -22.5h-212v-62zM575 -276v-68q29 0 39.5 22.5t10.5 45.5h-50zM696 -326v-18q51 0 52 47q0 14 -3.5 25.5t-19.5 17.5q-12 -4 -18.5 -16.5t-8.5 -27.5t-2 -28zM705 854h20v43zM809 823 q0 -12 14.5 -46t35 -69.5t40 -63.5t29.5 -28t10 5l63 149q2 0 8.5 1t10.5 1q18 0 37.5 -14.5t37 -30.5t30 -30.5t16.5 -14.5q2 0 6 1l4 1q2 6 8 21.5t12.5 33t12.5 31.5t10 21q2 4 10 11t13 11q-14 25 -39 27t-48 14q-4 4 -21 22.5t-22 20.5l-4 1q-4 1 -6 1q-10 0 -29.5 -10 t-42 -23.5t-49 -24t-51.5 -10.5q-27 0 -44 6.5t-30 39.5q-4 -4 -11 -21.5t-9 -21.5l-1 -4q-1 -5 -1 -7zM831 -319v-21h23v21h-23zM895 -276v-27q86 0 139 23.5t96 89.5q2 4 9.5 11t11.5 9v150h-88q0 -25 13.5 -43t13.5 -43t-11.5 -41.5t-29 -27.5t-36 -19.5t-32.5 -16.5 q-10 -6 -24.5 -16.5t-28 -20.5t-23.5 -18t-10 -10zM934 92q0 -53 36 -74.5t83 -21.5q0 53 -35 74.5t-84 21.5z" />
<glyph unicode="h" horiz-adv-x="1327" d="M184 1174q37 -4 68 -19.5t61.5 -32t61.5 -30t65 -13.5v95l-12 3q-12 3 -28.5 6t-35 6t-30.5 5q-2 0 -14.5 1t-18.5 1q-35 0 -56.5 -4t-60.5 -18zM248 43q2 -6 10 -22.5t12 -20.5h9q33 0 57 7t41.5 15.5t32 15.5t30.5 7q14 0 22.5 -7t15.5 -16.5t15.5 -16.5t20.5 -7 q35 0 46 16.5t14.5 39t8.5 44t27 31.5l-149 41q-4 45 -23.5 71.5t-19.5 57.5q0 23 12 32t12 34q0 29 -23.5 49t-51.5 20v-264q-8 2 -29 -6t-25 -14q-6 -10 -8 -29t-7 -37t-15 -30.5t-35 -10.5zM373 721q0 -16 7 -31.5t16.5 -30t17.5 -30t8 -33.5q0 -23 -9.5 -36t-35.5 -28 q6 -16 17.5 -19t25.5 -3t27.5 9t23.5 23.5t18.5 29t14.5 26.5q2 2 8 15.5t12 27.5t12.5 26.5t10.5 14.5t22.5 6t41 7t42 5t23.5 4.5t20.5 20.5t20.5 23q8 6 25.5 13t37 13t38 11.5t30.5 5.5q20 0 30.5 -13.5t16.5 -31t13 -36t24 -28.5v-512q-43 -16 -76 -32.5t-33 -63.5v-13 q0 -8 1 -17t6.5 -16.5t15.5 -7.5h256l86 43l1 5q1 4 1 6q0 20 -16.5 38.5t-38 36t-44 34t-32.5 30.5q-2 18 -5 67.5t-6.5 103.5t-6.5 103.5t-3 67.5q-2 29 -2 57q0 21 1 40v10q0 41 -21 86q-8 16 -38 38.5t-64.5 42t-68.5 32.5t-52 13h-11q-4 -2 -21.5 -11t-21.5 -9 q-4 -2 -19 -5t-33.5 -6t-35 -6t-18.5 -6q-4 -2 -9.5 -14t-12.5 -27.5t-13 -27.5t-8 -14.5t-15.5 -5.5t-31 -7t-33.5 -7t-27 -3q-6 0 -21.5 -1t-33.5 -2t-35 -1h-20zM377 811h63v20h-63v-20zM377 938h63v66h-63v-66z" />
<glyph unicode="i" d="M338 809q0 -10 2 -21.5t6 -20.5t14 -9h236v-457q0 -47 -19.5 -74.5t-50 -43t-68.5 -22.5t-75 -9q-2 -4 -3 -16.5t-1 -16.5q0 -6 1 -18.5t3 -14.5q2 -4 20.5 -10t22.5 -10q2 -4 9 -21.5t11 -21.5q8 -4 33 -13.5t31 -7.5l299 21q-2 29 11.5 38t31.5 9q6 0 17.5 -9.5 t21.5 -21.5t17 -23.5t7 -13.5q0 -55 -25.5 -80.5t-57 -40t-57 -28t-25.5 -43.5h294l21 43l129 30h-193q0 6 -3 19.5t-6 29t-7 28.5t-6 20q0 4 -8 12t-13 10q12 2 17.5 14.5t6.5 26.5t0 26.5t-1 16.5q0 10 -4 29.5t-9 40t-8.5 37t-1.5 22.5q-23 -23 -57 -22h-59h-76 q0 6 -2 21t-6 32.5t-13.5 33t-21.5 21.5q-17 127 -21 255q-2 68 -2 135q0 60 2 120q0 35 -29.5 50.5t-56.5 15.5q-23 0 -36 -7.5t-22 -15.5t-19.5 -15.5t-28.5 -7.5t-30.5 10.5t-25 24t-26.5 23.5t-35 10q-31 0 -43 -25.5t-12 -48.5v-16zM489 1133q0 -25 11.5 -47.5t30 -41 t41 -29.5t44.5 -11q51 0 70 25.5t19 70.5q0 59 -23 89t-86 30q-43 0 -75 -16.5t-32 -69.5zM827 877q0 -29 19.5 -47.5t46.5 -18.5q16 0 30.5 6t14.5 27q0 25 -18.5 50.5t-47.5 25.5t-37 -11.5t-8 -31.5zM872 557q18 -12 30.5 -34.5t20 -47t10.5 -48.5t5 -42v64q0 12 1 30.5 t-2 37t-12.5 30.5t-29.5 12q-4 0 -11.5 -1t-11.5 -1z" />
<glyph unicode="j" d="M215 -106q0 -10 1 -25.5t1 -18.5q0 -2 10.5 -10t10.5 -10q2 -4 5 -19.5t6 -34t6 -33.5t5 -19q2 -10 14.5 -18.5t26.5 -13.5t26.5 -8t16.5 -3q6 -2 24.5 -5.5t40 -6.5t41 -6t23.5 -5q4 0 21.5 -9t21.5 -11l8 -2q8 -1 13 -1q18 0 58 11.5t81 29t74.5 36t42.5 32.5q2 2 5 11 t6 20.5t6 20.5t5 11q0 2 6 8.5t14.5 13.5t14.5 13t6 8q29 39 30 81t13 89q2 4 11.5 11.5t11.5 11.5v31v32q-2 2 -12.5 10.5t-10.5 10.5q0 6 -2 21.5t-3 33t-2 32.5t-1 22h-98q0 -14 -3.5 -48t-6.5 -71t-6 -71t-5 -46q-2 -8 -5 -21.5t-6 -26.5t-6 -24.5t-5 -13.5 q-4 -4 -22.5 -19.5t-40 -34t-41 -33.5t-23.5 -20q-4 -2 -11.5 -9t-11.5 -11h-184q0 8 -4 31.5t-2 31.5q6 27 23.5 40.5t35.5 24.5t33.5 27.5t15.5 47.5q0 2 -1 6l-1 4q-4 4 -21.5 11t-21.5 9q-16 14 -23.5 31t-16.5 29t-23.5 20.5t-40.5 8.5q-43 0 -64.5 -11.5t-32 -32 t-16.5 -48t-18 -60.5q0 -2 -10.5 -10t-10.5 -10t-1 -18.5t-1 -24.5zM473 788q37 -15 82 -15h6q25 1 49 1t48 -1q47 -1 88.5 -13t68.5 -55v-87v-86q0 -4 -4 -16t-8 -25.5t-7 -26.5t-3 -15q2 -14 7 -37t12 -43.5t13 -35t11 -14.5h94q0 10 -3 43t-5 44q-2 2 -11.5 10t-11.5 10 v20v23q2 4 12.5 21.5t10.5 21.5t-9.5 12t-13.5 8v236l23 20q-4 6 -28 20.5t-53.5 29t-56 25.5t-34.5 11h-17q-14 0 -32.5 1.5t-36.5 1.5h-31h-25q-16 0 -34.5 -1.5t-34.5 -1.5h-23q-16 -12 -29.5 -32.5t-13.5 -42.5v-11zM664 1085q0 -10 15 -24t35.5 -27.5t40 -23t27.5 -9.5 q6 0 29 7.5t47.5 18.5t44 24.5t19.5 23.5v12q-2 2 -11.5 10.5t-11.5 10.5q-18 31 -27.5 51.5t-20.5 33.5t-29.5 19.5t-53.5 6.5q-18 0 -36.5 -13.5t-34 -34t-24.5 -43.5t-9 -43z" />
<glyph unicode="k" d="M190 1153q12 -4 33 -8t43.5 -11.5t42 -18.5t31.5 -28q2 -4 10 -21t10 -22q4 -4 22.5 -20t20.5 -20q0 -2 1.5 -9.5t1.5 -11.5q0 -14 -3.5 -26.5t-19.5 -18.5v-190h68q0 12 -7.5 26t-16.5 29.5t-16.5 33t-7.5 40.5q0 29 23 61.5t23 75.5q0 6 -1 18l-2 12q0 4 -10 11.5 t-10 11.5q-2 6 -6 20.5t-7 32t-6.5 32.5t-3.5 22h-213v-21zM191 63.5q4 -10.5 10 -10.5q8 0 10 10q4 10 -10 11q-14 0 -10 -10.5zM276 96l6 -20q5 -21 15 -33q2 -2 26.5 -10t36.5 -13h13q16 0 23.5 11.5t27.5 11.5h43q29 0 55.5 -3t47 -12.5t26.5 -27.5q4 4 11 20.5t9 22.5 l1 4t1 6t-1 5t-1 5q-25 10 -57.5 26.5t-62 38.5t-51 48.5t-21.5 59.5q0 16 14.5 28t32.5 27.5t35.5 39t25.5 64.5h191q0 8 3 27.5t6 41t7 41t6 27.5q2 12 16.5 22.5t32 22t34 21.5t24.5 20q2 4 9 22.5t11 21.5q2 2 12.5 4t20.5 5t20.5 6t12.5 5q6 4 21.5 25.5t19.5 27.5h172 q4 0 19.5 21.5t23.5 31.5v13v10q-2 4 -10 11t-13 9q-10 0 -32.5 1.5t-46.5 1.5h-50h-30q-41 0 -75 1h-15q-26 -1 -52 -3q-32 -4 -63 -13.5t-62 -30.5q-4 -4 -21 -11t-22 -9q31 -12 38.5 -30.5t7.5 -43.5q0 -6 -1.5 -18t-1.5 -14q-2 -4 -20 -21.5t-23 -22.5q-2 -2 -5 -12 t-6 -20.5t-5 -19.5t-4 -11q-4 -2 -16.5 -8t-26.5 -13.5t-27.5 -13.5t-15.5 -8q-4 -2 -12.5 -12.5t-19.5 -21.5l-20 -20t-12 -9q-2 -2 -22.5 -3.5t-30.5 -1.5q-6 0 -27.5 1t-25.5 4q-16 31 -20.5 53t-4.5 53q0 10 1 25.5t1 17.5q2 4 12.5 21.5t10.5 21.5q0 2 -9 9t-13.5 11.5 t-14.5 4.5q0 -16 -1 -56.5t-2 -84.5t-2 -85t-1 -55q0 -6 -4 -24.5t-7 -40t-7.5 -41t-4.5 -23.5v-49v-37q2 -4 21.5 -10t21.5 -10q8 -12 -3 -33l-11 -21h-113zM766 342q4 -10 10 -10q8 0 12 10q2 10 -12 10q-12 0 -10 -10zM809 20q0 -2 8 -9t14 -11h9q41 0 76.5 11.5 t76.5 11.5q6 0 16.5 1t22.5 0t21.5 -6.5t11.5 -17.5q6 0 18.5 6t25.5 12.5t25.5 13.5t16.5 11l2 8q2 8 2 12t-2 11.5t-2 11.5q-6 0 -21.5 3t-33 6t-31.5 6t-21 5q-23 8 -50 33t-55 51.5t-53.5 47t-43.5 20.5q-2 0 -6 -1l-5 -1zM1171 20q4 -10 11 -10q8 0 12 10q2 10 -12 11 q-12 0 -11 -11z" />
<glyph unicode="l" d="M276 1225q0 -27 12.5 -47.5t32 -35t43 -22.5t46.5 -10h22t40 1t40 1q20 0 25 -2q2 -2 9 -14.5t13 -27.5t12.5 -28.5t8.5 -15.5t11 -10t9 -10t1 -9.5t1 -11.5t-1 -13l-1 -9q0 -4 -10 -21.5t-10 -21.5q-14 -68 -18.5 -121.5t-4.5 -116.5q0 -43 11.5 -79t11.5 -77v-32 q0 -4 -4.5 -20.5t-7.5 -34t-7 -33t-4 -19.5v-25v-41v-40v-23q0 -10 -3 -34.5t-6 -51.5t-6 -51.5t-5 -32.5q-4 -2 -23 -2h-20q-29 0 -49.5 11t-47.5 11h-10q0 -4 -2 -19t-7 -32.5t-13.5 -33t-20.5 -21.5h18t25.5 -1t26.5 -1h16q27 0 49.5 4t43 8t42 8.5t47.5 4.5 q20 0 32.5 -4.5t23 -8.5t21.5 -8t30 -4q33 0 41 7t9 19.5t3 29t21 32.5q8 6 21 0t21.5 -12t10.5 -8v-70l12 1t21 3q20 6 40.5 22.5t37 38t29.5 45t20 44.5q-6 2 -20.5 5t-32 6t-33 6t-21.5 3q-2 0 -10 1t-12 1q-18 0 -34 -10t-30 -23.5t-29.5 -24t-33.5 -10.5q-2 0 -10.5 1 t-10.5 1q-10 39 -27.5 85.5t-17.5 87.5q0 31 12.5 55t12.5 59q0 29 -3.5 74t-19.5 65q-2 2 -11 5.5t-20.5 6.5t-20.5 6t-11 5q-2 0 -2 6v12q0 20 13 39t29.5 37.5t30 35.5t13.5 40v322q0 2 -2.5 10t-5.5 18t-7 20.5t-6 14.5q-2 2 -11 10t-9 10q-2 2 -5.5 15.5t-6.5 29 t-6 27.5t-5 15l-13 3q-14 3 -30 6t-33.5 6t-29.5 5l-5 1q-4 1 -6 1q-20 0 -34.5 -7t-27.5 -15.5t-26.5 -15.5t-27.5 -7h-23q-2 2 -10 12.5t-10 10.5q-6 0 -18.5 2t-27 3t-27.5 2t-18 1zM772 1559q4 0 19.5 -2.5t33 -7.5t32.5 -13t22 -20v43h-107zM874 469h74q0 53 -14 97 t-14 96q0 23 3 37t8 26t8 24.5t3 28.5v10q0 6 -3 18.5t-7 26t-7 25.5t-3 16q-4 -6 -12.5 -30.5t-10.5 -32.5q-2 -10 -5 -41t-6 -68.5t-6 -72.5t-3 -54q0 -6 -1 -21t-2.5 -31.5t-1.5 -33.5v-20zM899 1087l23 23v170l-23 -20v-173zM899 1450q4 -10 10 -10q9 0 13 10 q2 10 -13 10q-12 0 -10 -10zM1167 479q0 -12 11 -10q10 4 10 10q0 9 -10 13q-10 2 -11 -13z" />
<glyph unicode="m" d="M150 788q6 2 18 0t25.5 -5t25.5 -8t17 -7q2 -2 6 -10t7 -18.5t5 -20.5t2 -14v-322q0 -35 16.5 -57.5t51.5 -22.5q0 41 -13.5 75t-13.5 73q0 4 1 11l1 7q4 4 20.5 13.5t22.5 6.5q0 8 2 31t5 46.5t7 44t6 28.5q0 4 10.5 12t12.5 11q2 4 9 21t12 22q2 2 12 4t20.5 5t19.5 6 t11 5q4 2 11 21.5t12 21.5l7 1q7 1 11 1q20 0 44 -16.5t43 -41t31.5 -50t12.5 -44.5q0 -29 -12.5 -40t-12.5 -46q0 -23 4.5 -35t8.5 -22t8 -23.5t4 -35.5q0 -23 -4 -36t-8 -24.5t-8.5 -24t-4.5 -32.5q0 -35 12.5 -46t12.5 -40q0 -39 -21.5 -50t-47 -16.5t-47 -14.5 t-21.5 -46q0 -6 3 -22.5t5 -20.5q8 -2 32.5 -5t52.5 -6t51.5 -6t33.5 -6h35q39 0 68.5 7.5t29.5 54.5q0 25 -14.5 49.5t-31.5 49t-31.5 48t-14.5 47.5q0 23 12.5 30t12.5 24q0 14 -4.5 19t-8.5 11.5t-8 17.5t-4 38q0 10 1 30.5t1 22.5t10 10t13 10v21v33v35v20q2 12 21 36.5 t46 50.5t54.5 44.5t45.5 18.5q8 0 22.5 -3.5t29 -8.5t24.5 -13t10 -18v-492q-39 -29 -72.5 -69t-33.5 -93v-8q37 -25 90 -25h92h23q18 0 36.5 1t34.5 1h23q12 2 17.5 13.5t7.5 25t1 24.5t-1 15q0 16 -8.5 39t-21.5 46.5t-28.5 43t-30.5 29.5q-2 20 -5 71.5t-6 109t-6 109.5 t-3 72q-2 47 -5 82t-15.5 60.5t-38 47t-70.5 44.5q0 2 -4 2h-6q-18 0 -25.5 -12.5t-27.5 -12.5q-23 0 -29 12.5t-25 12.5q-10 0 -10 -2q-4 -2 -12 -9t-11 -12q-23 -2 -80 -5t-121.5 -6t-122.5 -6t-81 -3q-4 0 -21.5 -1t-25.5 -1t-23 1l-14 1q-4 0 -16.5 3t-26.5 7t-27.5 7 t-15.5 3q-12 0 -30.5 -2t-35 -5t-28.5 -7t-12 -6v-23zM166 131q0 -63 32.5 -82.5t72.5 -22.5t75 -3t39 -23q20 14 31.5 37.5t11.5 48.5q0 8 -12.5 32.5t-27.5 50.5t-29.5 45t-16.5 22q-2 0 -18.5 1t-24.5 1q-10 0 -25.5 -1t-17.5 -1q-4 -2 -11 -21.5t-9.5 -22t-12.5 -5.5 t-21.5 -6t-20.5 -6t-11 -5l-2 -16q-2 -15 -2 -23z" />
<glyph unicode="n" d="M127 747.5q4 -10.5 10 -10.5q8 1 10 11q4 10 -10 10t-10 -10.5zM147 33h193q-2 -16 5 -23.5t17.5 -9.5t20.5 -2h18t16.5 -1t22 1t19.5 7t10 15h340q6 -20 22.5 -21t30.5 -1q29 0 39 12.5t35 12.5q31 0 53.5 -12.5t54.5 -12.5q4 0 21.5 1t21.5 1q-8 -2 -23 7t-20 13 q-4 8 5.5 27t9.5 25q4 0 14 9t14.5 5t12.5 -20.5t8 -22.5q16 6 20.5 18.5t4.5 24.5q0 29 -23 37t-50.5 12t-52 13.5t-26.5 44.5v34v60v61v37q0 18 -3 63.5t-7 95.5t-7 96t-6 65q-27 20 -46 48.5t-39.5 56.5t-47 47.5t-67.5 19.5q-6 0 -18.5 -1.5t-14.5 -1.5q-4 0 -21.5 -10 t-21.5 -10q-10 -4 -38 -10t-58.5 -13.5t-58 -12.5l-38.5 -7q-6 -18 -17 -20.5t-23 -2.5q-27 0 -52.5 10.5t-51.5 24t-51.5 23.5t-53.5 10q0 -53 16 -88t34.5 -63.5t35 -58.5t16.5 -71q0 -14 -4 -23t-8 -16.5t-8.5 -17.5t-4.5 -26q0 -6 -1 -16.5t1 -21t7.5 -18.5t15.5 -10 v-170q-12 -6 -18.5 -16.5t-9.5 -21.5t-5 -23.5t-10 -24.5q-25 -37 -66 -64.5t-84 -42.5v-30zM424 375q0 10 1 29.5t1 21.5q0 4 10 11t10 12q2 8 6.5 29.5t7.5 45t6 45t3 29.5q8 0 32.5 8t30.5 12q4 2 10.5 21.5t10.5 22.5q8 6 32.5 17t52.5 22.5t52.5 18.5t34.5 7 q25 0 48.5 -14.5t42 -37t28.5 -48t10 -49.5q0 -4 -1 -12.5t-1 -10.5q0 -4 -3 -16.5t-7 -26.5t-7.5 -27.5t-3.5 -15.5l-1 -4t-1 -8q0 -2 1 -5l1 -3q2 -4 9.5 -12.5t11.5 -10.5v-213q-4 -2 -11 -9t-10 -11q-4 -4 -11 -22.5t-11 -20.5q-2 -2 -14.5 -5.5t-27.5 -6.5t-27.5 -6 t-14.5 -3q-2 -2 -8 -9t-13.5 -14.5l-13.5 -13.5t-8 -6q-2 -2 -22.5 -3t-30.5 -1q-29 0 -47.5 9t-34 21.5t-32.5 23t-46 14.5q-4 8 -10 32.5t-13.5 51t-12.5 51t-7 34.5q0 4 -1 25t-1 31z" />
<glyph unicode="o" horiz-adv-x="1337" d="M254 299q0 -2 2 -10t5 -18.5t7 -20.5t6 -14.5t11.5 -11.5t11.5 -11q0 -4 3 -16.5t6 -26.5t6 -26.5t5 -14.5q2 -4 20.5 -11t23 -11.5l16.5 -16.5t26.5 -27.5t26.5 -27.5t16 -15h15h26h27h16t21.5 -10t21.5 -10q2 0 22.5 -1t31.5 -1q27 0 61.5 5t65 19.5t53 37t22.5 57.5 h150q2 0 5 16.5t6 38t6 45t5 39.5v14v29v27v16t10.5 21.5t10.5 21.5q2 12 6 35.5t8 47.5t6 43t2 24q0 2 -7 11t-14 19t-14.5 19.5t-7.5 13.5q-4 8 -7 32.5t-7 51.5t-6 51.5t-2 34.5q-4 2 -21.5 10t-21.5 13q-2 2 -9 20t-12 20q-27 23 -71.5 45.5t-79.5 22.5q-25 0 -34 -7 t-15 -16.5t-13.5 -16.5t-27.5 -7q-31 0 -49.5 10t-29.5 23.5t-18.5 24t-13.5 10.5q-2 0 -6 -1l-4 -1l-21.5 -21.5t-21.5 -22.5q-4 -2 -16.5 -5t-26.5 -6t-27.5 -5t-15.5 -4q-18 -8 -47 -30.5t-56.5 -51.5t-47 -58.5t-19.5 -51.5v-363zM315 492q0 10 8.5 31.5t19.5 44 t22.5 43t17.5 30.5q2 2 7 15.5t12.5 27.5t13.5 26.5t8 14.5t15.5 5t27.5 6t26.5 6t16.5 5.5t21.5 21.5t21.5 22q2 0 16.5 1t24.5 1q25 0 41 -6.5t31.5 -13.5t33 -15t45.5 -10q-2 31 23 43t47 12q0 -20 -3 -32.5t-8 -21t-8 -17.5t-3 -23q14 0 23 4t17.5 8t20.5 8t33 4 q0 -4 -5 -24.5t-10 -26.5q-2 -2 -20 -9t-23 -11v-9q0 -25 7.5 -42t15.5 -33.5t15 -34t7 -39.5q0 -35 -6 -81t-21.5 -91t-40 -83t-61.5 -56q-2 -2 -12 -3h-20t-20.5 1.5t-12.5 1.5q-4 -2 -20.5 -11.5t-20.5 -11.5h-53h-56q2 29 -18 37t-49 19.5t-58.5 34t-44.5 81.5 q0 4 -3 19.5t-7 34t-7 33.5t-3 20q-2 2 -11.5 10t-11.5 10q0 2 -1 10.5t-1 12.5z" />
<glyph unicode="p" horiz-adv-x="1337" d="M168 -307l1 -13q1 -12 5 -20q2 -4 10.5 -12t10.5 -8h428l41 -43q4 2 14 11t20.5 19.5t18.5 19.5t12 13q0 2 1 5t1 7q0 2 -1 5.5t-1 5.5q-4 2 -21.5 9t-21.5 11t-11 21.5t-11 21.5l-4 1q-3 1 -7 1q-12 0 -16 -7t-7 -16.5t-9.5 -16.5t-20.5 -7q-25 0 -39 12.5t-25.5 28.5 t-20.5 35.5t-21 32.5q-14 14 -22.5 16t-13.5 3t-7 4t-2 20q0 16 7 22t16 9t17.5 9.5t8.5 22.5q0 18 -9.5 31.5t-37.5 11.5v98q6 0 21 2t32.5 3t32 2.5t20.5 1.5q4 0 11 -10.5t12 -10.5q2 -2 15 -5t26.5 -7t25.5 -7t17 -3q10 -2 34.5 -10.5t30.5 -10.5q4 -2 21.5 -12 t21.5 -10t20.5 10t20.5 12q2 0 15.5 3t27.5 6t26.5 6t16.5 6q4 4 21.5 22t21.5 21q18 10 36.5 12t36 5t31 12t23.5 34q2 4 5 19.5t6 34t6.5 33.5t5.5 19.5t20 11.5t23 11v10q0 18 -12.5 24.5t-12.5 29.5t12.5 31.5t12.5 31.5q0 29 -12.5 40t-12.5 46t12.5 46t12.5 40 q0 18 -13.5 43t-31 50.5t-30.5 51t-13 46.5q0 14 3 25t19 18q-86 63 -173 85.5t-191 22.5q-27 0 -49.5 -11t-45 -23.5t-46 -24t-50.5 -11.5q-25 0 -37 7.5t-19 16.5t-15.5 17.5t-22.5 8.5q-2 0 -14.5 -12.5t-26.5 -28t-25.5 -31.5t-11.5 -25q0 -18 5 -31.5t13.5 -25.5 t15.5 -26.5t11 -34.5v-72q0 -49 1 -104.5t1 -106.5v-70q0 -59 1 -127v-70v-71q-1 -72 -6 -143.5t-17 -132.5q-18 -10 -28.5 -34t-14.5 -40h-156zM172 823q0 -4 1 -7l1 -3q2 -4 9 -12t12 -10v63q-4 -2 -11.5 -9t-9.5 -11l-1 -4q-1 -5 -1 -7zM513 516q0 37 24 82q2 4 11 11 t9 12q2 2 5 15t6 27.5t6.5 26.5t5.5 14.5t18 5.5t34.5 6t34 6t19.5 5q4 4 9 15.5t8.5 25.5t4.5 26.5t-1 18.5h22h21q4 -2 11 -11t11 -11.5t22.5 -5.5t40 -6t41 -5t23.5 -4q31 -14 45 -36.5t24.5 -47t23 -49.5t36.5 -39q2 -10 5 -33.5t6 -50.5t6.5 -51.5t3.5 -34.5v-35 q0 -27 -11.5 -50.5t-28 -45t-35 -41.5t-32.5 -41q-4 -4 -11 -22.5t-11.5 -20.5t-19.5 -5t-33.5 -6t-34 -6t-19.5 -3q-4 -2 -11 -10.5t-9 -12.5h-150l-8 25q-8 24 -12 41q0 2 -3.5 15t-6.5 27.5t-7 26.5t-6 15q-4 4 -15.5 9t-24.5 8t-25.5 5t-18.5 0q0 6 -1 22.5t-1 34.5v35 v25z" />
<glyph unicode="q" d="M217 276q4 -2 11.5 -9t9.5 -11q2 -6 12 -30.5t20.5 -54.5t19.5 -54.5t13 -30.5q4 -10 11.5 -26.5t9.5 -16.5q2 -2 11 -5t20.5 -6t20.5 -6t11 -6q2 0 12.5 -7t20.5 -14t19.5 -13t13.5 -6q2 -2 26.5 -3.5t36.5 -1.5q6 0 30.5 1t33.5 4q-2 29 10 36t31 7q16 0 35.5 -10.5 t9.5 -32.5q14 14 25 18t22.5 3t25 -4t33.5 -3v-144q-12 -4 -48 -36.5t-75 -71.5t-69.5 -70.5t-30.5 -33.5h500q6 12 21 20t32.5 13t33 7.5t19.5 2.5v26q-4 0 -16.5 2t-25.5 4t-25.5 5t-18.5 6q-4 2 -10 20t-10 20q-14 14 -31 24.5t-31 21t-26.5 24.5t-18.5 39 q66 6 138.5 15.5t138.5 25.5q4 4 4 12q0 2 -15.5 14.5t-35 30t-37 36t-23.5 36.5q0 16 1 59t1 91q0 47 -1 90t-1 59q0 23 -2 73t-4 113.5t-4 133t-4 132t-4 112.5t-2 75q-10 4 -19.5 16.5t-3.5 26.5q-29 -23 -74 -31t-73 -12q4 -18 17 -37.5t29.5 -37t33 -32t26.5 -22.5v-29 q0 -20 1 -43.5t1 -46.5v-28q0 -33 1 -60t0 -52.5t-6 -51t-19 -52.5q0 -2 -10.5 -10t-10.5 -10q-2 -4 -6 -16.5t-7 -25.5t-6 -25.5t-3 -18.5q-4 10 -11.5 43t-9.5 43q-2 18 -5 67.5t-6 103.5t-6 103.5t-3 67.5q-12 35 -34 40t-50 5q-23 0 -37.5 -4t-26.5 -9t-26.5 -9.5 t-40.5 -4.5q-6 0 -31 1t-33 1q-6 20 -15.5 35t-18.5 27t-17 27.5t-12 40.5q-4 -10 -16.5 -35t-26.5 -31q-4 0 -16.5 -3t-27 -6t-26.5 -6t-14 -6q-2 0 -8.5 -6t-13.5 -14t-13 -14t-8 -9q-4 -2 -16.5 -8t-28 -13t-27.5 -13t-14 -9q-18 -18 -27.5 -48.5t-19 -62.5t-22.5 -60.5 t-38 -41.5v-299zM367 319v320q25 4 35 16.5t17 26.5t17 24.5t37 10.5v-185q4 -2 11.5 -9t9.5 -11q2 -6 12 -30.5t20.5 -54.5t19.5 -54.5t13 -30.5q4 -10 11.5 -26.5t9.5 -16.5q4 -4 17 4t17 8q0 23 -5 36t-13 24.5t-18.5 24t-18.5 30.5q-12 25 -17 45.5t-7.5 40.5t-1 44 t1.5 52v23q0 16 1 34.5t1 34.5v25q27 10 44 27.5t44 17.5q6 0 24.5 -23.5t41 -53t46 -58.5t35.5 -37v-23q0 -14 1 -31.5t1 -33.5v-21v-88t-24 -82q0 -2 -10.5 -10t-10.5 -10q-2 -4 -5 -16.5t-6 -26.5t-6 -27.5t-5 -15.5q-2 -4 -20.5 -11t-20.5 -9q-4 -4 -11.5 -22.5 t-11.5 -20.5q-2 -2 -15.5 -4.5t-27.5 -5.5t-26.5 -7t-14.5 -6q-4 -4 -9 -19.5t-9 -32t-5 -32.5t1 -23q-2 0 -10.5 -1t-10.5 -1q-25 0 -35 20.5t-12 47.5t0 51.5t4 32.5q-18 2 -36.5 20.5t-34 41t-25.5 47t-10 40.5zM623 981q2 -10 10 -10t10 10q4 10 -10 10t-10 -10z M686 1001q4 0 16.5 -1t16.5 -1q25 0 43 7.5t31 37.5q-4 2 -21.5 3.5t-21.5 1.5q-8 0 -24.5 -1t-18.5 -4q-6 -4 -14.5 -19t-6.5 -24zM940 256h88v-236l-86 -40h21q-2 12 -5.5 41.5t-6.5 63.5t-6 64.5t-3 43.5q0 6 -1 30.5t-1 32.5zM1262 512q4 -10 10 -10q8 0 12 10 q2 10 -12 10q-12 0 -10 -10z" />
<glyph unicode="r" d="M240 -6q23 0 35 4t23 10t23.5 10.5t32.5 4.5q43 0 75 -12.5t79 -12.5q51 0 74.5 11t34 25.5t15.5 29t21 22.5q6 2 20.5 6t32 7t33 5t21.5 2q-8 20 -28.5 27.5t-45 14t-51.5 18.5t-45 47q-4 12 -10.5 43t-13.5 64.5t-12 63.5l-7 42q0 2 -1 15.5t-1 19.5t1 17t1 14 q0 2 10 10t10 10q12 37 19.5 74t22 66.5t41 49t77.5 23.5v-213h33v207q4 0 11 4t9 2q6 -4 33 -25.5t55.5 -46t54 -42t29.5 -13.5l107 107l1 7t1 11q0 39 -10.5 59.5t-27.5 30.5t-41 18.5t-52 22.5q-2 0 -10.5 10t-10.5 10q-4 2 -16 5.5t-25.5 7.5t-26 7t-18.5 3l23 21 q-6 0 -21.5 3t-33 6t-32 6t-20.5 5q-4 2 -12 11t-10 12h-10h-11q16 -29 19.5 -48.5t3.5 -48.5q0 -4 -1 -16t-1 -17q-6 0 -21.5 -3t-32 -6t-32 -6t-21.5 -5q-2 -2 -10 -11t-10 -12q-2 0 -15.5 -1t-19.5 -1t-17.5 1t-13.5 1q-4 2 -20.5 21.5t-20.5 21.5h-12h-20h-21h-12 q-4 2 -20.5 11.5t-20.5 11.5h-23q-61 0 -87.5 -25.5t-26.5 -85.5q29 0 48 13.5t48 13.5q16 0 29.5 -12.5t23.5 -29.5t20.5 -35.5t20.5 -30.5v-386q6 2 27.5 -6t25.5 -14v-18v-29q0 -14 -4 -28.5t-12 -24t-25 -9.5q-23 0 -30 12.5t-25 12.5q-10 0 -10 -2q-4 0 -12.5 -9 t-10.5 -11q-31 -25 -52 -38.5t-35.5 -26.5t-20.5 -32.5t-6 -58.5zM633 289q6 -4 20.5 -12.5t30.5 -16.5t32.5 -15t22.5 -9q0 -2 9 -3h12q29 0 58.5 16.5t29.5 49.5q0 23 -17.5 33t-39.5 10h-11q-4 -6 -12 -26.5t-8 -26.5h-127zM717 20q4 -10 10 -10q8 0 12 10q2 10 -12 11 q-12 0 -10 -11zM1075 1030q0 -29 6 -48t17.5 -33.5t28 -26t38.5 -25.5q2 -2 10.5 -12.5t10.5 -10.5q27 0 47 22t20 44q0 12 -22.5 27.5t-53 30t-60.5 23.5t-42 9z" />
<glyph unicode="s" horiz-adv-x="1331" d="M322 590q0 -2 1 -6t1 -6q6 -12 15 -33t19.5 -40.5t18.5 -35.5t10 -18q10 -12 29.5 -21.5t41 -16.5t43 -14.5t36.5 -13.5q4 0 21 -10t22 -10h14h29h26h17q14 -2 37.5 -5.5t47 -6.5t42 -6t22.5 -3q16 -6 29.5 -24.5t25 -38t23.5 -34t29 -14.5q16 0 19 2.5t4 7.5t3 13t17 23 q2 4 21.5 11t21.5 11q6 23 -7.5 41t-29 33.5t-26.5 28t-3 24.5q-18 -16 -37.5 -19t-42.5 -3q-4 0 -15 1l-11 1q-4 4 -8.5 15t-7.5 25.5t-5 26.5t0 19q-76 -45 -160 -45q-6 0 -27.5 1t-25.5 1q-2 6 -33.5 39.5t-68.5 72.5t-69 71t-34 32t-6 -1l-4 -1q-2 -4 -10 -21.5 t-10 -21.5q-4 -2 -21.5 -10.5t-21.5 -10.5l-1 -4q-1 -4 -1 -6zM338 272q0 -35 6 -54t14.5 -37.5t16.5 -39t12 -53.5v-14v-21v-20v-10q4 -4 19.5 -12.5t23.5 -8.5q12 0 43 -1t64 -1q35 0 64.5 1t41.5 1q4 -6 20.5 -22.5t22.5 -20.5l4 -1t6 -1q4 0 7.5 1t5.5 1q2 2 10 11.5 t10 9.5h14h29h27h16q59 6 97 22t59.5 44t30 69t8.5 100h-56v-106h-182q-2 4 -10 11t-12 9q0 2 -11 2q-16 0 -23 -12.5t-30 -12.5q-16 0 -42 12.5t-53.5 30t-54 36t-42.5 30.5q-4 4 -20.5 22.5t-20.5 20.5q-6 2 -22.5 4t-35 4t-35 4t-22.5 2zM426 737h283q4 -23 20 -34 t35.5 -18t39 -16.5t32.5 -25.5q2 -4 10 -22.5t12 -20.5q14 -16 29.5 -19t34.5 -3q29 0 47 24.5t18 50.5q0 2 -1 7l-1 4q-2 2 -11 10t-9 10q-2 8 -6.5 29.5t-7.5 45t-6 45t-3 30.5q0 2 -4 2h-6h-6t-4 -2q-2 0 -10.5 -10.5t-12.5 -10.5q-2 0 -26.5 -1t-36.5 -1 q-49 0 -93.5 22.5t-76.5 65.5q2 -29 -11.5 -38t-31.5 -9t-24.5 7t-10.5 16.5t-12.5 17.5t-28.5 8q-29 0 -51.5 -15.5t-38 -40t-23.5 -53t-8 -55.5z" />
<glyph unicode="t" d="M315 791q0 -29 18.5 -41.5t46.5 -17.5t56.5 -9t50.5 -18q4 -4 21.5 -11.5t21.5 -9.5q0 -10 1 -43t1 -43q0 -39 -7 -68.5t-16 -55t-16.5 -53.5t-7.5 -61v-30q0 -14 3.5 -29.5t12.5 -27t29 -17.5q-5 -34 -5 -70q-1 -30 3 -62q8 -69 45 -124q-2 29 11.5 38t31.5 9 q20 0 28.5 -17.5t16 -39t19.5 -39t41 -17.5q27 0 54.5 10.5t52 27t47 35t40.5 36.5q4 4 11.5 21.5t9.5 21.5q4 4 22.5 11t20.5 9q20 27 21 64t1 66q0 8 1.5 29.5t-1.5 44t-10.5 40t-21.5 17.5q-23 0 -34 -20.5t-19.5 -46.5t-12.5 -51.5t-10 -33.5q-2 -4 -20.5 -11t-20.5 -11 q-4 -4 -12.5 -20.5t-10.5 -22.5h-127q-6 18 -19 33.5t-28.5 29.5t-27 30.5t-11.5 35.5v383q-14 4 -18 11t-3 15t4 16.5t3 18.5q4 0 17.5 2t17.5 2t16.5 -4t26.5 -8t26.5 -7t16.5 -3q2 0 13.5 3t24.5 6t26.5 7t21.5 6q6 2 23.5 11.5t37 21.5t34 23.5t14.5 17.5q0 2 -2 6l-1 4 q-4 6 -14 17.5t-20.5 21.5t-18.5 18.5t-10 8.5t-24.5 1t-34.5 1t-39 -1t-31 -1q-2 -2 -10 -11.5t-11 -11.5h-22q-10 0 -31.5 3t-21.5 20v262q-20 0 -43 -2t-42.5 -9.5t-33.5 -21.5t-21 -39q-2 -10 -5 -33.5t-6 -50.5t-6 -51.5t-3 -34.5q-16 -12 -42 -22.5t-50.5 -20.5 t-42 -25.5t-17.5 -37.5zM530 920v41h43v-41h-43zM596 106v44h41v-44h-41z" />
<glyph unicode="u" horiz-adv-x="1337" d="M147 768h21v23h-21v-23zM297 492q0 -8 8 -33t12 -31q4 -4 22.5 -11t20.5 -11q2 0 3.5 -8.5t1.5 -12.5q0 -18 -9.5 -31.5t-38.5 -11.5v-170q6 -4 22.5 -21.5t21 -21.5t11.5 -21.5t11 -21.5q2 -4 20.5 -11t20.5 -9q6 -4 22.5 -21.5t20.5 -21.5h256q10 37 38.5 41t57.5 4 q27 0 56.5 -14.5t59.5 -31t59.5 -31t58.5 -14.5q61 0 111 31t50 98q0 31 -17 46.5t-42 22.5t-50.5 10t-39.5 8q-4 2 -11 11t-12 11q-4 4 -25.5 11t-27.5 10v192q0 4 -12 11t-19 10q-4 2 -27.5 3t-33.5 1t-27.5 -1t-17.5 -3q-4 -2 -7 -17.5t-6 -34t-5.5 -35t-4.5 -20.5 q-12 -43 -39.5 -76t-64.5 -54.5t-80 -32.5t-86 -11q-59 0 -91 5t-46 23.5t-17.5 53.5t-3.5 92v27q0 18 1 34.5t1 28.5v17q0 2 2.5 10t5.5 18t7 19.5t6 15.5q2 4 12 21.5t10 21.5t-10 11t-12 12q-4 16 -5 44.5t-7 57.5t-19.5 50.5t-42.5 21.5q-4 0 -16 -2t-17 -2 q-2 -14 -6 -51.5t-7 -77t-5 -76.5t-2 -51zM317 831h23v23h-23v-23zM657 844q0 -33 16.5 -48.5t40 -23.5t52.5 -14t52.5 -18.5t39.5 -37t16 -67.5q0 -29 -4 -41t-10 -20.5t-10 -15.5t-4 -23h112q2 0 9.5 16t11.5 27v10q0 23 -11.5 41t-11.5 45q0 14 1 30.5t22 20.5l-43 129 q-6 0 -21.5 -1t-31.5 -1t-31.5 1t-22.5 1q-4 0 -23.5 3t-41 7t-39.5 7t-23 3q-4 0 -21 -8t-22 -12l-1 -3t-1 -7z" />
<glyph unicode="v" d="M59 864h150l43 -149h149q6 -29 24.5 -49.5t18.5 -47.5q0 -20 -12 -27t-12 -26q0 -2 1 -6l1 -4q2 -4 8 -16.5t13.5 -26.5t13.5 -26.5t8 -16.5q2 -6 8 -20.5t13.5 -32t13.5 -32.5t8 -22q-6 4 -22.5 3.5t-33 -4t-31.5 -8.5t-20 -11q-4 -2 -7 -22.5t-3 -30.5q0 -6 3 -26.5 t7 -26.5q16 -6 35 -16.5t29 -26.5q2 4 8 13t13.5 19.5t13.5 18.5t8 12t9 22.5t11 20.5t25 -5t25 -7q0 -25 -3.5 -50.5t-4.5 -51t3.5 -51t18.5 -48.5q2 -4 20.5 -11t22.5 -9q6 -4 22.5 -21.5t20.5 -21.5q2 -4 10 -21.5t10 -21.5q2 0 5.5 -1.5t7.5 -1.5l4 1q4 2 6 2 q43 78 73.5 155.5t53.5 163.5q4 10 12 34.5t10 28.5q0 4 10.5 11.5t10.5 11.5q2 4 5 19.5t6 34t6 33.5t3 20q2 2 8.5 15t14.5 27.5t14 26.5t6 17q2 4 5.5 19t6.5 33.5t6 34t5 19.5q2 2 14.5 8t26.5 13.5t27.5 12.5t15.5 7q4 4 11 22.5t11 20.5q2 4 20.5 11t22.5 12l1 3 q1 3 1 7q0 2 -1 6l-1 4q-8 10 -23.5 26.5t-19.5 16.5h-327q0 -55 19.5 -91t72.5 -58v-150q-16 -8 -35.5 -49t-42 -87t-46.5 -84t-46 -38q-4 0 -11.5 1t-9.5 1q-2 6 -8 21.5t-13 33t-13.5 31.5t-8.5 21q-2 2 -8 15t-14 27.5t-14.5 26.5t-6.5 17q-2 4 -5 22t-6 39.5t-6 41 t-5 23.5q0 4 -9.5 21.5t-11.5 22.5q0 2 -1 11t-1 13t1 12l1 7q2 2 15.5 8t28 12t27.5 12t15 11l4 15q3 15 6 35.5t6 42t5 33.5q2 4 2 21v23h-49q0 -31 26 -44q-40 3 -80 3t-80 -3q-80 -6 -159 -20q-6 -14 -10 -18.5t-9 -4.5q-4 0 -10 3.5t-14 3.5v16l84 43v21h-234zM262 662 q0 -8 3 -15.5t7 -5.5q10 4 11 21q-1 16 -11 22q-4 2 -7 -5t-3 -17zM668 745q0 -8 3 -15t7 -5q10 6 10 23q0 16 -10 20q-4 2 -7 -5t-3 -18zM934 725v43h43v-43h-43z" />
<glyph unicode="w" d="M190 809q2 -4 9.5 -11t11.5 -10q2 -2 15.5 -8t27.5 -13t26.5 -13t16.5 -8.5t11 -20.5t9 -23q2 0 5.5 -1t7.5 -1q8 0 21.5 18.5t25.5 42t21.5 46t9.5 31.5q-18 0 -28.5 -5.5t-20 -10.5t-18.5 -10t-24 -5q-14 0 -20 7t-9 16.5t-6 16.5t-16 7q-16 0 -39 -19.5t-37 -25.5z M317 469q0 -2 4.5 -11t7.5 -20.5t7 -21.5t4 -13q6 -31 13 -73.5t12.5 -87.5t9.5 -87t8 -71q2 -4 11 -13.5t19.5 -19.5t19.5 -19t13 -12l4 -1q5 -1 7 -1t6 1l4 1q2 2 10 9.5t12 11.5q6 8 16.5 22.5t21 27.5t18.5 23.5t8 12.5q18 43 20 91t5.5 94t18.5 87t62 70q2 0 9.5 1 t11.5 1t11 -1t11 -1q0 -8 3.5 -29.5t6.5 -45t6 -45t5 -30.5q2 -4 11 -11t11.5 -11t5.5 -15.5t6 -24.5t6 -25.5t3 -18.5v-12v-21v-20v-13q2 -4 21.5 -20t21.5 -21q2 -6 4 -20t4 -29.5t4 -30t2 -18.5q14 0 21.5 5t10.5 13.5t6 18.5t11 18q4 2 22.5 9.5t20.5 11.5 q18 31 28.5 83t20 106.5t22.5 97.5t36 55q2 51 7 101.5t17.5 97.5t37 88t67.5 75q-8 4 -32.5 11.5t-33.5 9.5q-4 2 -19 5t-33.5 6t-34 6t-19.5 5q-2 0 -10 10.5t-11 10.5q-2 0 -10 1t-12 1q-10 0 -25.5 -3t-15.5 -20q0 -31 13.5 -54t29.5 -44.5t29.5 -43t13.5 -50.5 q0 -23 -8 -51.5t-19.5 -60t-22.5 -63.5t-16 -61h-86l-7 35t-11 51.5t-13 51t-10 34.5q-2 2 -11 10.5t-11 10.5v20q0 100 86 129q-12 45 -29.5 69t-41 33t-56.5 9h-72h-20q-12 0 -24.5 -1t-23 -2t-12.5 -1l-30 -21v-428q-23 4 -38.5 -6t-24.5 -28.5t-12 -38t-1 -33.5h-41 q-2 0 -5 12.5t-7 29.5t-7.5 34.5t-3.5 29.5v31v55v56v30q0 6 -3 21.5t-6 32t-6 32t-5 21.5q-4 -18 -14.5 -28.5t-21.5 -16.5t-20.5 -12.5t-9.5 -16.5q0 -18 12.5 -25.5t12.5 -27.5q0 -23 -12.5 -38t-12.5 -38v-10z" />
<glyph unicode="x" d="M184 41q51 -16 87 -19.5t87 -3.5q29 0 42.5 4.5t20.5 8.5l14 8t26 4q12 0 20 -4t15.5 -9t15.5 -9.5t23 -4.5q0 6 -1.5 25.5t-2.5 40t-3 40t-2 25.5q-2 4 -12 11.5t-10 11.5q0 2 -1 15.5t-1 21.5q0 4 1 15l1 11l106 107q2 2 9.5 3t11.5 1q31 0 50 -19.5t36 -48.5 q2 -4 5 -16t6 -26.5t6 -27.5t5 -16q2 -4 20.5 -10t20.5 -10q2 -2 3 -14.5t1 -18.5t-1 -18.5t-3 -12.5q-2 -6 -18.5 -15t-22.5 -7q25 -18 58.5 -42t68.5 -24q4 0 12.5 1t10.5 1t11 4.5t19.5 7.5t19.5 6t13 3q8 2 29 2h45h45q23 0 31 -2q-29 31 -55.5 54.5t-53 44t-53.5 42 t-51 51.5q-4 2 -13.5 15.5t-19.5 28t-20.5 26.5t-12.5 16q-2 2 -20.5 10.5t-22.5 10.5q-25 27 -44 72t-19 80v18q4 4 22.5 11t20.5 11q2 2 4 14.5t5 28t6 27.5t5 14q8 10 26.5 31t38 40.5t38 36.5t26.5 21q6 4 24.5 8.5t38 7.5t38 5t26.5 0v90q-150 0 -297 -25q-2 4 -3 20.5 t-1 20.5q0 10 1 25.5t3 17.5q2 8 18.5 16.5t22.5 6.5h-147l41 -172l43 -21v-98q-29 0 -55.5 -3t-48 2t-34 21.5t-12.5 57.5v20q2 2 12.5 10.5t10.5 10.5q0 39 -16.5 57.5t-42 25.5t-55.5 6t-56 -1q-29 0 -62.5 -3t-65.5 -13.5t-60.5 -27.5t-47.5 -44q10 2 35 1t51.5 -4 t50 -8t33.5 -10q6 -2 23.5 -18t38 -36.5t39 -41t28.5 -33.5q4 -6 12.5 -29.5t8.5 -33.5q0 -31 -11.5 -46t-26.5 -26.5t-34.5 -23t-34.5 -31.5q4 0 11.5 -1t11.5 -1t11 1t9 1t10.5 10t10.5 10q10 2 36.5 -3t37.5 -5q0 -4 8 -17t4 -18q-2 -4 -21.5 -10t-21.5 -10t-5 -16.5 t-6.5 -26.5t-5.5 -27.5t-4 -15.5q-2 -4 -14 -16.5t-27.5 -26.5t-29 -26.5t-15.5 -14.5q-20 -27 -36.5 -48.5t-49.5 -37.5q-4 -2 -19.5 -8t-33.5 -13.5t-33.5 -13.5t-19.5 -8q-4 -4 -12.5 -20.5t-8.5 -22.5zM420 1171q4 -2 20.5 -9t20.5 -11l21.5 -21.5t32.5 -32t31.5 -31.5 t20.5 -22q2 6 2 27v27q0 29 -3 44t-12 22t-25.5 8.5t-45.5 1.5q-8 0 -32.5 -1.5t-30.5 -1.5zM516 500q0 14 10 10q10 -2 11 -10q0 -6 -10.5 -10.5t-10.5 10.5zM844 1081q0 -12 2 -16q23 16 39 37.5t24 48.5h-20q-29 0 -37 -14.5t-8 -38.5v-17zM846 596h20l-20 43v-43z M909 442q53 0 107 27q-29 10 -56.5 28.5t-50.5 34.5v-90zM1016 1171q4 -10 20 -10q19 0 23 10q2 4 -5 6.5t-18 2.5q-8 0 -15 -2t-5 -7z" />
<glyph unicode="y" d="M182 -102q0 -10 1 -26.5t1 -18.5q0 -4 10.5 -11.5t10.5 -11.5q2 -4 5 -16.5t6 -26.5t6 -26.5t5 -14.5q8 -14 33 -29.5t52.5 -28t54 -20.5t43.5 -8h10q16 6 44 19.5t54.5 27.5t47 25.5t24.5 13.5q2 2 9 14.5t13 26.5t12.5 26.5t8.5 16.5t11 11t9 12l1 4t1 6q0 18 -12 25.5 t-12 29.5q0 4 1 12l1 7q2 4 21.5 11t21.5 11t4 19.5t5 34t6 33.5t5 20q2 2 11.5 10t11.5 10q4 8 13 26.5t19.5 38t18.5 38t12 26.5q-29 -2 -38 11.5t-9 31.5q0 4 1 12.5t3 8.5q4 4 32 11t32 11q2 2 9 18.5t14.5 35t12.5 33.5t7 20q2 2 11 10t11 10q4 6 12.5 22.5t8.5 20.5 q2 12 6 43t7 64.5t5 63.5t2 42q6 2 22.5 10t20.5 13q4 2 11.5 20t11.5 23q16 12 41.5 22t50.5 22.5t42 30t17 41.5q0 4 -1 15.5t-1 15.5q-23 -20 -46 -21.5t-50 -1.5q-10 0 -30.5 1.5t-22.5 1.5q-4 0 -16.5 4t-26.5 7t-27.5 6t-15.5 3q-4 0 -21.5 -9t-21.5 -11 q-23 -10 -39 -14.5t-26.5 -12.5t-15.5 -23.5t-5 -46.5v-10q6 2 18 2t26.5 -3t26 -8t15.5 -11q0 -2 1 -18.5t1 -26.5q0 -27 -10.5 -90.5t-30 -129t-47 -116t-62.5 -50.5q-4 0 -13 1l-9 2q-4 2 -11.5 11t-11.5 11q-55 37 -73.5 64.5t-22.5 56.5t-7 65.5t-24 90.5q-2 2 -11 10 t-11 10q0 2 -1 15.5t-1 19.5q0 25 14 40t30.5 28.5t31 28.5t14.5 38q0 31 -21.5 44t-49 17.5t-57.5 3t-44 1.5h-33h-33q-6 0 -24.5 -3.5t-39 -6.5t-39 -6t-24.5 -5q-2 -4 -3 -16.5t-1 -16.5q0 -29 19.5 -41t45 -20t51.5 -19.5t38 -35.5q2 -4 4 -16.5t5 -27t6 -27.5t5 -15 q4 -4 22.5 -21.5t20.5 -21.5q25 -37 40.5 -85.5t31.5 -95.5t38.5 -90t59.5 -71v-234q-14 -6 -21 -21.5t-10.5 -33t-5.5 -31.5t-4 -20q-4 -4 -21.5 -11.5t-21.5 -11.5t-21.5 -22.5t-21.5 -20.5q-10 -4 -38.5 5t-38.5 9q0 8 -5.5 25.5t-3.5 26.5q2 2 11.5 10t11.5 10 q0 2 1 15.5t1 19.5q0 41 -28.5 68.5t-69.5 27.5q-6 0 -18.5 -1t-14.5 -1q-4 -2 -11.5 -21.5t-9.5 -21.5q-16 -16 -31.5 -23.5t-27.5 -16.5t-20.5 -23t-8.5 -41z" />
<glyph unicode="z" d="M326 86q0 -10 2 -26.5t4 -18.5l63 -21h406q23 0 36 7.5t22 15.5t19.5 15.5t28.5 7.5q23 0 29 -12.5t25 -12.5h10q16 8 40.5 24.5t24.5 18.5v256q-8 0 -27.5 -8t-40 -18.5t-38 -20.5t-23.5 -17q-2 -2 -5 -15t-5 -27.5t-5 -27.5t-5 -16q-4 -2 -19.5 -5t-34 -6t-35 -5 t-18.5 -4q-6 -4 -15 -20.5t-7 -22.5h-150q-2 0 -9 24.5l-11 38.5q0 2 -1 10.5t-1 12.5q0 35 36.5 81t84 94t93.5 91t64 74q2 2 5 15.5t6.5 27.5t6.5 26.5t5 16.5t20.5 11t22.5 9q16 16 26.5 36t21.5 40.5t24.5 39t33.5 34.5q-18 25 -50 37t-65.5 18t-66.5 7t-53 1 q-6 0 -19.5 -2t-28 -5t-25.5 -7t-13 -6t-5 -14.5t-6.5 -27.5t-5.5 -28.5t-4 -15.5t-11 -10t-9 -11q-2 -4 -4 -9t-2 -7q80 0 153 -27q2 -2 4 -10t2 -10q0 -18 -5 -22.5t-14 -5.5t-22.5 -2t-27.5 -13q-8 -6 -26.5 -23.5t-38 -38t-38 -40t-24.5 -27.5q-2 -2 -8.5 -14.5 t-13.5 -26.5t-13 -27.5t-8 -15.5q-51 -68 -107.5 -119t-105.5 -117q-2 -2 -8.5 -8t-14.5 -13t-14 -13t-6 -9q-2 -4 -4 -27.5t-2 -33.5zM329 638q-1 -26 2 -50.5t14 -42t36 -17.5q16 0 33.5 2t23.5 23q2 10 9.5 34.5t14.5 51.5t12 51.5t7 34.5q27 -10 50.5 -3t42 25.5t33 41 t24.5 42.5l1 5q1 4 1 6q0 14 -12.5 20t-29 9t-34.5 3h-27q-25 0 -43 -21.5t-37.5 -46t-47.5 -44.5q-25 -18 -62 -17h-8q0 -8 -1 -32.5t-1 -30.5q0 -18 -1 -44zM408 842q0 -14 10 -11q10 2 10 9q0 8 -10 12t-10 -10z" />
<glyph unicode="|" horiz-adv-x="212" d="M-2 -137q0 -16 3 -56t8 -82t13.5 -75t20.5 -33h107q-6 0 -22.5 8t-21 12.5t4 18.5t8.5 18q16 0 28.5 6.5t22.5 -20.5q0 6 7 18.5t15.5 27.5t14.5 28.5t6 19.5v13q0 2 -4 15t-7 26.5t-7.5 25.5t-4.5 16v23v41v41v22t-10 21.5t-10 21.5l-1 10q-1 9 -1 13q0 20 12.5 27.5 t12.5 23.5q0 14 -4.5 19.5t-8.5 11.5t-8 16.5t-4 34.5q0 53 12.5 102.5t12.5 102.5q0 4 -1 12l-2 8q0 4 -3 20.5t-7 34t-7 33t-3 19.5v27q0 27 -1 60.5t-1 68.5v55q0 115 12.5 221.5t12.5 218.5v23v30q0 16 -1 28l-2 11q0 4 -10 21.5t-10 21.5v19q0 49 11.5 97t11.5 97 q0 25 -2.5 47.5t-10.5 40t-25.5 28.5t-48.5 11q-4 0 -12 -9t-10 -13v-13v-20v-20v-11q0 -8 -3 -27.5l-6 -39t-6 -37t-6 -23.5q0 -4 -10 -21.5t-10 -21.5q0 -6 3 -27.5t6 -46t7 -46t4 -27.5v-23q0 -39 -5 -70.5t-9 -63.5t-7 -65.5t1 -74.5l-23 -23v-340l-20 -41v-286h84v-64 h-84q2 -8 5 -27.5t6 -42t6 -42t3 -27.5l2 -9q1 -9 1 -14q0 -41 -12.5 -76.5t-12.5 -78.5zM43 381v43h41v-43h-41z" />
<glyph unicode="&#xa8;" d="M432 1223q0 -35 21.5 -55.5t56.5 -20.5q6 0 17.5 2t13.5 2q2 2 11 10t19.5 18.5l19.5 19.5t13 15l1 4q1 5 1 7q0 35 -30.5 66.5t-65.5 31.5q-41 0 -59.5 -29.5t-18.5 -70.5zM731 1239q0 -37 19.5 -63.5t54.5 -26.5q41 0 70.5 18.5t29.5 59.5q0 35 -17.5 66.5t-58.5 31.5 q-37 0 -67.5 -24.5t-30.5 -61.5z" />
<glyph unicode="&#xad;" d="M305 631q0 -35 16.5 -50.5t28.5 -48.5q6 0 22.5 9.5t20.5 13.5t10.5 31.5t10.5 31.5q4 2 15 -1t23.5 -7t23.5 -9t16 -5q0 -14 -3.5 -21.5t-6.5 -11.5l-6 -8t-3 -12q20 0 72.5 -1t111 -3t110.5 -3t73 -4q4 0 16 -3t26.5 -7t27 -7t16.5 -3q23 0 56.5 4t64 16.5t52 32 t21.5 49.5q0 29 -7 45.5t-20.5 27.5t-34 19.5t-46.5 18.5h-43t-65 1t-64 1h-43h-56q-35 0 -68.5 -1t-60.5 -1h-28q-6 0 -27.5 -3t-46.5 -7t-47.5 -7t-28.5 -3h-16h-27h-26h-15q-33 -10 -39 -30t-6 -44zM969 575v43h43v-43h-43z" />
<glyph unicode="&#xc4;" d="M74 43h20v23zM137 23l64 -43q2 0 14 -1.5t29 -1.5q18 0 34.5 -1t26.5 -1q14 0 38 1t48 1q25 0 43.5 1.5t22.5 1.5q10 0 27.5 3t34 6t29.5 6t15 5t6 14.5t7.5 27.5t5.5 27.5t4 16.5q0 2 10 10t10 10q4 8 5 20l1 13h-147l-6 21q-6 20 -2 33q2 4 11 11t11 11q4 4 11.5 20.5 t9.5 20.5q12 2 42.5 5t64.5 6t63.5 6t42.5 6q4 0 18 -1.5t19 -1.5q0 -6 1 -24.5t3 -37.5t2 -38v-26q-4 -31 -10.5 -45.5t-16.5 -24.5t-25.5 -21.5t-33.5 -35.5v-11v-12q27 -8 49 -13t42.5 -7.5t41.5 -2.5h47q90 0 177 15.5t177 7.5q0 10 7.5 28.5t15.5 37t14 34t6 19.5v10 q-2 2 -12 5t-20.5 6t-20.5 6.5t-12 3.5q-12 6 -34 16t-42.5 20.5t-35.5 18.5t-15 10q-4 2 -10.5 21.5t-13.5 41t-12 41t-7 23.5t-7.5 16.5t-12.5 25.5t-14 25.5t-9 18.5q0 2 -10.5 10t-10.5 11q-2 4 -5 19t-6 33.5t-6 34t-5 19.5q0 4 -8.5 20.5t-12.5 22.5q-2 2 -11 10 t-9 10q-2 6 -4 21.5t-3 33t-2.5 32t-1.5 20.5h-32q-2 -6 -8.5 -21.5t-12.5 -32t-13 -31.5t-9 -22q-2 -2 -11.5 -10t-9.5 -10q-4 -23 -3 -41t2 -35.5t-3 -35t-18 -37.5q-2 -4 -20.5 -11.5t-22.5 -9.5q-14 -14 -16.5 -23.5t-3.5 -14.5t-4 -7t-19 -2q-4 0 -11.5 1t-9.5 3 q-4 2 -10 21.5t-10 21.5q-6 2 -19.5 6t-29 7t-28.5 5.5t-20 2.5v227q-39 0 -62.5 -26.5t-37.5 -62.5t-22.5 -75t-16.5 -63q0 -2 -10 -10.5t-10 -10.5q-2 -6 -5 -27.5t-6.5 -47t-6.5 -47t-5 -27.5q-10 -33 -27.5 -51.5t-39 -32t-44 -27.5t-38.5 -39q-2 -4 -8.5 -16.5 t-12.5 -26.5t-12 -27.5t-8 -15.5q-4 -4 -11.5 -11t-11.5 -9zM414 1501q0 -35 20.5 -55.5t54.5 -20.5q6 0 18.5 1t14.5 3.5t10.5 10.5t18.5 18t20.5 19.5t14.5 15.5v10q0 37 -30 68t-64 31q-43 0 -60.5 -30t-17.5 -71zM500 811h22v20h-22v-20zM535 897h28v127q-4 0 -12 -8 t-8 -12q0 -6 -2 -21.5t-3 -33t-2 -32t-1 -20.5zM559 1147q0 -10 5 -24.5t12.5 -30t15.5 -28.5t14 -17q2 -2 12.5 -5.5t20.5 -6.5t19.5 -6t11.5 -5q2 0 10 -24.5t12 -38.5q0 -4 3 -16.5t6.5 -27t6.5 -27.5t5 -16q4 -4 22.5 -10t20.5 -10q2 -6 6 -21.5t8 -32t6 -31.5t2 -21 q0 -2 4 -3.5t6 -1.5t6.5 1t4.5 4q0 2 3 10t7 18t7 19.5t3 15.5l1 4q1 4 1 6t-1 6l-1 4q-2 10 -9 36t-11 30q-2 2 -11.5 10t-9.5 11q-2 2 -5 15t-6 27.5t-6 26.5t-5 16.5t-20.5 10.5t-22.5 10q-2 4 -9.5 21.5t-11.5 21.5t-21.5 11t-21.5 9q-4 4 -10 22.5t-10 20.5 q-8 4 -35 10.5t-35 6.5zM711 1518q0 -37 20.5 -64t54.5 -27q41 0 71 18.5t30 59.5q0 35 -18.5 67t-59.5 32q-35 0 -66.5 -24.5t-31.5 -61.5zM819 150v106h43v-106h-43z" />
<glyph unicode="&#xc5;" d="M43 43h20v23zM106 23l64 -43q2 0 14.5 -1.5t28.5 -1.5q18 0 34.5 -1t26.5 -1q14 0 38 1t48 1q25 0 43.5 1.5t22.5 1.5q10 0 27.5 3t34 6t29.5 6t15.5 5t6.5 14.5t7 27.5t5 27.5t4 16.5q0 2 10 10t10 10q4 8 5 20l2 13h-148l-6 21q-6 20 -2 33q2 4 11 11t12 11 q4 4 11 20.5t9 20.5q12 2 43 5t64.5 6t63.5 6t42 6q4 0 18.5 -1.5t18.5 -1.5q0 -6 1 -24.5t3 -37.5t2 -38v-26q-4 -31 -10 -45.5t-16.5 -24.5t-26 -21.5t-33.5 -35.5v-11v-12q27 -8 49.5 -13t43 -7.5t40.5 -2.5h47q90 0 177 15.5t178 7.5q0 10 7 28.5t15 37t14.5 34 t6.5 19.5v10q-2 2 -12.5 5t-20.5 6t-20.5 6.5t-12.5 3.5q-12 6 -33.5 16t-42 20.5t-36 18.5t-15.5 10q-4 2 -10 21.5t-13.5 41t-12.5 41t-7 23.5t-7 16.5t-12.5 25.5t-14.5 25.5t-9 18.5q0 2 -10 10t-10 11q-2 4 -5.5 19t-6.5 33.5t-6 34t-5 19.5q0 4 -8 20.5t-13 22.5 q-2 2 -11 10t-9 10q-2 6 -4 21.5t-3 33t-2 32t-1 20.5h-33q-2 -6 -8 -21.5t-12.5 -32t-13.5 -31.5t-9 -22q-2 -2 -11 -10t-9 -10q-4 -23 -3.5 -41t2 -35.5t-3 -35t-18.5 -37.5q-2 -4 -20.5 -11.5t-22.5 -9.5q-14 -14 -16 -23.5t-3 -14.5t-4.5 -7t-19.5 -2q-4 0 -11 1t-10 3 q-4 2 -10 21.5t-10 21.5q-6 2 -19.5 6t-28.5 7t-28.5 5.5t-19.5 2.5v227q-39 0 -62.5 -26.5t-38 -62.5t-22.5 -75t-17 -63q0 -2 -10 -10.5t-10 -10.5q-2 -6 -5 -27.5t-6 -47t-6 -47t-6 -27.5q-10 -33 -27.5 -51.5t-39 -32t-44 -27.5t-38.5 -39q-2 -4 -8 -16.5t-12.5 -26.5 t-12.5 -27.5t-8 -15.5q-4 -4 -11.5 -11t-11.5 -9zM467 1503q0 -6 1 -26.5t1 -26.5q2 63 30.5 96t72.5 46.5t96.5 12.5t99.5 -6l-20 64h-216q-20 0 -32.5 -20.5t-19.5 -47t-10 -53t-3 -39.5zM469 811h23v20h-23v-20zM481 1397q0 -12 11 -11q10 4 10 11q0 8 -10 12 q-10 2 -11 -12zM504 897h28v127q-4 0 -12 -8t-8 -12q0 -6 -2 -21.5t-3 -33t-2 -32t-1 -20.5zM512 1366q4 -10 20 -10q19 0 23 10q2 4 -5 6t-18 2q-8 0 -15 -2t-5 -6zM528 1147q0 -10 5.5 -24.5t12.5 -30t15 -28.5t14 -17q2 -2 12.5 -5.5t20.5 -6.5t19.5 -6t11.5 -5 q2 0 10 -24.5t13 -38.5q0 -4 3 -16.5t6 -27t6 -27.5t5 -16q4 -4 22.5 -10t20.5 -10q2 -6 6 -21.5t8 -32t6.5 -31.5t2.5 -21q0 -2 4 -3.5t6 -1.5t6 1t4 4q0 2 3 10t7 18t7 19.5t3 15.5l2 4q1 4 1 6t-1 6l-2 4q-2 10 -9 36t-11 30q-2 2 -11 10t-9 11q-2 2 -5.5 15t-6.5 27.5 t-6 26.5t-5 16.5t-20.5 10.5t-22.5 10q-2 4 -9 21.5t-11.5 21.5t-21.5 11t-22 9q-4 4 -10 22.5t-10 20.5q-8 4 -35 10.5t-35 6.5zM598 1343q2 -10 10 -10t10 10q4 10 -10 11q-14 0 -10 -11zM788 150v106h43v-106h-43zM788 1409q18 33 23.5 73t5.5 74h-29v-147z" />
<glyph unicode="&#xd6;" horiz-adv-x="1327" d="M248 428q0 -82 40 -158.5t87 -140.5l12 -12t10 -8q4 0 16.5 2t27 5t25.5 7t15 6q2 2 2 6v4q0 10 -2 13q-4 12 -11 36.5t-9 26.5t-15.5 5t-28 5t-27.5 5t-15 5.5t-5 18.5t-6.5 34.5t-6.5 34t-3 19.5q-8 29 -26.5 44t-18.5 42q0 20 12.5 27.5t12.5 25.5q0 6 -7.5 18.5 t-16.5 26t-18 23.5t-11 10q-8 0 -13 -4q-2 -6 -6 -24.5t-7 -38t-5 -38t-2 -26.5zM248 700q20 0 33.5 13.5t13.5 34.5h-47v-48zM260 809q4 0 17.5 3t29 6t29.5 7t18 9q4 2 11.5 26.5t9.5 36.5q2 10 4 42t2 42h-47q0 -6 -2 -21.5t-6 -32t-8.5 -31.5t-6.5 -22q-2 -4 -20.5 -10 t-22.5 -10q-2 -4 -5 -22.5t-3 -22.5zM438 1501q0 -35 20.5 -55.5t55.5 -20.5q6 0 18.5 1t14.5 3.5t10 10.5t18.5 18t20.5 19.5t14 15.5v10q0 35 -29.5 67t-64.5 32q-43 0 -60.5 -30t-17.5 -71zM440 1067h21v20h-21v-20zM481 45q0 -16 34 -32.5t78 -29t85 -19.5t57 -7 q88 0 139.5 34t84 73.5t53 73.5t45.5 34v107l43 20l3 35t7 82t7 98t5 84v80q0 61 -12 125.5t-53 114.5q-2 4 -20.5 11t-20.5 11q-10 14 -13.5 35.5t-8.5 43t-14 40t-30 28.5q-2 2 -11 5.5t-20.5 6.5t-20.5 6t-11 5q-4 2 -11.5 20.5t-9.5 22.5q-2 0 -5 1t-7 1q-2 0 -5 -1 t-5 -1q-2 -4 -9.5 -28.5t-11.5 -37.5l-1 -4q-1 -4 -1 -8q0 -2 1 -5l1 -3q2 -2 12.5 -5t20.5 -6t19.5 -5t11.5 -4q4 -4 11 -21.5t11 -21.5q53 -84 71.5 -166t35.5 -176q2 -16 9 -30t14.5 -26t13.5 -24.5t6 -26.5t-7.5 -22.5t-15.5 -15.5t-15 -15t-7 -21q0 -12 7 -16t16.5 -8 t16.5 -10.5t7 -20.5q0 -18 -12.5 -24.5t-27.5 -11.5t-29.5 -14t-18.5 -34q-2 -10 -6 -33.5t-7.5 -50.5t-6.5 -51.5t-3 -34.5q-55 8 -88 -4t-58.5 -30.5t-54 -35t-75.5 -16.5h-21q-4 2 -11 12.5t-11 10.5q-2 0 -26.5 1t-37.5 1q-8 0 -31.5 -1t-31.5 -1q-4 -6 -13.5 -31 t-9.5 -33zM547 1130h106v23h-106v-23zM717 1174q0 -23 14 -37.5t35 -14.5q0 16 -3 41t-26 31q-4 0 -12 -8t-8 -12zM735 1518q0 -37 20.5 -64t55.5 -27q41 0 70.5 18.5t29.5 59.5q0 35 -18.5 67t-58.5 32q-35 0 -67 -24.5t-32 -61.5z" />
<glyph unicode="&#xe4;" d="M162 266q0 -14 5 -48t14 -69.5t20.5 -66.5t25.5 -39q6 -4 21.5 -6t33 -5t32 -10.5t20.5 -21.5h299q10 6 34.5 17.5t53.5 22.5t54.5 18.5t37.5 7.5q51 0 95 -12.5t98 -12.5h18q14 0 29.5 1t27.5 1h21q2 6 5 21.5t6 32t6 31.5t5 22v10v10q-6 0 -21.5 3t-32.5 6t-32.5 7 t-21.5 7q-14 4 -18.5 10t-3.5 13t4 15.5t3 18.5q61 0 113.5 -11.5t116.5 -11.5v49q-6 0 -18.5 3.5t-25.5 6.5t-25.5 7t-16.5 6q-14 6 -21.5 21.5t-11.5 32t-6 31.5t-4 22q0 2 -10.5 10t-10.5 10q-2 2 -2 27v36q0 2 -1 15.5t0 29t6.5 27.5t17.5 14q-12 8 -17.5 19.5t-10.5 22 t-12 17.5t-22 7h-14q-8 0 -10 -2q-2 0 -10.5 -10.5t-10.5 -10.5q-12 -4 -33 2l-20 7v118q-25 6 -46.5 19.5t-41.5 27t-43 24.5t-49 15h-17h-26h-29h-14q-14 4 -27.5 32t-15.5 32v12v11q2 4 9 11t11 9q-2 0 -9 1t-11 1q-45 0 -64.5 -13.5t-30 -30.5t-19.5 -30.5t-36 -13.5 q-2 0 -10 10t-10 12h-10q-23 0 -53.5 -20t-59.5 -48t-49.5 -59.5t-20.5 -52.5v-12q4 -23 5 -45.5t7.5 -40.5t19.5 -30.5t42 -12.5q47 0 72.5 14.5t40 36t21.5 47t18.5 47t29 36t54.5 14.5h18t14 -3q2 0 11.5 -3t20.5 -6t20.5 -7t11.5 -4q4 0 19.5 -3t34 -6t33.5 -6t19 -5 q2 -2 5.5 -15.5t5.5 -28t5 -27.5t5 -16q4 -4 16 -8t25.5 -8t26 -5t18.5 1v-43q-10 -2 -43 -10t-43 -13q-2 0 -10.5 -10t-10.5 -10h-12h-20h-21h-10q-4 -2 -21.5 -11t-21.5 -12q-2 0 -15.5 -1t-19.5 -1t-17 1l-12 1q-6 4 -15 20.5t-7 22.5q-16 -14 -30.5 -18t-35.5 -4 q-16 0 -21 7t-9.5 16.5t-10.5 16.5t-20 7q-4 0 -12.5 -1t-10.5 -1q-4 -4 -10 -12t-12 -18.5t-12.5 -20.5t-6.5 -15l-172 -40q-2 -6 -8 -20.5t-14 -32t-18.5 -33t-22.5 -21.5q0 -10 -1 -38t-1 -38zM334 233v23q2 6 8 21.5t12 33t12.5 31.5t10.5 20q18 -10 24.5 -27.5 t10.5 -35.5t8 -36.5t20 -26.5q20 -12 41 -16.5t36 -8.5t24.5 -17.5t9.5 -43.5h-174q-10 25 -26.5 41.5t-16.5 41.5zM375 1116q0 -35 21.5 -54.5t56.5 -19.5q6 0 18 1l12 1q2 2 11.5 10.5t19.5 18.5l19.5 19.5t13.5 15.5q2 2 2 10q0 37 -31 69t-65 32q-41 0 -59.5 -31 t-18.5 -72zM461 342q0 2 1 9t1 11q6 0 24.5 3.5t39 6.5t39 6t24.5 5q23 8 47.5 26.5t60.5 18.5q14 0 36 -9t43.5 -22.5t36.5 -31t15 -33.5q0 -20 -7 -29.5t-17 -14.5t-22.5 -11.5t-20.5 -20.5h-256q-10 25 -27.5 42t-17.5 44zM547 575h172v25q-43 0 -87 -7t-85 -18z M612 1253q27 0 41 27q-2 4 -9 11t-11 9l-4 2q-4 1 -6 1t-5 -1l-6 -2v-47zM674 1133q0 -37 19.5 -64t56.5 -27q39 0 68.5 18.5t29.5 59.5q0 37 -17.5 68t-58.5 31q-35 0 -66.5 -23.5t-31.5 -62.5zM889 918q8 -10 33 -11q24 1 30 11q4 4 -7 6t-25 2q-12 0 -23.5 -2t-7.5 -6z M905 1257h53q1 29 -26 43q-27 -14 -27 -43zM944 578h14q12 0 17 -3q14 -4 39 -12l24 -8v-193h-86q23 4 24 28t1 36q0 27 -5 41t-11.5 28.5t-11.5 32t-5 50.5zM1016 811h43v41h-43v-41z" />
<glyph unicode="&#xe5;" horiz-adv-x="1331" d="M188 266q0 -14 5.5 -48t14.5 -69.5t20.5 -66.5t25.5 -39q6 -4 21.5 -6t33 -5t31.5 -10.5t20 -21.5h299q10 6 35 17.5t53.5 22.5t54 18.5t38.5 7.5q51 0 95 -12.5t97 -12.5h19q14 0 29.5 1t27.5 1h20q2 6 5.5 21.5t6.5 32t6 31.5t5 22v10v10q-6 0 -21.5 3t-33 6t-31.5 7 t-21 7q-4 0 -12 8t-10 12q0 2 -3 15.5t-7 27.5t-7.5 26.5t-3.5 16.5q-2 2 -11 10t-11 10v23q0 29 12.5 40t12.5 46v16q0 12 -2.5 23.5t-10.5 18t-22 3.5v256q-25 6 -46.5 19.5t-42 27t-43 24.5t-49.5 15h-16h-27h-28h-15q-4 2 -21 21.5t-22 21.5l-12 2q-12 1 -18 1 q-16 0 -25.5 -4.5t-17.5 -8.5t-17.5 -8t-25.5 -4q-14 0 -21.5 3t-13.5 8t-12.5 8t-16.5 3q-23 0 -53.5 -20t-59 -48t-49 -59.5t-20.5 -52.5v-12q4 -23 5 -45.5t7 -40.5t19.5 -30.5t42.5 -12.5q47 0 72.5 14.5t40 36t21.5 47t18.5 47t29.5 36t53 14.5h19q12 0 14 -3 q2 0 11 -3t20.5 -6t20.5 -7t11 -4q4 0 19.5 -3t34 -6t34 -6t19.5 -5q2 -2 5 -15.5t5 -28t5 -27.5t5 -16q4 -4 16.5 -8t26 -8t25.5 -5t18 1v-43q-10 -2 -42.5 -10t-43.5 -13q-2 0 -10 -10t-10 -10h-12h-21h-20h-11q-4 -2 -21 -11t-22 -12q-2 0 -15 -1t-19 -1t-18 1l-11 1 q-6 4 -15.5 20.5t-7.5 22.5q-4 -4 -20 -11t-23 -9q-18 -4 -63 -13.5t-95 -19.5t-96.5 -19t-64.5 -11q-2 -6 -8 -20.5t-14.5 -32t-18.5 -33t-23 -21.5q0 -10 -1 -38t-1 -38zM360 233v23q4 12 10.5 32.5t13.5 39t12 32t7 13.5h213q6 35 43 45t66 10q4 0 11 -1t9 -1t10.5 -9 t10.5 -11.5t15.5 -8.5t28.5 -12t27.5 -13t14.5 -9.5t4 -23t2 -30.5t-2 -30.5t-4 -22.5q-2 -4 -14.5 -7t-27.5 -6t-28.5 -5t-15.5 -2q-2 -2 -8 -8.5t-13.5 -14.5t-13.5 -14t-8 -6q-4 -2 -23.5 -5.5t-41 -6.5t-40 -6t-22.5 -5q-4 0 -12.5 -8t-10.5 -12h-170q-10 25 -26.5 41.5 t-16.5 41.5zM487 1120q0 -6 1 -26.5t1 -26.5q2 63 31 96t73 46.5t96 12.5t99 -5q-8 47 -44.5 56t-71.5 9q-96 0 -140.5 -31.5t-44.5 -130.5zM500 1012q0 -12 10 -11q10 4 10 11q0 8 -10 12q-10 2 -10 -12zM532 981q4 -10 21 -10q16 0 20 10q2 4 -5 6t-17 2q-8 0 -15.5 -2 t-3.5 -6zM616 961q4 -10 11 -11q8 1 12 11q2 10 -12 10q-12 0 -11 -10zM809 1024q18 33 22.5 73t4.5 77h-27v-150z" />
<glyph unicode="&#xf6;" d="M270 299q0 -2 2 -10t5.5 -18.5t7.5 -20.5t6 -14.5t11 -11.5t11 -11q0 -4 3 -16.5t6.5 -26.5t6.5 -26.5t5 -14.5q2 -4 20.5 -11t22.5 -11.5t16.5 -16.5t26.5 -27.5t26.5 -27.5t16.5 -15h14h27h26h17q4 0 21.5 -10t21.5 -10q2 0 22.5 -1t30.5 -1q27 0 61.5 5t65.5 19.5 t53.5 37t22.5 57.5h149q2 0 5.5 16.5t6.5 38t6 45t5 39.5v14v29v27v16t10 21.5t10 21.5q2 12 6.5 35.5t8.5 47.5t6 43t2 24q0 2 -7 11t-14.5 19t-14.5 19.5t-7 13.5q-4 8 -7 32.5t-7.5 51.5t-6.5 51.5t-2 34.5q-4 2 -21.5 10t-21.5 13q-2 2 -9 20t-11 20q-27 23 -72 45.5 t-80 22.5q-25 0 -34 -7t-15 -16.5t-13 -16.5t-28 -7q-31 0 -49 10t-29.5 23.5t-18.5 24t-13 10.5q-2 0 -6 -1l-5 -1l-21.5 -21.5t-21.5 -22.5q-4 -2 -16 -5t-26.5 -6t-28 -5t-15.5 -4q-18 -8 -46.5 -30.5t-56.5 -51.5t-47.5 -58.5t-19.5 -51.5v-363zM332 492q0 10 8 31.5 t19.5 44t22.5 43t17 30.5q2 2 7.5 15.5t12.5 27.5t13 26.5t8 14.5t15.5 5t28 6t26.5 6t16 5.5t21.5 21.5t21.5 22q2 0 16.5 1t24.5 1q25 0 41.5 -6.5t31.5 -13.5t32.5 -15t46.5 -10q-2 31 22.5 43t46.5 12q0 -20 -3 -32.5t-8 -21t-8 -17.5t-3 -23q14 0 23.5 4t17.5 8t20.5 8 t32.5 4q0 -4 -5 -24.5t-9 -26.5q-2 -2 -20.5 -9t-22.5 -11v-9q0 -25 7 -42t15.5 -33.5t15.5 -34t7 -39.5q0 -35 -6 -81t-21.5 -91t-40 -83t-61.5 -56q-2 -2 -12 -3h-21q-10 0 -20.5 1.5t-12.5 1.5q-4 -2 -20.5 -11.5t-20.5 -11.5h-53h-55q2 29 -18.5 37t-49 19.5t-58.5 34 t-44 81.5q0 4 -3 19.5t-7.5 34t-7.5 33.5t-3 20q-2 2 -11 10t-11 10q0 2 -1 10.5t-1 12.5zM397 1118q0 -35 20.5 -55.5t55.5 -20.5q6 0 18.5 1t14.5 3.5t10 9.5t18.5 17t20.5 20.5t14 16.5v10q0 35 -29.5 67t-64.5 32q-43 0 -60.5 -30t-17.5 -71zM696 1133q0 -37 19.5 -63 t56.5 -26q39 0 68.5 17.5t29.5 60.5q0 35 -17 67t-58 32q-37 0 -68 -24.5t-31 -63.5z" />
<glyph unicode="&#x2000;" horiz-adv-x="831" />
<glyph unicode="&#x2001;" horiz-adv-x="1663" />
<glyph unicode="&#x2002;" horiz-adv-x="831" />
<glyph unicode="&#x2003;" horiz-adv-x="1663" />
<glyph unicode="&#x2004;" horiz-adv-x="554" />
<glyph unicode="&#x2005;" horiz-adv-x="415" />
<glyph unicode="&#x2006;" horiz-adv-x="277" />
<glyph unicode="&#x2007;" horiz-adv-x="277" />
<glyph unicode="&#x2008;" horiz-adv-x="207" />
<glyph unicode="&#x2009;" horiz-adv-x="332" />
<glyph unicode="&#x200a;" horiz-adv-x="92" />
<glyph unicode="&#x2010;" d="M305 631q0 -35 16.5 -50.5t28.5 -48.5q6 0 22.5 9.5t20.5 13.5t10.5 31.5t10.5 31.5q4 2 15 -1t23.5 -7t23.5 -9t16 -5q0 -14 -3.5 -21.5t-6.5 -11.5l-6 -8t-3 -12q20 0 72.5 -1t111 -3t110.5 -3t73 -4q4 0 16 -3t26.5 -7t27 -7t16.5 -3q23 0 56.5 4t64 16.5t52 32 t21.5 49.5q0 29 -7 45.5t-20.5 27.5t-34 19.5t-46.5 18.5h-43t-65 1t-64 1h-43h-56q-35 0 -68.5 -1t-60.5 -1h-28q-6 0 -27.5 -3t-46.5 -7t-47.5 -7t-28.5 -3h-16h-27h-26h-15q-33 -10 -39 -30t-6 -44zM969 575v43h43v-43h-43z" />
<glyph unicode="&#x2011;" d="M305 631q0 -35 16.5 -50.5t28.5 -48.5q6 0 22.5 9.5t20.5 13.5t10.5 31.5t10.5 31.5q4 2 15 -1t23.5 -7t23.5 -9t16 -5q0 -14 -3.5 -21.5t-6.5 -11.5l-6 -8t-3 -12q20 0 72.5 -1t111 -3t110.5 -3t73 -4q4 0 16 -3t26.5 -7t27 -7t16.5 -3q23 0 56.5 4t64 16.5t52 32 t21.5 49.5q0 29 -7 45.5t-20.5 27.5t-34 19.5t-46.5 18.5h-43t-65 1t-64 1h-43h-56q-35 0 -68.5 -1t-60.5 -1h-28q-6 0 -27.5 -3t-46.5 -7t-47.5 -7t-28.5 -3h-16h-27h-26h-15q-33 -10 -39 -30t-6 -44zM969 575v43h43v-43h-43z" />
<glyph unicode="&#x2012;" d="M305 631q0 -35 16.5 -50.5t28.5 -48.5q6 0 22.5 9.5t20.5 13.5t10.5 31.5t10.5 31.5q4 2 15 -1t23.5 -7t23.5 -9t16 -5q0 -14 -3.5 -21.5t-6.5 -11.5l-6 -8t-3 -12q20 0 72.5 -1t111 -3t110.5 -3t73 -4q4 0 16 -3t26.5 -7t27 -7t16.5 -3q23 0 56.5 4t64 16.5t52 32 t21.5 49.5q0 29 -7 45.5t-20.5 27.5t-34 19.5t-46.5 18.5h-43t-65 1t-64 1h-43h-56q-35 0 -68.5 -1t-60.5 -1h-28q-6 0 -27.5 -3t-46.5 -7t-47.5 -7t-28.5 -3h-16h-27h-26h-15q-33 -10 -39 -30t-6 -44zM969 575v43h43v-43h-43z" />
<glyph unicode="&#x2013;" horiz-adv-x="1542" d="M305 631q0 -35 20.5 -50.5t36.5 -48.5q7 0 28 9.5t26 13.5t13 31.5t13 31.5q5 2 19 -1t29.5 -7t29.5 -9t20 -5q0 -14 -4.5 -21.5t-8 -11.5t-7.5 -8t-4 -12q25 0 91 -1t139.5 -3t139 -3t91.5 -4q5 0 20 -3t33.5 -7t34 -7t20.5 -3q29 0 71 4t80.5 16.5t65.5 32t27 49.5 q0 29 -9 45.5t-26 27.5t-42.5 19.5t-58.5 18.5h-54t-81.5 1t-80.5 1h-54h-70q-44 0 -86 -1t-76 -1h-35q-8 0 -35 -3t-58.5 -7t-59.5 -7t-36 -3h-20h-34h-33h-18q-42 -10 -49.5 -30t-7.5 -44zM1139 575v43h54v-43h-54z" />
<glyph unicode="&#x2014;" horiz-adv-x="2566" d="M305 631q0 -35 41.5 -50.5t71.5 -48.5q15 0 56.5 9.5t51.5 13.5t26.5 31.5t26.5 31.5q10 2 37.5 -1t59 -7t59 -9t40.5 -5q0 -14 -9 -21.5t-16.5 -11.5l-15 -8t-7.5 -12q50 0 182 -1t279 -3t278 -3t183 -4q10 0 40.5 -3t67 -7t67.5 -7t42 -3q57 0 141.5 4t161 16.5 t130.5 32t54 49.5q0 29 -17.5 45.5t-51.5 27.5t-85.5 19.5t-116.5 18.5h-108q-78 0 -163.5 1t-161.5 1h-108h-140q-88 0 -172.5 -1t-152.5 -1h-70q-15 0 -69 -3t-117 -7t-119.5 -7t-71.5 -3h-40h-68h-65h-38q-83 -10 -98 -30t-15 -44zM1974 575v43h108v-43h-108z" />
<glyph unicode="&#x202f;" horiz-adv-x="332" />
<glyph unicode="&#x205f;" horiz-adv-x="415" />
<glyph unicode="&#x25fc;" horiz-adv-x="1177" d="M0 0v1178h1178v-1178h-1178z" />
</font>
</defs>
</svg>
